<svg width="1366" height="257" fill="none" xmlns="http://www.w3.org/2000/svg"><path d="M-14.67 218.516l-7.043 9.79-5.942-4.275 19.552-27.178 5.942 4.275-7.043 9.79 28.152 20.253-5.467 7.598-28.151-20.253zm53.011-24.12l-10.376 10.997 4.79 8.562-6.836 7.244-20.5-39.472 7.988-8.466 40.595 18.176-6.835 7.244-8.826-4.285zm-14.136 4.315l7.248-7.681-15.974-7.813 8.726 15.494zm37.454-50.206c1.463 1.749 2.44 3.54 2.93 5.372.52 1.807.585 3.63.194 5.47-.36 1.813-1.146 3.618-2.356 5.412-1.236 1.765-2.851 3.481-4.846 5.149l-3.957 3.311L62.9 184.31l-7.179 6.005L28.774 158.1l11.137-9.316c1.994-1.668 3.982-2.939 5.962-3.814 1.955-.905 3.857-1.374 5.705-1.409 1.88-.059 3.663.326 5.35 1.158 1.69.775 3.268 2.037 4.731 3.786zm-7.271 6.083c-1.54-1.841-3.137-2.721-4.791-2.642-1.68.05-3.61.985-5.787 2.808l-3.314 2.771 8.585 10.263 3.313-2.772c2.179-1.822 3.44-3.555 3.786-5.2.345-1.645-.252-3.387-1.792-5.228zm59.851-7.427l-7.581 4.96-15.768-24.1 2.212 32.97-8.837 5.781-22.995-35.146 7.582-4.96 15.767 24.1-2.21-32.97 8.836-5.781 22.994 35.146zm9.677-45.583c2.201-.785 4.339-1.247 6.415-1.388 2.111-.159 4.087.041 5.929.597a13.345 13.345 0 014.907 2.582c1.484 1.182 2.698 2.722 3.644 4.619.946 1.898 1.454 3.812 1.523 5.744a13.345 13.345 0 01-.892 5.473c-.682 1.771-1.712 3.469-3.092 5.095-1.361 1.573-3.017 3.002-4.969 4.287l2.624 5.263-7.84 3.908-2.624-5.262c-2.201.784-4.357 1.256-6.468 1.414-2.093.105-4.052-.103-5.876-.624a14.087 14.087 0 01-4.961-2.555c-1.465-1.236-2.671-2.802-3.617-4.7-.945-1.897-1.462-3.785-1.549-5.663-.052-1.896.264-3.73.945-5.5.664-1.806 1.677-3.495 3.038-5.068 1.398-1.59 3.072-3.028 5.023-4.314l-2.65-5.316 7.84-3.908 2.65 5.316zm10.253 20.566c1.969-1.34 3.232-2.885 3.789-4.638.574-1.806.353-3.729-.664-5.77-1.018-2.04-2.411-3.357-4.182-3.949-1.734-.61-3.729-.532-5.984.234l7.041 14.123zm-14.88-10.214c-1.97 1.339-3.251 2.894-3.843 4.664-.557 1.753-.326 3.649.691 5.69 1.017 2.04 2.402 3.383 4.154 4.029 1.771.593 3.783.506 6.038-.261l-7.04-14.122zM155.7 81.133l5.031 14.131 5.257-1.871c2.186-.779 4.253-1.175 6.201-1.189 1.985-.028 3.776.29 5.371.954 1.632.65 3.051 1.652 4.255 3.007 1.242 1.34 2.205 2.972 2.889 4.894.684 1.922.969 3.795.854 5.619-.077 1.811-.543 3.484-1.397 5.02-.817 1.522-2.004 2.9-3.56 4.133-1.519 1.22-3.371 2.219-5.557 2.997l-14.074 5.012-14.088-39.568 8.818-3.139zm20.469 22.965c-.685-1.922-1.754-3.197-3.209-3.825-1.469-.666-3.277-.617-5.425.148l-4.409 1.57 4.267 11.983 4.409-1.57c2.148-.765 3.587-1.85 4.317-3.257.717-1.444.734-3.127.05-5.049zm10.676-34.054l14.087 39.567-8.817 3.14-14.088-39.567 8.818-3.14zm65.604-7.457l-11.909 1.9-1.153-7.23 33.063-5.27 1.152 7.228-11.91 1.899 5.461 34.247-9.244 1.474-5.46-34.248zm53.159 18.944l-15.059 1.352-2.092 9.586-9.92.89 10.827-43.14 11.593-1.041L319.293 89.7l-9.92.89-3.765-9.06zm-13.443-6.142l10.518-.944-6.777-16.44-3.741 17.384zm63.399-14.796c.053 2.28-.301 4.288-1.061 6.026a11.115 11.115 0 01-3.26 4.396c-1.413 1.193-3.152 2.113-5.218 2.76-2.066.609-4.399.942-6.998 1.002l-5.159.12.333 14.455-9.358.216-.967-41.989 14.516-.334c2.6-.06 4.946.186 7.039.738 2.093.512 3.872 1.33 5.338 2.457a11.117 11.117 0 013.459 4.242c.838 1.661 1.284 3.631 1.336 5.91zm-9.477.218c-.055-2.4-.754-4.084-2.097-5.053-1.344-1.01-3.435-1.481-6.274-1.416l-4.319.1.308 13.376 4.319-.1c2.839-.065 4.906-.633 6.202-1.703 1.296-1.07 1.916-2.805 1.861-5.204zm51.46 29.397l-9.054-.343 1.088-28.779-17.276 28.167-10.553-.398 1.587-41.97 9.054.342-1.088 28.78 17.276-28.168 10.553.399-1.587 41.97zm32.465-33.329c2.283.501 4.341 1.242 6.176 2.222 1.874.984 3.445 2.2 4.712 3.649a13.346 13.346 0 012.793 4.79c.632 1.788.846 3.738.642 5.848-.203 2.11-.787 4.003-1.752 5.678a13.344 13.344 0 01-3.657 4.169c-1.516 1.14-3.29 2.034-5.321 2.682-1.988.612-4.15.947-6.486 1.003l-.564 5.853-8.72-.84.564-5.853c-2.282-.501-4.361-1.244-6.235-2.228-1.831-1.02-3.381-2.235-4.652-3.643a14.098 14.098 0 01-2.854-4.796c-.587-1.825-.78-3.792-.576-5.902.203-2.11.765-3.985 1.687-5.624a14.09 14.09 0 013.716-4.163c1.52-1.18 3.274-2.076 5.262-2.688 2.028-.608 4.21-.94 6.546-.997l.569-5.913 8.72.84-.57 5.913zm-2.203 22.874c2.38-.092 4.27-.734 5.671-1.925 1.444-1.227 2.275-2.976 2.494-5.245.219-2.27-.266-4.125-1.453-5.565-1.148-1.437-2.881-2.427-5.199-2.972l-1.513 15.707zm-7.207-16.547c-2.379.092-4.29.732-5.73 1.92-1.401 1.19-2.21 2.92-2.429 5.19-.219 2.27.244 4.143 1.388 5.62 1.187 1.44 2.94 2.432 5.258 2.977l1.513-15.707zm46.122-7.926l-2.306 14.82 5.514.858c2.292.357 4.298.992 6.018 1.908 1.759.921 3.182 2.053 4.269 3.396 1.126 1.35 1.895 2.906 2.309 4.67.453 1.771.523 3.665.21 5.68-.314 2.016-.956 3.799-1.925 5.348-.93 1.556-2.137 2.805-3.62 3.748-1.443.95-3.142 1.596-5.098 1.94-1.917.35-4.021.346-6.314-.01l-14.762-2.297 6.456-41.501 9.249 1.438zm7.061 29.94c.314-2.015-.02-3.645-1-4.891-.974-1.285-2.587-2.103-4.84-2.453l-4.625-.72-1.955 12.57 4.625.719c2.253.35 4.035.08 5.347-.808 1.319-.928 2.135-2.4 2.448-4.416zm25.606-24.859l-6.456 41.501-9.249-1.439 6.456-41.5 9.249 1.438zm60.918 20.474l-11.712-2.877 1.747-7.109 32.513 7.987-1.746 7.11-11.712-2.878-8.274 33.678-9.09-2.233 8.274-33.678zm43.594 37.689l-14.557-4.087-5.361 8.217-9.589-2.692 25.447-36.48 11.207 3.146 2.743 44.394-9.589-2.692-.301-9.806zm-10.384-10.518l10.167 2.854-.494-17.775-9.673 14.921zm65.563 6.714c-.613 2.197-1.535 4.016-2.768 5.458a11.107 11.107 0 01-4.397 3.258c-1.698.731-3.63 1.106-5.795 1.125-2.154-.019-4.483-.378-6.987-1.076l-4.971-1.386-3.884 13.928-9.016-2.514 11.282-40.456 13.986 3.9c2.504.698 4.678 1.616 6.52 2.752 1.853 1.098 3.318 2.4 4.393 3.904a11.118 11.118 0 012.076 5.063c.32 1.834.173 3.848-.439 6.044zm-9.132-2.546c.645-2.312.466-4.126-.537-5.444-.992-1.357-2.856-2.416-5.592-3.179l-4.161-1.16-3.594 12.888 4.161 1.16c2.736.763 4.879.821 6.43.174 1.551-.648 2.649-2.127 3.293-4.439zm43.392 39.934l-8.813-2.102 6.679-28.014-22.437 24.257-10.273-2.449 9.741-40.855 8.813 2.102-6.679 28.014 22.437-24.257 10.273 2.449-9.741 40.855zm40.009-28.734c2.225.714 4.204 1.646 5.938 2.795 1.773 1.157 3.222 2.516 4.346 4.077a13.328 13.328 0 012.329 5.033c.46 1.84.489 3.801.088 5.883-.402 2.081-1.162 3.91-2.281 5.487a13.35 13.35 0 01-4.034 3.805c-1.617.991-3.467 1.714-5.551 2.168-2.037.421-4.221.55-6.552.386l-1.113 5.773-8.602-1.659 1.114-5.774c-2.225-.714-4.224-1.65-5.997-2.806-1.726-1.189-3.155-2.544-4.287-4.066a14.062 14.062 0 01-2.388-5.044c-.413-1.872-.419-3.849-.017-5.93.401-2.082 1.138-3.895 2.21-5.44a14.1 14.1 0 014.093-3.794c1.624-1.031 3.455-1.757 5.492-2.179 2.076-.414 4.28-.539 6.611-.374l1.125-5.833 8.601 1.659-1.125 5.833zm-4.353 22.564c2.378.133 4.32-.328 5.827-1.381 1.554-1.086 2.547-2.748 2.979-4.986.432-2.239.124-4.132-.922-5.678-1.006-1.538-2.638-2.688-4.895-3.449l-2.989 15.494zm-5.612-17.154c-2.378-.133-4.34.324-5.886 1.37-1.507 1.054-2.476 2.7-2.908 4.939-.432 2.238-.149 4.147.851 5.725 1.046 1.546 2.697 2.699 4.954 3.461l2.989-15.495zm38.33-6.413l-2.157 14.844 5.522.802c2.295.334 4.308.95 6.037 1.848 1.768.903 3.202 2.021 4.302 3.353 1.14 1.338 1.925 2.887 2.356 4.647.471 1.766.56 3.659.267 5.678-.294 2.019-.918 3.807-1.872 5.366-.914 1.565-2.108 2.827-3.581 3.785-1.434.964-3.127 1.627-5.079 1.99-1.913.369-4.017.386-6.313.053l-14.785-2.149 6.04-41.563 9.263 1.346zm7.361 29.869c.293-2.019-.056-3.646-1.049-4.882-.987-1.275-2.609-2.077-4.865-2.404l-4.631-.673-1.83 12.587 4.632.673c2.256.328 4.036.041 5.339-.861 1.309-.941 2.11-2.421 2.404-4.44zm25.355-25.115l-6.04 41.564-9.263-1.347 6.04-41.563 9.263 1.346zm60.983 12.782l-12.044-.631.384-7.31 33.434 1.753-.384 7.31-12.043-.632-1.816 34.633-9.347-.49 1.816-34.633zm47.607 26.885l-15.119-.187-3.056 9.322-9.959-.123 15.159-41.815 11.639.144 14.119 42.178-9.959-.123-2.824-9.396zm-12.748-7.479l10.559.131-5.07-17.044-5.489 16.913zm63.804-12.398c.074 2.279-.261 4.291-1.005 6.036a11.117 11.117 0 01-3.219 4.426c-1.401 1.206-3.132 2.142-5.192 2.809-2.06.627-4.39.983-6.989 1.067l-5.157.167.468 14.452-9.356.303-1.358-41.978 14.513-.47c2.598-.084 4.947.14 7.045.673 2.097.492 3.884 1.295 5.361 2.408a11.105 11.105 0 013.498 4.209c.854 1.653 1.318 3.619 1.391 5.898zm-9.475.307c-.077-2.399-.792-4.077-2.144-5.034-1.353-.997-3.448-1.449-6.287-1.357l-4.318.14.433 13.373 4.318-.14c2.838-.092 4.9-.679 6.186-1.761 1.286-1.082 1.89-2.823 1.812-5.221zm54.198 24.74l-9.032.713-2.268-28.711-13.881 29.987-10.527.831-3.308-41.869 9.032-.714 2.268 28.711 13.881-29.986 10.528-.832 3.307 41.87zm26.759-39.545c2.33-.022 4.5.241 6.51.787 2.05.54 3.85 1.375 5.41 2.503a13.32 13.32 0 013.79 4.045c1.02 1.603 1.66 3.455 1.93 5.557.28 2.103.13 4.078-.44 5.927-.53 1.803-1.4 3.43-2.63 4.88-1.22 1.449-2.75 2.717-4.59 3.803-1.8 1.041-3.83 1.849-6.09 2.426l.75 5.831-8.68 1.129-.76-5.831c-2.34.022-4.53-.238-6.58-.779-2.01-.585-3.79-1.422-5.34-2.511a14.101 14.101 0 01-3.86-4.037c-.98-1.648-1.6-3.523-1.88-5.625-.27-2.102-.14-4.055.39-5.859a14.122 14.122 0 012.69-4.888c1.22-1.489 2.73-2.754 4.53-3.795 1.84-1.046 3.89-1.857 6.16-2.434l-.77-5.89 8.69-1.13.77 5.891zm2.96 22.788c2.3-.621 4-1.669 5.09-3.143 1.14-1.519 1.56-3.409 1.26-5.67-.29-2.261-1.18-3.961-2.65-5.1-1.44-1.144-3.35-1.722-5.74-1.735l2.04 15.648zm-10.72-14.519c-2.3.622-4.02 1.672-5.16 3.151-1.1 1.474-1.5 3.341-1.21 5.602.3 2.261 1.17 3.984 2.61 5.167 1.48 1.139 3.41 1.715 5.79 1.728l-2.03-15.648zm38.22-18.828l2.76 14.743 5.49-1.029c2.28-.428 4.38-.497 6.31-.207 1.96.282 3.68.876 5.15 1.78 1.51.896 2.76 2.108 3.74 3.634 1.01 1.518 1.71 3.28 2.09 5.285.37 2.005.36 3.899-.03 5.683-.36 1.777-1.08 3.357-2.17 4.74-1.04 1.376-2.43 2.552-4.16 3.528-1.69.968-3.67 1.666-5.95 2.094l-14.69 2.755-7.74-41.28 9.2-1.726zm16.63 25.876c-.37-2.005-1.23-3.431-2.57-4.279-1.35-.887-3.14-1.12-5.38-.7l-4.6.863 2.34 12.502 4.6-.863c2.24-.42 3.84-1.268 4.78-2.543.93-1.315 1.21-2.975.83-4.98zm15.86-31.972l7.74 41.28-9.2 1.726-7.74-41.28 9.2-1.726zm61.32-8.074l-11.56 3.438-2.09-7.016 32.09-9.545 2.09 7.016-11.56 3.439 9.89 33.24-8.97 2.669-9.89-33.241zm55.61 8.636l-14.28 4.963.29 9.807-9.41 3.27.04-44.479 11-3.821 27.62 34.866-9.41 3.27-5.85-7.876zm-14.53-2.699l9.97-3.467-10.56-14.306.59 17.773zm52.89-32.414c.85 2.116 1.22 4.12 1.12 6.015a10.97 10.97 0 01-1.51 5.261c-.9 1.613-2.2 3.086-3.91 4.418-1.72 1.295-3.79 2.427-6.2 3.397l-4.79 1.924 5.39 13.417-8.68 3.49-15.66-38.972 13.47-5.413c2.41-.97 4.7-1.564 6.85-1.783 2.14-.255 4.09-.114 5.86.426 1.81.524 3.38 1.443 4.73 2.756 1.37 1.26 2.48 2.948 3.33 5.064zm-8.8 3.534c-.89-2.227-2.14-3.558-3.74-3.994-1.61-.473-3.73-.18-6.37.88l-4.01 1.61 4.99 12.415 4.01-1.61c2.63-1.06 4.37-2.317 5.21-3.775.84-1.457.81-3.299-.09-5.526zm61.11 3.632l-8.22 3.82-12.14-26.117-2.55 32.945-9.58 4.451-17.7-38.087 8.22-3.819 12.14 26.117 2.55-32.945 9.57-4.451 17.71 38.087zm10.39-46.187c2.18-.85 4.3-1.378 6.37-1.58 2.11-.223 4.09-.084 5.95.417a13.38 13.38 0 014.98 2.432c1.52 1.137 2.78 2.64 3.78 4.508 1 1.868 1.57 3.766 1.7 5.695.14 1.875-.1 3.708-.73 5.498s-1.61 3.518-2.94 5.185c-1.31 1.613-2.92 3.092-4.83 4.436l2.78 5.18-7.72 4.144-2.78-5.181c-2.18.85-4.32 1.387-6.42 1.61-2.09.167-4.06.018-5.9-.447a14.067 14.067 0 01-5.03-2.404c-1.5-1.191-2.76-2.72-3.76-4.589-1-1.868-1.58-3.739-1.72-5.614-.11-1.894.15-3.736.78-5.525.61-1.826 1.57-3.545 2.88-5.158 1.35-1.632 2.98-3.12 4.89-4.464l-2.81-5.233 7.72-4.144 2.81 5.234zm10.87 20.247c1.93-1.398 3.14-2.981 3.65-4.75.52-1.822.24-3.738-.84-5.747s-2.51-3.283-4.3-3.821c-1.75-.558-3.74-.42-5.97.415l7.46 13.903zm-15.18-9.76c-1.93 1.398-3.16 2.991-3.7 4.778-.5 1.769-.22 3.657.86 5.666 1.08 2.01 2.5 3.31 4.28 3.903 1.78.538 3.79.39 6.02-.444l-7.46-13.903zm29.57-31.72l8.02 12.672 4.72-2.986c1.96-1.242 3.89-2.084 5.78-2.528 1.93-.466 3.75-.55 5.45-.256 1.74.274 3.34.938 4.82 1.994 1.5 1.034 2.8 2.412 3.89 4.136 1.1 1.723 1.79 3.487 2.08 5.292.32 1.783.24 3.517-.26 5.204-.46 1.665-1.31 3.27-2.56 4.817-1.21 1.525-2.79 2.909-4.75 4.15l-12.63 7.995-22.47-35.481 7.91-5.009zm25.03 17.88c-1.09-1.724-2.42-2.731-3.97-3.023-1.58-.325-3.34.122-5.26 1.342l-3.96 2.505 6.81 10.745 3.95-2.504c1.93-1.22 3.09-2.597 3.5-4.13.38-1.567.02-3.212-1.07-4.935zm2.9-35.57l22.47 35.48-7.91 5.009-22.47-35.481 7.91-5.009z" fill="#000"/></svg>