<svg width="47" height="47" fill="none" xmlns="http://www.w3.org/2000/svg"><path d="M14.25 36.218s.685.293 1.272.293c.588 0 1.664-.979 1.664-.979s1.567 1.175 1.86 1.273c.294.098 1.762.196 2.056.098.293-.098.391.098.391.294 0 .097-.685.489-1.076.587-.392.098-1.664.293-2.252.293-.587 0-1.37-.195-1.762-.097-.391.097-1.86.097-1.86.097s-.489-.685-.293-1.86z" fill="#000"/><path d="M21.493 37.099s-.587.489-1.272.587c-.686.196-1.664.391-2.447.196-.784-.196-3.426-.196-3.426-.196v.49a.21.21 0 00.195.195h1.958s.098 0 .098-.098v-.391s.49 0 1.37.098c.783.097 2.545-.196 2.937-.392.881-.392.587-.49.587-.49zM9.356 19.577c.097 0 3.132 1.86 4.11 2.545.98.685 3.525 1.86 3.525 1.86s1.076.49 1.174 1.077c.098.489.881 10.963.881 10.963s-1.957.49-2.74.587c-.784.196-2.252 0-2.252 0s.49-4.699.196-6.852c-.294-2.056-.294-2.839-.294-2.839s-3.426-.783-4.6-.88l-1.175-.099s.685-6.264 1.175-6.362z" fill="#EBEBEB"/><path d="M9.453 46.691l.196-.293s0-.196-.196-.196c-.293-.098-1.076-.196-1.468-.392-.391-.196-1.957-1.566-1.957-1.566l-2.937-.196s-.587.588-.49 1.566l.196.294 1.664.49s1.567.587 2.937.587c1.37 0 2.055-.294 2.055-.294z" fill="#000"/><path d="M2.601 46.398c.392.097 1.077.293 1.567.293v-.294s1.174.392 1.762.49c.587.098 2.447.196 3.23 0 .685-.196.391-.49.391-.49s-.195.392-.49.392c-.293 0-2.055.196-3.131 0-.98-.196-1.469-.49-1.958-.685-.49-.196-1.566-.392-1.566-.392l-.098.49c.098 0 .196.196.293.196zm6.754-20.361S7.594 35.63 7.398 37.001c-.196 1.37-.783 7.83-.783 7.83H4.46c-1.272 0-1.566-.783-1.566-.783s.49-1.762.49-2.349c0-.587-.098-5.677.195-7.44.294-1.761.098-7.536.685-8.907.588-1.37 4.993-.49 4.993-.49l.097 1.175z" fill="#EBEBEB"/><path d="M3.874 28.876l.098-1.272c0-.098.098-.294.294-.294l2.251.098c.098 0 .098 0 .196.098 0 .098.098.098.098.195l-.098 1.175h.49L7.3 27.8c0-.195-.098-.391-.196-.587-.098-.196-.293-.293-.587-.293l-2.251-.098c-.49 0-.783.293-.783.783l-.098 1.272h.49z" fill="#FFC61C"/><path d="M9.943 36.61l-9.397-.49c-.294 0-.49-.294-.49-.49v-7.145c0-.294.196-.49.49-.49l9.397.49c.294 0 .49.293.49.489v7.146c0 .293-.294.49-.49.49z" fill="#FFC61C"/><path d="M6.027 1.077l.98.293s.489 1.077.489 1.273c0 .196 0 .294.098.391.098.098.685.881.685.881s.098.196-.098.294c-.196.098-.294.196-.294.196s.098.293.196.293 0 .196-.098.196c0 0 .196 0 .196.294 0 0-.294.293-.196.49 0 .195 0 .684-.587.782h-.783s-.49 1.762-.783 2.252l-.294.489-2.153-2.545v-.685s.489-4.796 2.642-4.894z" fill="#FFD15C"/><path d="M3.385 5.971s.88-.098 1.076-1.273c.196-1.174.783-.978.881-.685 0 .196.098.49.098.49l.294-.098s-.098-.588.098-.881c.196-.294.195-.98 0-1.273-.196-.293.587-.685.979-.783.391-.098.685-.88.391-1.077C6.908.196 5.734 0 4.755 0c-.979 0-2.251.49-2.74 1.077-.49.587-.686 2.055-.099 3.132a6.286 6.286 0 001.469 1.762z" fill="#FFF6DC"/><path d="M5.524 4.311c-.09-.478-.378-.825-.644-.776-.266.05-.408.478-.318.957.09.478.377.825.643.775.266-.05.408-.478.319-.956z" fill="#FFD15C"/><path d="M3.482 7.146l-.391.098s-1.664 1.174-2.056 3.23c-.391 2.055 3.133 15.661 3.133 15.661s4.013.392 4.894-.293c.88-.686.685-1.762.685-2.839 0-1.175-.294-5.384-.294-5.384s-.685-3.524-1.174-4.307c-.49-.783-3.328-5.285-3.328-5.285l-1.469-.881z" fill="#A4A4A4"/><path d="M3.776 25.352s.196 1.175.294 1.468c.098.294.196.784.391.784.196 0 .294-.098.294-.098s.098.195.294.195c.195 0 .195-.098.195-.098s.098.196.294.196c.196 0 .196-.195.196-.195s.098.293.293.293c.294 0 .294-.196.294-.293 0-.098-.098-.686-.098-.784 0 0 .196.392.49.196l-.098-.587s-.098-.294-.294-.392c-.196-.195-.783-1.076-.783-1.076l-1.762.391z" fill="#FFD15C"/><path d="M5.832 24.96l.195.392c-.88.392-1.664.783-2.447 1.077l-.195-1.175 2.447-.293z" fill="#fff"/><path d="M2.112 9.005c.587-.88 1.37-.685 2.154-.097l.195.195c.294.392 1.077 1.664.783 3.328-.293 2.056-.489 6.265-.195 7.44.195.783.783 2.838 1.174 4.11.196.588-.195 1.175-.783 1.273-.685.196-1.664.392-2.251.588-.685.293-1.37-.196-1.37-.98 0-1.859-.196-5.97-.49-7.634-.391-1.958 0-6.95.783-8.223z" fill="#EBEBEB"/><path d="M3.385 6.46s.783.196 1.272.784c.49.587 2.154 2.642 2.839 3.817.391.685 1.175 2.937 1.37 3.426.196.49.588 3.132.588 3.132s-.783-2.055-1.077-3.034c-.294-.98-1.566-3.524-1.958-3.916-.391-.391-2.349-2.838-3.328-3.426l.294-.783z" fill="#EBEBEB"/><path d="M6.81 26.918s-.489-.293-.195-.489l.196.49z" fill="#fff"/><path d="M46.943 28.974v5.971l-22.905 12.04H12.586v-5.971h11.452v-6.069h11.453v-5.971h11.452z" fill="#E8EAE9"/></svg>