<svg width="38" height="41" fill="none" xmlns="http://www.w3.org/2000/svg"><path d="M37.931 37.79c.02-.098.033-.198.044-.3.004-.035.01-.07.013-.105.008-.102.008-.204.006-.308 0-.036.002-.072 0-.11v-.026c-.005-.097-.02-.194-.033-.29-.005-.036-.006-.07-.012-.106a3.458 3.458 0 00-.102-.424L34.35 24.726a3.412 3.412 0 00-2.829-2.383l-6.53-.862c-.012-.017-.021-.035-.035-.05l-1.51-1.682a.623.623 0 00-.46-.202v-.07c1.706-1.114 3.046-2.922 3.758-5.104.05.012.1.023.15.03.92.13 1.8-.709 1.962-1.872.153-1.088-.374-2.074-1.196-2.303a1.487 1.487 0 00-.388-.37l-.004-.04c-.005-.063-.013-.125-.02-.187a8.211 8.211 0 00-.03-.279c-.008-.065-.019-.129-.028-.194l-.04-.259-.038-.196a9.2 9.2 0 00-.417-1.485 9.224 9.224 0 00-.157-.387c-.026-.061-.052-.122-.08-.181l-.091-.192a7.4 7.4 0 00-.188-.358c-.032-.059-.063-.117-.097-.174-.034-.058-.07-.114-.105-.17l-.106-.17c-.034-.053-.07-.103-.106-.155-.04-.057-.078-.115-.12-.17-.026-.038-.055-.073-.083-.11a7.947 7.947 0 00-.326-.402l-.07-.08c-.054-.062-.111-.12-.168-.18l-.095-.1c-.056-.057-.114-.111-.171-.166l-.105-.099a6.538 6.538 0 00-.177-.155l-.11-.095a7.578 7.578 0 00-.185-.147l-.114-.087a7.663 7.663 0 00-.193-.14c-.038-.026-.076-.053-.115-.078a8.508 8.508 0 00-.645-.39 7.622 7.622 0 00-.225-.116l-.11-.054c-.047-.022-.092-.046-.14-.067l-.098-.043-.103-.043a6.169 6.169 0 00-.203-.085l-.057-.021-.08-.03a8.28 8.28 0 00-.268-.095c-.044-.015-.09-.028-.134-.042a8.244 8.244 0 00-.282-.084l-.155-.04a8.849 8.849 0 00-.878-.177 8.628 8.628 0 00-.277-.036l-.169-.02-.154-.012-.098-.007-.054-.003c-.049-.004-.097-.008-.145-.01a9.538 9.538 0 00-.88-.003c-.046.002-.093.007-.14.01-.091.005-.184.01-.275.018l-.169.019c-.08.009-.162.017-.242.028-.06.008-.119.018-.178.028-.075.012-.15.022-.225.036-.063.011-.124.025-.186.038-.07.014-.141.028-.21.044-.064.015-.127.032-.191.049l-.198.051c-.065.018-.128.039-.192.058l-.189.06c-.064.021-.128.045-.192.068-.06.022-.12.042-.18.066-.065.025-.128.052-.192.079-.057.024-.114.047-.17.072-.065.029-.13.06-.193.09-.053.026-.108.051-.16.078-.065.033-.129.068-.192.102l-.152.083a7.609 7.609 0 00-.189.113l-.144.088a8.597 8.597 0 00-.505.353c-.042.032-.085.064-.126.097a7.392 7.392 0 00-.181.149 7.049 7.049 0 00-.576.539 9.112 9.112 0 00-.268.291 9.122 9.122 0 00-.254.308 10.194 10.194 0 00-.24.323l-.073.107a8.777 8.777 0 00-.15.23l-.066.108c-.05.08-.097.161-.143.244a7.522 7.522 0 00-.193.366l-.05.106c-.044.09-.086.182-.126.275l-.044.103c-.04.096-.079.193-.116.29l-.037.101a8.314 8.314 0 00-.106.308l-.029.096a8.641 8.641 0 00-.095.326l-.023.09c-.03.114-.058.229-.084.346l-.016.08c-.026.122-.05.244-.071.368-.005.023-.008.047-.011.07-.022.13-.042.26-.058.391l-.006.055c-.017.137-.031.275-.043.415-.148.096-.28.222-.39.372-.821.23-1.348 1.215-1.196 2.303.163 1.163 1.042 2.001 1.962 1.872.051-.007.101-.018.15-.03.712 2.182 2.053 3.99 3.76 5.104v.07a.624.624 0 00-.462.202l-1.51 1.681c-.013.016-.023.034-.035.05l-6.53.863a3.411 3.411 0 00-2.829 2.383L.152 36.122a3.45 3.45 0 00-.1.424c-.007.035-.008.07-.013.107-.014.096-.029.193-.034.288v.138c0 .103 0 .205.007.307.003.036.009.07.013.106.011.1.024.2.044.3l.003.024.001-.005a3.436 3.436 0 001.769 2.343 3.353 3.353 0 001.571.38h31.174a3.368 3.368 0 002.217-.818c.57-.489.968-1.16 1.123-1.905v.005l.004-.025z" fill="#292929"/><path d="M36.312 34.732c.018-.09.03-.182.04-.274.003-.033.009-.064.012-.097.007-.092.007-.186.005-.28 0-.034.002-.067 0-.101v-.025a2.667 2.667 0 00-.03-.264c-.005-.033-.006-.065-.011-.098a3.135 3.135 0 00-.093-.388l-3.198-10.42a3.12 3.12 0 00-2.586-2.179l-5.341-.705a.625.625 0 00-.154-.505l-1.509-1.68a.629.629 0 00-.708-.162l-.095.04v-1.476c1.561-1.018 2.787-2.671 3.438-4.668.045.012.09.022.137.029.842.118 1.646-.65 1.794-1.713.15-1.064-.412-2.022-1.254-2.14a1.247 1.247 0 00-.177-.01l-.002-.04c-.006-.097-.01-.195-.019-.291l-.017-.171-.028-.255-.026-.178a8.82 8.82 0 00-.037-.236c-.01-.06-.023-.12-.034-.18a9.06 9.06 0 00-.046-.222c-.013-.06-.028-.12-.043-.18a8.112 8.112 0 00-.294-.956l-.065-.17a9.016 9.016 0 00-.077-.184c-.024-.055-.048-.111-.074-.166-.027-.059-.055-.116-.083-.174-.027-.055-.053-.11-.081-.163l-.09-.166-.09-.158c-.03-.052-.063-.104-.095-.155-.032-.052-.064-.105-.097-.156l-.098-.142c-.036-.052-.071-.105-.108-.156L25 3.016a7.05 7.05 0 00-.299-.368c-.02-.024-.04-.049-.061-.072-.05-.057-.103-.11-.155-.165L24.4 2.32c-.052-.052-.105-.102-.158-.152l-.095-.09c-.053-.05-.108-.096-.163-.143l-.1-.086a6.223 6.223 0 00-.17-.135l-.102-.079a7.718 7.718 0 00-.177-.127c-.036-.024-.07-.05-.107-.073a7.63 7.63 0 00-.59-.356 7.113 7.113 0 00-.204-.107l-.101-.048c-.043-.02-.084-.043-.127-.062l-.09-.039-.095-.04-.185-.077-.052-.02-.076-.027c-.08-.03-.16-.06-.242-.086-.041-.014-.082-.026-.124-.039a8.392 8.392 0 00-.256-.076L21.041.42a7.579 7.579 0 00-.246-.06l-.153-.03a8.386 8.386 0 00-.245-.045L20.24.26a7.957 7.957 0 00-.255-.033L19.832.21 19.69.197 19.6.19a53.256 53.256 0 00-.05-.003l-.13-.009a8.655 8.655 0 00-.804-.002l-.129.008c-.084.005-.169.01-.252.018a3.67 3.67 0 00-.151.016c-.075.009-.15.016-.224.026-.056.007-.11.017-.165.026-.068.01-.136.02-.204.032-.057.01-.114.024-.17.035l-.192.04c-.059.014-.116.03-.174.045-.06.015-.122.03-.182.047-.058.016-.116.035-.174.053-.058.018-.117.035-.174.054-.059.02-.117.041-.175.063l-.165.06c-.06.023-.117.048-.176.072l-.156.067c-.059.026-.117.054-.176.082-.049.024-.098.047-.146.072-.06.03-.117.06-.175.092-.047.026-.094.05-.14.077-.058.033-.115.068-.172.103a7.547 7.547 0 00-.132.08c-.057.037-.114.076-.17.114l-.124.085c-.057.04-.112.082-.168.125l-.115.088a7.36 7.36 0 00-.435.375l-.099.093a6.73 6.73 0 00-.486.525 6.764 6.764 0 00-.572.787 7.847 7.847 0 00-.191.322c-.019.032-.036.065-.054.098a7.275 7.275 0 00-.123.236l-.046.098c-.04.082-.078.165-.115.25l-.04.095a8.322 8.322 0 00-.106.266l-.034.092a7.81 7.81 0 00-.097.281l-.027.087c-.03.099-.06.198-.087.299l-.02.081c-.027.105-.054.21-.077.317l-.015.073a8.76 8.76 0 00-.065.337l-.01.064c-.02.118-.038.237-.053.358l-.005.049c-.016.127-.03.255-.04.385 0 .01 0 .019-.002.029l-.017.262c-.058 0-.117.002-.176.01-.842.119-1.404 1.077-1.255 2.14.15 1.064.953 1.831 1.795 1.713.046-.006.092-.016.137-.028.65 1.996 1.877 3.65 3.437 4.668v1.475l-.094-.039a.628.628 0 00-.708.161l-1.51 1.681a.625.625 0 00-.153.505l-5.34.705a3.119 3.119 0 00-2.587 2.179L1.88 32.835l-.048.156-.066.214c-.04.13-.07.259-.092.388-.006.032-.007.065-.011.097-.013.089-.026.177-.031.265v.024c-.002.034 0 .067 0 .1a3.3 3.3 0 00.006.282c.002.032.008.064.012.097.01.092.022.183.04.273l.003.023v-.005c.118.564.387 1.082.772 1.497a3.095 3.095 0 002.283.993h1.155c.01.037.02.076.034.11a.979.979 0 00.291.379.969.969 0 00.616.223H30.98a.983.983 0 00.908-.601c.015-.036.023-.073.034-.11h1.333c.918 0 1.721-.389 2.283-.994.386-.415.655-.933.772-1.497v.004c.001-.006.001-.014.003-.02z" fill="#212122"/><path d="M34.586 38.5H3.414c-2.295 0-3.935-2.22-3.262-4.413L3.65 22.692a3.411 3.411 0 012.828-2.383L19 18.656l12.521 1.653a3.41 3.41 0 012.83 2.383l3.496 11.395c.674 2.193-.967 4.412-3.26 4.412z" fill="#fff"/><path d="M.152 35.461L3.65 24.066a3.412 3.412 0 012.828-2.383L19 20.03l12.521 1.653a3.41 3.41 0 012.83 2.383l3.496 11.395a3.6 3.6 0 01.08.319 3.385 3.385 0 00-.08-1.693L34.35 22.692a3.411 3.411 0 00-2.829-2.383L19 18.656 6.478 20.309a3.411 3.411 0 00-2.828 2.383L.152 34.087a3.385 3.385 0 00-.08 1.693c.022-.106.048-.212.08-.319z" fill="#DBDBDB"/><path d="M37.723 33.682a3.404 3.404 0 01-3.137 2.069H3.414a3.405 3.405 0 01-3.137-2.07l-.125.406C-.52 36.28 1.12 38.5 3.414 38.5h31.172c2.294 0 3.935-2.219 3.261-4.412l-.124-.405z" fill="#000"/><path d="M5.43 38.499l1.48-8.19c.055-.307.5-.298.542.012l1.138 8.178H5.43zm27.14 0l-1.48-8.19c-.055-.307-.5-.298-.543.012l-1.137 8.178h3.16z" fill="#000"/><path d="M19 16.614c-1.444 0-2.802-.44-3.985-1.213V19.4a3.985 3.985 0 007.97 0v-4c-1.183.773-2.54 1.213-3.985 1.213z" fill="#F0C6A4"/><path d="M12.477 10.03c.163 1.163-.45 2.21-1.371 2.34-.921.129-1.8-.71-1.963-1.873-.163-1.163.451-2.211 1.372-2.34.921-.13 1.8.71 1.962 1.872zm13.046 0c-.163 1.163.45 2.21 1.371 2.34.921.129 1.8-.71 1.963-1.873.163-1.163-.451-2.211-1.372-2.34-.921-.13-1.8.71-1.962 1.872z" fill="#DCB18E"/><path d="M27.309 8.752c0 5.47-3.72 9.904-8.309 9.904-4.589 0-8.309-4.434-8.309-9.904S14.411 0 19 0c4.589 0 8.309 3.282 8.309 8.752z" fill="#F0C6A4"/><path d="M19 17.797c-4.468 0-8.11-4.203-8.3-9.473-.005.141-.009.284-.009.428 0 5.47 3.72 9.904 8.309 9.904 4.589 0 8.309-4.434 8.309-9.904 0-.144-.004-.287-.01-.428-.189 5.27-3.831 9.473-8.299 9.473z" fill="#DCB18E"/><path d="M10.7 8.313A7.833 7.833 0 0021.756.428 8.888 8.888 0 0019 0c-4.465 0-8.106 3.107-8.3 8.313z" fill="#303030"/><path d="M19 1.375a8.89 8.89 0 012.757.428l.005.077a7.85 7.85 0 00-.005-1.451A8.888 8.888 0 0019 0c-4.465 0-8.106 3.108-8.3 8.314l.13.055c.71-4.407 4.097-6.994 8.17-6.994z" fill="#5B5B5B"/><path d="M19.909.045a7.833 7.833 0 007.394 8.97c.003-.088.006-.175.006-.264 0-5.103-3.24-8.3-7.4-8.706z" fill="#444"/><path d="M19.909 1.42c3.85.375 6.907 3.14 7.344 7.592.017 0 .034.003.05.003.002-.088.006-.175.006-.263 0-5.104-3.24-8.301-7.4-8.707a7.887 7.887 0 00-.053 1.834c.014-.154.03-.308.053-.46z" fill="#6F6F6F"/><path d="M19.864 13.665l-.646.646a.308.308 0 01-.435 0l-.647-.646a.307.307 0 01.218-.525h1.292c.274 0 .411.331.218.525z" fill="#DCB18E"/><path d="M28.736 36.608H9.086a.68.68 0 01-.677-.614L7.181 23.297a.68.68 0 01.677-.745h22.106a.68.68 0 01.677.745l-1.228 12.695a.68.68 0 01-.677.615z" fill="#D1D3D4"/><path d="M7.858 23.169h22.106a.68.68 0 01.644.463l.032-.333a.68.68 0 00-.676-.745H7.858a.68.68 0 00-.677.745l.032.334a.68.68 0 01.645-.464zm11.035 8.6c1.522 0 2.756-1.112 2.756-2.484 0-1.371-1.234-2.483-2.756-2.483-1.522 0-2.756 1.112-2.756 2.483 0 1.372 1.234 2.484 2.756 2.484z" fill="#fff"/><path d="M30.496 38.499H7.326a.946.946 0 010-1.891h23.17a.946.946 0 010 1.891z" fill="#E6E7E8"/><path d="M31.442 37.553c0-.048-.006-.093-.012-.14a.937.937 0 00-.049-.19c-.116.345-.391.588-.715.588H7.156c-.324 0-.599-.243-.715-.587a.944.944 0 00-.06.33c0 .521.423.945.945.945h23.17a.945.945 0 00.946-.946z" fill="#D1D3D4"/><path d="M31.125 36.849a.94.94 0 00-.629-.241H7.326a.942.942 0 00-.629.24h24.428z" fill="#fff"/></svg>