<svg width="47" height="47" fill="none" xmlns="http://www.w3.org/2000/svg"><path d="M33.781 31.925v9.2H1.47v-9.2a2.937 2.937 0 011.624-2.628l7.188-3.594H24.97l7.188 3.594a2.938 2.938 0 011.624 2.628z" fill="#E9EEF2"/><path d="M13.953 19.094h7.344v8.078h-7.344v-8.078z" fill="#E0B999"/><path d="M11.016 5.875h13.218v8.813a5.875 5.875 0 01-5.875 5.874h-1.468a5.875 5.875 0 01-5.875-5.875V5.876z" fill="#F0C6A4"/><path d="M14.687 7.344s2.204 3.672 6.61 3.672c4.406 0 5.875-5.875 5.875-5.875s-2.203.734-4.407-1.47c-2.203-2.202-5.14-1.468-5.14-1.468s-1.469 0-2.938 1.469c-.734-.735-6.5-1.102-3.671 6.61l3.671-2.938z" fill="#AD6643"/><path d="M6.61 41.125v-4.406a.734.734 0 111.468 0v4.406H6.61zm20.562 0v-4.406a.734.734 0 111.469 0v4.406h-1.47z" fill="#DADCDE"/><path d="M14.688 28.64l1.468 2.938h2.938l1.468-2.937-2.937-1.47-2.938 1.47z" fill="#EEB200"/><path d="M13.953 23.5l3.672 3.672-4.406 3.672-2.938-5.14 3.672-2.204zm7.344 0l-3.672 3.672 4.406 3.672 2.938-5.14-3.672-2.204z" fill="#DADCDE"/><path d="M20.563 33.781v7.344h-5.875v-7.344l1.468-2.203h2.938l1.468 2.203z" fill="#FFC61C"/><path d="M37.453 36.719l-2.203 8.078-2.203-2.203-3.672.734 3.672-10.281 4.406 3.672zm0 0l2.203 8.078 2.203-2.203 3.672.734-3.672-10.281-4.406 3.672z" fill="#C9C9C9"/><path d="M37.453 36.719a8.078 8.078 0 100-16.156 8.078 8.078 0 000 16.156z" fill="#fff"/><path d="M37.453 33.781a5.14 5.14 0 100-10.281 5.14 5.14 0 000 10.281z" fill="#FFE76C"/><path d="M38.922 30.11h-.734v-3.672a.734.734 0 00-.735-.735h-.734a.735.735 0 00-.52.215l-.734.735a.734.734 0 101.039 1.038l.215-.215v2.633h-.735a.734.734 0 100 1.47h2.938a.734.734 0 100-1.47z" fill="#F2C837"/></svg>