<svg width="48" height="47" fill="none" xmlns="http://www.w3.org/2000/svg"><path d="M.64 6.674h30.538V42.14H.641V6.674z" fill="#fff"/><path d="M31.178 4.329c0-1.332-1.242-2.412-2.775-2.412H3.415c-1.532 0-2.774 1.08-2.774 2.412V7.36h30.537V4.329zm0 40.259v-3.032H.641v3.032C.64 45.92 1.883 47 3.415 47h24.99c1.531 0 2.773-1.08 2.773-2.412z" fill="#FFEBB1"/><path d="M30.29 41.556v3.032c0 1.332-1.242 2.412-2.775 2.412h7.27c1.533 0 2.775-1.08 2.775-2.412v-3.032h-7.27z" fill="#ECB209"/><path d="M34.33 18.545c0-3.955.055-9.943-.14-10.967-.619-3.257-3.2-5.937-6.653-7.094-4.134 1.223-7.108 4.627-7.108 8.634l-.002 2.845a8.325 8.325 0 01-1.004 3.982c-1.45 2.757.556 5.988 4.01 6.4.336.04.678.062 1.026.062h9.876v-3.863l-.004.001z" fill="#3A3A3A"/><path d="M42.413 15.945l-.028-.052a8.325 8.325 0 01-.977-3.93l-.001-2.845C41.407 4.082 36.71 0 30.917 0c-1.287 0-2.52.202-3.66.571 3.988 1.291 6.829 4.63 6.829 8.547v13.289h3.29c.348 0 .69-.021 1.026-.061 3.454-.413 5.46-3.644 4.01-6.4z" fill="#000"/><path d="M34.362 22.405c-1.267-.674-2.05-1.864-2.05-3.155v-4.21h-4.555v5.014c0 .077-.005.152-.015.228-.107.845-.865 1.516-1.822 1.688-.83.15-2.36.502-4.046 1.211l-.209.524c1.742 3.04 5.323 4.981 9.252 4.981 2.9 0 5.61-1.06 7.531-2.836-1.286-1.703-2.856-2.79-4.086-3.445zM20.4 35.53c0-.81-.759-1.47-1.692-1.47H14.64l-.446.388v5.192c0 1.058.986 1.916 2.203 1.916H20.4V35.53z" fill="#F9EAE2"/><path d="M43.126 34.06c-.933 0-1.692.66-1.692 1.471v6.025h2.348c2.13 0 3.859-1.502 3.859-3.355v-3.753l-.446-.388h-4.07zm-9.243-11.558c1.278.68 2.921 1.825 4.233 3.642a9.16 9.16 0 002.053-2.44l-.21-.524a19.913 19.913 0 00-4.044-1.21c-.957-.172-1.714-.844-1.822-1.688a1.777 1.777 0 01-.015-.228V15.04h-2.245v4.305c0 1.292.783 2.482 2.05 3.156z" fill="#F5DBCC"/><path d="M39.003 9.31h-2.044v4.182h2.044c1.328 0 2.405-.936 2.405-2.091 0-1.154-1.077-2.09-2.405-2.09z" fill="#F9EAE2"/><path d="M22.832 9.31h2.045v4.182h-2.045c-1.328 0-2.405-.936-2.405-2.091 0-1.154 1.077-2.09 2.405-2.09z" fill="#F5DBCC"/><path d="M34.335 13.026c-.024-3.679.074-4.273-.136-5.406h-1.602c-1.075 0-2.105-.375-2.86-1.04-.654-.579-1.55-.904-2.483-.904-1.925 0-3.486 1.356-3.486 3.03v4.276c.05 2.878 2.35 5.281 5.438 5.94 2.927-.772 5.068-3.112 5.129-5.896z" fill="#F9EAE2"/><path d="M40.835 41.556V33.47c0-3.577-1.17-6.139-2.644-7.95-1.806 1.707-4.396 2.777-7.274 2.777-4.037 0-7.506-2.103-9.043-5.117-3.5 1.471-7.68 4.477-7.68 10.387v.88h4.514c.688 0 1.246.485 1.246 1.083v6.025h20.881z" fill="#FFC61C"/><path d="M39.96 23.18a8.701 8.701 0 01-2.093 2.633c1.4 1.798 2.49 4.304 2.49 7.755v7.988h1.523V35.53c0-.598.557-1.083 1.246-1.083h4.514v-.88c0-5.91-4.18-8.917-7.68-10.388z" fill="#ECB209"/><path d="M9.75 10.796l-1.321 2.74a.269.269 0 01-.226.142l-3.405.246c-.237.017-.333.274-.153.41l2.588 1.939c.076.056.11.145.086.23l-.783 2.891c-.054.202.198.36.401.253l2.922-1.54a.303.303 0 01.278 0l2.922 1.54c.203.108.455-.051.4-.253l-.782-2.891a.216.216 0 01.086-.23l2.588-1.94c.18-.135.084-.392-.153-.409l-3.405-.246a.269.269 0 01-.226-.143l-1.321-2.739c-.092-.19-.404-.19-.496 0z" fill="#000"/><path d="M35.737 7.62h-1.793c.19.994.142 1.297.143 5.362-.048 2.79-2.212 5.134-5.16 5.875a8.154 8.154 0 001.99.246c3.913 0 7.09-2.732 7.149-6.121V9.644c0-1.118-1.043-2.024-2.329-2.024z" fill="#F5DBCC"/><path d="M35.737 7.62h-1.793c.19.994.142 1.297.143 5.362-.048 2.79-2.212 5.134-5.16 5.875a8.154 8.154 0 001.99.246c3.913 0 7.09-2.732 7.149-6.121V9.644c0-1.118-1.043-2.024-2.329-2.024z" fill="#F5DBCC"/></svg>