<svg width="42" height="47" fill="none" xmlns="http://www.w3.org/2000/svg"><path d="M14.578 26.479c2.535-2.012 1.84-5.226 1.84-5.226h8.714s-.695 3.213 1.84 5.226H14.578z" fill="#F4BB87"/><path d="M25.44 21.51c9.922-.03 6.705-7.424 6.847-10.561a20.46 20.46 0 00-.425-5.384C30.068.58 25.44 2.472 25.44 2.472s-1.643-3.93-9.716-1.88a7.875 7.875 0 00-3.002 1.461c-1.742 1.4-2.895 3.343-3.249 5.475a6.6 6.6 0 00-.092 1.16 36.448 36.448 0 01-.364 5.751 6.257 6.257 0 00-.143 1.448c.059 2.034 1.068 6.096 8.28 5.618l8.286.005z" fill="#414451"/><path d="M41.55 47H0l2.202-14.202c.35-2.664 2.398-4.853 5.16-5.512.712-.166 1.42-.324 2.128-.465a60.86 60.86 0 013.596-.623 55.615 55.615 0 0115.375-.128 52.59 52.59 0 015.759 1.101c2.734.682 4.756 2.86 5.11 5.504L41.55 47z" fill="#FFC61C"/><path d="M29.832 9.214v4.96c-.003 2.027-.744 3.992-2.1 5.566-1.479 1.723-3.54 3.773-5.547 4.562a3.879 3.879 0 01-2.821 0c-2.004-.789-4.069-2.839-5.546-4.562-1.356-1.572-2.098-3.537-2.102-5.563v-2.19c11.018-.682 13.89-4.619 13.89-4.619-.402 3.157-2.196 3.76-2.196 3.76s4.298.334 6.422-1.914z" fill="#FED19A"/><path d="M33.806 47H7.744L9.49 35.653V26.82a60.965 60.965 0 013.596-.623v9.366h15.375V26.07c1.182.158 2.359.357 3.53.596v8.898L33.806 47z" fill="#EEEFEE"/><path d="M13.33 41.194h14.89v1.244H13.33v-1.244z" fill="#DBD8DD"/></svg>