<svg width="47" height="47" fill="none" xmlns="http://www.w3.org/2000/svg"><g clip-path="url(#clip0)"><path d="M32.614 34.127l-4.87-5.322V22.33h-8.49v6.477l-4.817 5.32h18.177z" fill="#FFDDCE"/><path d="M31.728 34.032l-4.366-1.282-3.862 4.429-6.678-7.659-7.1 2.084a6.507 6.507 0 00-4.673 6.243v6.85A2.303 2.303 0 007.35 47h3.123l.563-.402h.293l.563.402h23.211l.826-.59h.685v-5.85c0-3.02-1.99-5.678-4.887-6.528z" fill="#B5B5B5"/><path d="M37.278 31.604L30.18 29.52l-3.3 3.784 4.41 1.294a6.507 6.507 0 014.673 6.243v5.57h.56V47h3.126a2.303 2.303 0 002.303-2.303v-6.85a6.507 6.507 0 00-4.674-6.243z" fill="#858585"/><path d="M11.893 47v-3.767a.71.71 0 10-1.419 0V47h1.419zm24.63 0v-3.767a.71.71 0 10-1.419 0V47h1.419z" fill="#525252"/><path d="M10.706 13.878l-.727-.802H8.425l-.728.802-.958 5.625a.87.87 0 00.857 1.015h3.21a.87.87 0 00.858-1.015l-.958-5.625z" fill="#E4F6FF"/><path d="M9.91 12.511V5.4a.71.71 0 10-1.418 0v7.112h1.419z" fill="#407093"/><path d="M27.43 4.83h-7.862a5.146 5.146 0 00-5.147 5.145v4.965l.851.75h17.304V9.976a5.146 5.146 0 00-5.146-5.147z" fill="#EFC984"/><path d="M27.43 4.83h-.824v10.86h5.183l.785-.75V9.974A5.146 5.146 0 0027.43 4.83z" fill="#EABC6B"/><path d="M23.5 26.077c.086 0 .17-.001.256-.004a7.618 7.618 0 003.532-6.067v-8.988h-9.764v2.365c0 .86-.697 1.556-1.556 1.556h-1.545v2.544c0 .65.527 1.178 1.177 1.178.205 0 .372.16.385.365a7.531 7.531 0 007.515 7.051z" fill="#FFDDCE"/><path d="M31.032 14.94c-.86 0-1.556-.697-1.556-1.557v-2.365h-2.87v8.757a7.531 7.531 0 01-3.933 6.256 7.531 7.531 0 008.342-7.005.387.387 0 01.385-.365c.65 0 1.177-.527 1.177-1.178V14.94h-1.545z" fill="#FFCBBE"/><path d="M27.288 7.998V6.244a1.574 1.574 0 01-1.562-1.573V1.52L25.063.458l-1.321-.42a.803.803 0 00-.487 0L8.87 4.613c-.802.255-.721 1.416.109 1.557l14.518 2.473 3.79-.645z" fill="#E6E6E6"/><path d="M27.288 6.272l-2.092-.26a13.825 13.825 0 00-3.395 0l-7.962.986v3.548c0 .384.312.696.697.696h12.752v-4.97z" fill="#D5D2D2"/><path d="M38.126 4.613L25.063.458v4.163c0 .855.69 1.548 1.544 1.555v1.938l11.41-1.944c.83-.141.911-1.302.109-1.557z" fill="#AAA"/><path d="M26.607 6.187v5.055h5.857a.696.696 0 00.697-.696V6.998l-6.554-.81z" fill="#787878"/><path d="M10.706 13.878H7.698v-1.974c0-.42.34-.76.76-.76h1.488c.42 0 .76.34.76.76v1.974z" fill="#FFE07D"/><path d="M27.744 26.435c0 2.754-.8 5.45-2.302 7.759L23.5 37.179l10.836-6.439-6.592-4.305zm-8.488 0c0 2.754.8 5.45 2.302 7.759l1.942 2.985-10.836-6.439 6.592-4.305z" fill="#949494"/><path d="M27.117 30.606a16.893 16.893 0 01-3.617.381 16.92 16.92 0 01-3.617-.38c.387 1.26.948 2.47 1.675 3.587l1.942 2.985 1.942-2.985a14.223 14.223 0 001.675-3.588z" fill="#F4FBFF"/></g><defs><clipPath id="clip0"><path fill="#fff" d="M0 0h47v47H0z"/></clipPath></defs></svg>