<svg width="739" height="287" fill="none" xmlns="http://www.w3.org/2000/svg"><path d="M44.617 262.434l-.803 2.973-3.379-.912-3.786 14.023 3.38.912-.804 2.973-6.014-1.623.456-1.69c-2.45-2.474-5.326-4.713-8.628-6.716-3.324-2.009-6.931-3.6-10.82-4.771l2.645-9.799 21.018 5.675.72-2.669 6.015 1.624zm-7.538 4.019l-18.382-4.963-1.095 4.054a48.508 48.508 0 019.048 4.22 49.677 49.677 0 017.966 5.812l2.463-9.123z" fill="#000"/><path d="M39.658 251.256c1.918.91 3.121 2.076 3.61 3.496.498 1.399.326 2.983-.514 4.754-.14.295-.332.643-.574 1.045a10.64 10.64 0 01-.682 1.11l-2.156-1.334c.183-.223.35-.467.502-.731.16-.285.296-.543.406-.775.28-.59.453-1.116.516-1.576.074-.482.023-.919-.152-1.312-.186-.424-.512-.825-.98-1.201-.487-.387-1.142-.775-1.964-1.166l-10.307-4.894 5.149-10.844 16.377 7.776-1.26 2.656-14.102-6.696-2.627 5.533 8.758 4.159zm8.238-18.09l3.596 8.154-1.926 2.923-3.745-8.756c-.999.795-2.025 1.25-3.08 1.366-1.073.103-2.107-.173-3.1-.828-1.364-.899-2.1-2.138-2.205-3.716-.092-1.598.458-3.303 1.653-5.115l4.12-6.254 15.14 9.976-1.618 2.455-6.255-4.122-2.58 3.917zm.476-5.303l-4.676-3.082-2.407 3.654c-.809 1.227-1.192 2.274-1.148 3.141.043.867.416 1.532 1.117 1.994.701.462 1.46.542 2.273.24.814-.302 1.625-1.067 2.434-2.294l2.407-3.653zm7.053-21.811l5.815 5.515-.3-11.331 2.601-2.742.253 12.347 13.407-.404-2.649 2.793-12.322.277 6.349 6.021-2.023 2.133L53.4 208.185l2.023-2.133zm16.975-4.508c-.87-1.036-1.53-2.128-1.977-3.276-.429-1.163-.628-2.307-.597-3.43a8.066 8.066 0 01.856-3.28c.506-1.065 1.278-2.034 2.314-2.904 1.035-.871 2.122-1.464 3.259-1.78a7.716 7.716 0 013.35-.256c1.13.148 2.223.54 3.277 1.178 1.072.623 2.044 1.453 2.915 2.489.885 1.054 1.543 2.162 1.972 3.325a8.44 8.44 0 01.574 3.404 8.11 8.11 0 01-.806 3.284c-.521 1.047-1.3 2.007-2.336 2.877-1.036.871-2.115 1.473-3.237 1.807a8.487 8.487 0 01-3.4.251c-1.112-.162-2.197-.546-3.254-1.151-1.054-.638-2.024-1.484-2.91-2.538zm2.304-1.936c1.366 1.625 2.831 2.588 4.395 2.89 1.564.301 3.042-.134 4.436-1.305 1.393-1.171 2.076-2.553 2.048-4.145-.028-1.592-.724-3.201-2.09-4.827-1.367-1.625-2.832-2.588-4.395-2.89-1.564-.301-3.043.134-4.436 1.305-1.393 1.171-2.076 2.553-2.049 4.145.028 1.592.725 3.201 2.091 4.827zm13.319-18.853l8.861 12.85-2.42 1.669-10.292-14.925 10.315-7.113 1.43 2.074-7.894 5.445zm12.741-.87c-.67-1.175-1.122-2.368-1.355-3.578-.213-1.222-.203-2.382.03-3.482a8.069 8.069 0 011.43-3.072c.69-.957 1.623-1.771 2.799-2.442 1.175-.67 2.351-1.058 3.526-1.164a7.718 7.718 0 013.342.351c1.085.348 2.089.931 3.011 1.748.943.805 1.749 1.796 2.42 2.971.682 1.196 1.129 2.405 1.342 3.626a8.433 8.433 0 01-.047 3.452 8.092 8.092 0 01-1.383 3.085c-.701.937-1.64 1.741-2.815 2.411-1.176.67-2.346 1.069-3.509 1.195a8.473 8.473 0 01-3.39-.364c-1.065-.36-2.063-.932-2.994-1.717-.923-.817-1.725-1.824-2.407-3.02zm2.615-1.491c1.052 1.845 2.32 3.056 3.804 3.633 1.484.578 3.017.415 4.598-.486s2.501-2.138 2.76-3.709c.259-1.571-.137-3.279-1.189-5.124-1.052-1.844-2.32-3.055-3.804-3.633-1.484-.577-3.017-.415-4.598.486-1.581.902-2.501 2.138-2.76 3.71-.259 1.571.137 3.279 1.189 5.123zm25.173-20.333l5.964 14.426-2.717 1.123-6.927-16.755 13.714-5.669 6.927 16.754-2.717 1.123-5.964-14.425-8.28 3.423zm17.048.103c-.421-1.286-.625-2.545-.611-3.778.036-1.239.278-2.374.726-3.405a8.05 8.05 0 012.017-2.723c.868-.8 1.944-1.411 3.23-1.832 1.287-.421 2.516-.566 3.688-.434a7.72 7.72 0 013.205 1.012c.993.559 1.86 1.331 2.6 2.316.762.978 1.354 2.11 1.775 3.396.429 1.308.625 2.582.589 3.822a8.441 8.441 0 01-.737 3.372 8.106 8.106 0 01-1.973 2.745c-.875.778-1.955 1.377-3.241 1.799-1.286.421-2.512.577-3.677.468a8.485 8.485 0 01-3.249-1.036c-.971-.565-1.834-1.326-2.589-2.282-.74-.985-1.325-2.132-1.753-3.44zm2.86-.937c.661 2.018 1.661 3.458 2.999 4.321 1.339.863 2.873 1.011 4.602.444 1.73-.566 2.879-1.593 3.448-3.081.568-1.487.522-3.24-.139-5.258s-1.661-3.458-2.999-4.321c-1.339-.863-2.873-1.011-4.602-.444-1.73.566-2.879 1.593-3.447 3.081-.569 1.487-.523 3.24.138 5.258zm37.126 2.399l-2.85.721-.858-3.394-12.317 3.116.858 3.393-2.85.721-1.477-5.836 1.663-.421a34.029 34.029 0 001.557-7.975c.185-2.694.019-5.492-.499-8.394l8.789-2.223 3.827 15.133 2.681-.678 1.476 5.837zm-7.007-4.438l-3.21-12.69-3.427.867c.324 2.325.395 4.653.215 6.985a35.266 35.266 0 01-1.212 6.769l7.634-1.931zm6.975-8.424c-.249-1.33-.287-2.605-.112-3.825.198-1.224.586-2.318 1.165-3.281a8.057 8.057 0 012.357-2.436c.964-.68 2.112-1.144 3.442-1.394 1.33-.249 2.568-.232 3.713.052a7.711 7.711 0 013.044 1.423c.912.684 1.67 1.562 2.275 2.636.628 1.069 1.067 2.269 1.316 3.599.254 1.353.282 2.641.084 3.866-.179 1.196-.569 2.279-1.171 3.246a8.108 8.108 0 01-2.315 2.464c-.969.657-2.119 1.11-3.449 1.359-1.33.25-2.566.244-3.707-.017a8.471 8.471 0 01-3.085-1.451c-.889-.688-1.645-1.555-2.269-2.601-.605-1.074-1.034-2.287-1.288-3.64zm2.959-.555c.391 2.087 1.194 3.646 2.408 4.676 1.214 1.031 2.716 1.378 4.504 1.043 1.789-.336 3.063-1.204 3.821-2.604.758-1.401.941-3.144.55-5.231-.391-2.087-1.194-3.646-2.408-4.676-1.214-1.031-2.716-1.378-4.505-1.043-1.789.336-3.062 1.204-3.82 2.604-.758 1.4-.942 3.144-.55 5.231zm31.875 4.07l-1.809-13.918-8.013 15.195-3.298.429-2.337-17.979 2.916-.379 1.822 14.022 8-15.299 3.298-.428 2.336 17.978-2.915.379zm-7.777-19.918a7.42 7.42 0 01-2.228-.029 5.399 5.399 0 01-1.901-.776 4.839 4.839 0 01-1.426-1.473c-.365-.635-.616-1.391-.754-2.267l2.603-.339c.173.966.56 1.681 1.161 2.144.622.437 1.372.598 2.251.484.88-.115 1.552-.461 2.018-1.039.486-.605.69-1.396.609-2.374l2.604-.338c.091.882.03 1.679-.184 2.389a4.457 4.457 0 01-.968 1.784 5.39 5.39 0 01-1.639 1.237 7.451 7.451 0 01-2.146.597zm32.11 21.209l-2.931.231-.276-3.489-12.666 1.001.276 3.49-2.931.231-.474-6.001 1.71-.135a34.052 34.052 0 002.875-7.6c.635-2.625.941-5.411.919-8.359l9.037-.714 1.23 15.561 2.756-.218.475 6.002zm-6.162-5.552l-1.032-13.049-3.524.278a32.405 32.405 0 01-.962 6.923 35.3 35.3 0 01-2.333 6.469l7.851-.621zm12.295-6.124c.175 1.722.805 3.09 1.89 4.103 1.108.99 2.571 1.454 4.39 1.393 1.073-.037 2.048-.186 2.926-.45.901-.287 1.737-.771 2.508-1.45l.41 2.822c-.73.492-1.592.883-2.586 1.174-.971.289-2.051.454-3.24.495-1.493.05-2.819-.15-3.978-.601-1.136-.452-2.103-1.085-2.901-1.898a9.13 9.13 0 01-1.816-2.95c-.413-1.154-.642-2.407-.688-3.759-.048-1.423.095-2.712.43-3.867.357-1.179.871-2.189 1.543-3.029a7.25 7.25 0 012.523-2.011c1.011-.502 2.134-.773 3.37-.815 1.306-.044 2.48.149 3.522.581a7.046 7.046 0 012.656 1.906c.728.816 1.287 1.813 1.677 2.99.412 1.154.642 2.43.69 3.829l.019.56c.005.163 0 .338-.017.526l-13.328.451zm10.234-2.868c-.174-1.698-.733-3.034-1.677-4.006-.92-.972-2.149-1.433-3.688-1.38-1.54.052-2.735.594-3.587 1.627-.853 1.033-1.308 2.402-1.367 4.109l10.319-.35zm12.49-5.343l-6.65-.023.009-2.52 16.24.056-.009 2.52-6.65-.023-.053 15.61-2.94-.01.053-15.61zm23.249-2.042l-.399 8.005 8.404-7.606 3.775.189-9.206 8.231 9.037 9.913-3.845-.192-8.233-9.171-.436 8.739-2.936-.147.903-18.107 2.936.146zm14.865.753l3.105.252 4.61 15.018 6.588-14.109 3.105.253-11.537 24.03-3.035-.247 3.093-6.526-5.929-18.671zm24.404 3.535c.665-.49 1.445-.849 2.339-1.078a8.242 8.242 0 012.907-.169 8.28 8.28 0 013.231 1.029 7.127 7.127 0 012.434 2.172c.675.897 1.157 1.949 1.445 3.155.311 1.208.386 2.543.223 4.004-.163 1.461-.529 2.747-1.099 3.857-.546 1.113-1.248 2.044-2.107 2.794a7.688 7.688 0 01-2.853 1.584c-1.066.304-2.191.39-3.374.258a8.242 8.242 0 01-2.798-.804c-.822-.421-1.503-.943-2.044-1.566l-.903 8.105-2.922-.326 2.754-24.732 2.922.326-.155 1.391zm-1.363 12.244a5.381 5.381 0 001.866 1.898 6.644 6.644 0 002.652.859c.811.091 1.58.035 2.307-.165a4.964 4.964 0 001.917-1.09c.575-.523 1.049-1.198 1.423-2.025.397-.824.659-1.805.786-2.941.126-1.136.085-2.139-.123-3.007-.183-.889-.497-1.652-.943-2.289a4.46 4.46 0 00-1.631-1.484 5.652 5.652 0 00-2.21-.704 6.306 6.306 0 00-2.779.289 5.117 5.117 0 00-2.235 1.406l-1.03 9.253zm19.946-2.34c-.3 2.173.056 3.942 1.069 5.306 1.016 1.342 2.541 2.153 4.575 2.434.879.121 1.747.147 2.604.077a6.943 6.943 0 002.393-.694l-.106 2.812c-.744.274-1.578.429-2.502.467a13.31 13.31 0 01-2.743-.096c-1.433-.198-2.709-.598-3.827-1.2-1.115-.625-2.032-1.4-2.753-2.323-.72-.924-1.232-1.996-1.534-3.216-.303-1.219-.356-2.545-.158-3.979.195-1.409.603-2.66 1.225-3.752.625-1.115 1.41-2.02 2.353-2.714a8.765 8.765 0 013.206-1.465c1.196-.306 2.477-.365 3.84-.177.971.135 1.884.343 2.74.626.88.286 1.642.651 2.287 1.093l-.66 2.736c-.57-.479-1.268-.882-2.094-1.208a10.686 10.686 0 00-2.523-.667c-1.942-.268-3.585.118-4.93 1.157-1.341 1.016-2.162 2.61-2.462 4.783zm81.137 22.308l-3.071-.235.267-3.49-14.482-1.109-.268 3.489-3.071-.235.476-6.212 1.745.134c1.975-2.867 3.639-6.11 4.992-9.727 1.356-3.641 2.246-7.48 2.673-11.52l10.12.775-1.662 21.707 2.757.211-.476 6.212zm-5.352-6.658l1.454-18.985-4.188-.32a48.563 48.563 0 01-2.461 9.675 49.693 49.693 0 01-4.228 8.908l9.423.722zm16.496-2.271c-.087 2.122-.687 3.685-1.802 4.691-1.092 1.006-2.617 1.469-4.576 1.39a12.382 12.382 0 01-1.186-.119 10.438 10.438 0 01-1.288-.192l.382-2.507c.277.082.567.14.869.176.325.036.616.06.873.07.652.027 1.203-.021 1.652-.143.472-.12.854-.338 1.147-.653.318-.338.558-.795.722-1.372.164-.601.265-1.356.302-2.265l.464-11.4 11.995.488-.737 18.115-2.938-.12.635-15.597-6.12-.249-.394 9.687zm19.271-1.066l-4.882 7.456-3.5-.024 5.306-7.908c-1.211-.405-2.152-1.018-2.822-1.84-.671-.845-1.002-1.862-.994-3.052.011-1.633.65-2.924 1.917-3.872 1.29-.947 3.02-1.414 5.19-1.398l7.49.052-.127 18.13-2.94-.021.052-7.49-4.69-.033zm4.708-2.487l.039-5.6-4.375-.03c-1.47-.01-2.557.239-3.26.747-.704.508-1.058 1.183-1.064 2.023-.006.84.339 1.519 1.036 2.037.696.518 1.779.782 3.249.793l4.375.03zm19.526-8.442l.359 8.007 7.648-8.366 3.776-.169-8.388 9.065 9.933 9.014-3.846.173-9.062-8.354.391 8.742-2.937.131-.811-18.112 2.937-.131zm16.705 8.274c-.116-1.348-.026-2.621.269-3.817.318-1.199.814-2.248 1.486-3.149a8.066 8.066 0 012.586-2.19c1.028-.58 2.216-.928 3.564-1.044 1.348-.116 2.578.024 3.69.42a7.72 7.72 0 012.888 1.719c.839.771 1.506 1.721 2.001 2.849.518 1.127.836 2.364.952 3.712.118 1.372.017 2.657-.301 3.855a8.439 8.439 0 01-1.489 3.114 8.097 8.097 0 01-2.549 2.222c-1.029.557-2.218.893-3.566 1.009-1.349.116-2.578-.012-3.687-.385a8.485 8.485 0 01-2.926-1.751c-.816-.773-1.482-1.711-1.998-2.814-.495-1.129-.802-2.378-.92-3.75zm2.999-.258c.182 2.116.826 3.746 1.931 4.892 1.106 1.147 2.565 1.642 4.379 1.486 1.813-.156 3.166-.893 4.06-2.211.894-1.318 1.25-3.035 1.068-5.151-.182-2.115-.826-3.746-1.932-4.892-1.105-1.146-2.565-1.641-4.378-1.485-1.813.155-3.167.892-4.06 2.211-.894 1.318-1.25 3.034-1.068 5.15zm21.156-8.645l1.939 15.489-2.917.365-2.252-17.989 12.433-1.556.313 2.5-9.516 1.191zm11.662 5.162c-.221-1.336-.231-2.611-.029-3.827.224-1.219.636-2.304 1.236-3.255a8.052 8.052 0 012.408-2.384c.979-.659 2.136-1.098 3.472-1.319 1.335-.221 2.572-.177 3.711.132a7.714 7.714 0 013.013 1.489c.896.703 1.635 1.598 2.217 2.684.605 1.083 1.017 2.292 1.238 3.627.224 1.358.224 2.647 0 3.866a8.433 8.433 0 01-1.242 3.221 8.096 8.096 0 01-2.368 2.413c-.983.636-2.142 1.064-3.477 1.284-1.335.221-2.57.189-3.705-.097a8.472 8.472 0 01-3.054-1.518c-.873-.707-1.611-1.59-2.211-2.649-.582-1.087-.985-2.309-1.209-3.667zm2.97-.491c.346 2.095 1.114 3.671 2.306 4.727 1.191 1.057 2.685 1.437 4.481 1.14 1.795-.297 3.087-1.137 3.876-2.521.788-1.383 1.009-3.123.663-5.218-.346-2.094-1.115-3.67-2.306-4.727-1.192-1.056-2.686-1.436-4.481-1.14-1.796.297-3.088 1.137-3.876 2.521-.789 1.384-1.01 3.123-.663 5.218zm27.86-11.811l3.574 15.195-2.862.673-4.151-17.648 14.446-3.398 4.151 17.649-2.862.673-3.574-15.196-8.722 2.052zm18.965 2.182c-.379-1.299-.541-2.565-.487-3.796.077-1.237.357-2.364.838-3.379a8.072 8.072 0 012.107-2.655c.893-.771 1.99-1.346 3.289-1.724 1.299-.379 2.533-.483 3.7-.313a7.708 7.708 0 013.169 1.118c.975.591 1.815 1.391 2.523 2.4.729 1.003 1.283 2.154 1.662 3.453.385 1.322.539 2.601.462 3.839a8.441 8.441 0 01-.847 3.346 8.12 8.12 0 01-2.063 2.679c-.9.748-2 1.312-3.299 1.69-1.299.379-2.53.494-3.691.346a8.481 8.481 0 01-3.212-1.141c-.952-.598-1.79-1.387-2.513-2.367-.707-1.009-1.253-2.174-1.638-3.496zm2.889-.842c.595 2.038 1.546 3.511 2.855 4.417 1.31.907 2.838 1.106 4.585.597 1.748-.51 2.93-1.498 3.547-2.966.617-1.468.629-3.221.035-5.26-.594-2.038-1.546-3.511-2.855-4.418-1.309-.906-2.837-1.105-4.585-.596-1.747.509-2.929 1.498-3.547 2.966-.617 1.468-.629 3.221-.035 5.26zm37.793 1.017l-2.775.97-1.155-3.304-11.993 4.193 1.155 3.304-2.776.971-1.986-5.683 1.618-.566c.61-2.71.892-5.404.845-8.082-.054-2.7-.467-5.472-1.239-8.317l8.557-2.992 5.152 14.736 2.61-.913 1.987 5.683zm-7.372-3.8l-4.32-12.356-3.337 1.166c.527 2.288.805 4.601.832 6.94.019 2.316-.184 4.6-.609 6.849l7.434-2.599zm6.21-9.191c-.517-1.251-.816-2.491-.895-3.72-.058-1.239.097-2.389.466-3.451a8.065 8.065 0 011.805-2.868c.805-.863 1.832-1.554 3.083-2.071 1.25-.518 2.465-.755 3.644-.713a7.715 7.715 0 013.272.767c1.033.482 1.955 1.186 2.768 2.112.834.918 1.51 2.001 2.027 3.252.527 1.272.819 2.527.877 3.766a8.437 8.437 0 01-.479 3.418 8.096 8.096 0 01-1.76 2.887c-.813.842-1.845 1.522-3.096 2.039-1.25.518-2.46.766-3.631.745a8.47 8.47 0 01-3.317-.786c-1.011-.491-1.93-1.184-2.755-2.08-.813-.926-1.482-2.025-2.009-3.297zm2.782-1.151c.812 1.962 1.918 3.322 3.318 4.081 1.4.759 2.94.791 4.622.095 1.682-.696 2.75-1.807 3.204-3.334.454-1.526.275-3.27-.537-5.232-.812-1.962-1.918-3.322-3.318-4.081-1.4-.76-2.94-.791-4.622-.095-1.682.696-2.75 1.807-3.204 3.333-.454 1.527-.275 3.271.537 5.233zm32.619-4.662l-6.123-12.629-2.79 16.951-2.992 1.45-7.909-16.313 2.645-1.283 6.169 12.723 2.744-17.044 2.992-1.451 7.909 16.314-2.645 1.282zm-13.685-16.431a7.406 7.406 0 01-2.121.679 5.39 5.39 0 01-2.049-.135 4.828 4.828 0 01-1.82-.945c-.547-.487-1.025-1.124-1.433-1.912l2.362-1.145c.47.861 1.063 1.416 1.78 1.665.728.218 1.491.133 2.289-.254s1.326-.928 1.585-1.624c.27-.727.212-1.542-.174-2.444l2.362-1.145c.366.808.56 1.582.582 2.323a4.456 4.456 0 01-.353 2 5.375 5.375 0 01-1.163 1.692 7.401 7.401 0 01-1.847 1.245zm37.945 7.222l-2.561 1.444-1.719-3.049-11.067 6.24 1.719 3.048-2.561 1.444-2.957-5.244 1.494-.842a34.03 34.03 0 00-.591-8.104c-.529-2.648-1.424-5.305-2.685-7.969l7.896-4.452 7.667 13.598 2.408-1.358 2.957 5.244zm-7.926-2.442l-6.429-11.403-3.079 1.736a32.491 32.491 0 012.041 6.685c.427 2.277.629 4.56.607 6.849l6.86-3.867zm7.404-10.634c1.037 1.385 2.281 2.233 3.733 2.544 1.459.278 2.953-.078 4.48-1.068.901-.584 1.66-1.214 2.277-1.892.624-.71 1.092-1.556 1.402-2.535l1.806 2.208c-.373.797-.911 1.577-1.613 2.338-.683.748-1.524 1.446-2.522 2.093-1.254.812-2.493 1.323-3.719 1.534-1.207.197-2.361.153-3.464-.133a9.119 9.119 0 01-3.076-1.594c-.948-.776-1.79-1.732-2.526-2.867-.774-1.195-1.315-2.373-1.623-3.536-.302-1.195-.381-2.325-.237-3.391a7.237 7.237 0 011.126-3.024c.608-.95 1.431-1.761 2.469-2.434 1.097-.71 2.203-1.149 3.318-1.315a7.03 7.03 0 013.258.265c1.045.325 2.037.891 2.978 1.7.948.776 1.802 1.751 2.563 2.926l.305.47c.089.137.174.29.256.46l-11.191 7.25zm7.295-7.73c-1.024-1.366-2.191-2.222-3.5-2.57-1.29-.36-2.581-.12-3.874.717-1.292.837-2.038 1.918-2.236 3.242-.199 1.325.116 2.733.945 4.226l8.665-5.614zm7.291-11.501l-5.35 3.95-1.497-2.027 13.065-9.647 1.497 2.028-5.35 3.95 9.272 12.557-2.365 1.747-9.272-12.558zm16.938-16.642l5.328 5.988.661-11.315 2.824-2.513-.794 12.324 13.393.733-2.876 2.56-12.301-.769 5.816 6.537-2.197 1.955-12.05-13.546 2.196-1.954zm9.92-8.83l2.177-2.227 14.498 6.047-6.644-14.081 2.177-2.228 11.116 24.228-2.128 2.178-3.045-6.55-18.151-7.367z" fill="#000"/></svg>