<svg width="1366" height="327" fill="none" xmlns="http://www.w3.org/2000/svg"><path d="M9.843 290.43c.02 1.9-.297 3.57-.95 5.01a9.262 9.262 0 01-2.764 3.628c-1.19.978-2.65 1.726-4.378 2.243-1.728.484-3.676.737-5.842.759l-4.3.043.12 12.049-7.8.078-.348-34.999 12.099-.12c2.166-.022 4.119.209 5.857.692 1.738.449 3.212 1.151 4.421 2.106a9.266 9.266 0 012.836 3.571c.68 1.394 1.03 3.04 1.05 4.94zm-7.9.079c-.02-2-.583-3.411-1.692-4.233-1.108-.856-2.846-1.272-5.212-1.248l-3.6.035.111 11.15 3.6-.036c2.366-.024 4.095-.474 5.187-1.352 1.09-.877 1.627-2.316 1.607-4.316zm33.604 14.397l-12.581.685-2.022 7.922-8.288.451 10.278-35.611 9.686-.528 14.086 34.285-8.288.451-2.87-7.655zm-11.016-5.509l8.787-.479-5.163-13.89-3.624 14.369zm29.953-11.676l2.42 23.476-7.511.773-3.587-34.815 8.455-.871 11.578 15.293 8.267-17.338 8.455-.872 3.587 34.816-7.51.774-2.419-23.476-6.258 13.412-6.615.682-8.862-11.854zm47.003-5.508l3.691 23.31-7.457 1.181-5.475-34.57 8.396-1.329 12.393 14.642 7.311-17.763 8.396-1.329 5.474 34.569-7.457 1.181-3.691-23.31-5.52 13.733-6.568 1.04-9.493-11.355zm56.474 5.985l-12.348 2.506-.85 8.132-8.134 1.65 4.995-36.727 9.506-1.929 18.918 31.874-8.134 1.651-3.953-7.157zm-11.699-3.85l8.624-1.75-7.127-12.992-1.497 14.742zm61.661-36.071l-8.358 19.085 19.113 14.288-9.297 2.392-17.265-13.524 4.336 16.851-7.554 1.944-8.721-33.896 7.554-1.944 3.787 14.721 7.689-17.674 8.716-2.243zm22.767-6.648l7.675-2.256-4.998 37.951-7.675 2.256 1.474-11.117-18.494-20.36 7.675-2.256 11.92 13.954 2.423-18.172zm39.471-.632c.595 1.804.8 3.491.616 5.061a9.263 9.263 0 01-1.533 4.296c-.837 1.294-2.001 2.449-3.49 3.466-1.501.986-3.28 1.818-5.337 2.496l-4.084 1.346 3.771 11.445-7.408 2.441-10.954-33.241 11.492-3.788c2.057-.678 3.988-1.051 5.79-1.118 1.793-.1 3.41.122 4.852.665a9.26 9.26 0 013.786 2.542c1.072 1.121 1.905 2.584 2.499 4.389zm-7.503 2.472c-.626-1.899-1.591-3.073-2.897-3.52-1.316-.479-3.098-.348-5.346.393l-3.419 1.127 3.49 10.59 3.419-1.127c2.248-.741 3.759-1.695 4.532-2.862.774-1.168.847-2.701.221-4.601zm15.013 1.349c-.917-2.504-1.347-4.938-1.289-7.302.046-2.395.545-4.619 1.498-6.671.952-2.053 2.343-3.876 4.174-5.469 1.85-1.636 4.106-2.941 6.767-3.915a27.114 27.114 0 014.756-1.262c1.668-.291 3.2-.373 4.595-.245l1.719 6.293c-1.254-.322-2.58-.404-3.978-.247-1.398.156-2.77.481-4.116.974-1.721.63-3.158 1.458-4.309 2.483-1.151 1.025-1.997 2.204-2.538 3.538-.553 1.303-.827 2.734-.824 4.295.035 1.549.356 3.153.963 4.812 1.295 3.537 3.274 5.937 5.937 7.198 2.662 1.262 5.7 1.268 9.112.019 1.377-.505 2.613-1.152 3.707-1.944 1.126-.802 2.1-1.78 2.92-2.932l2.85 6.038a17.56 17.56 0 01-3.838 2.896 26.22 26.22 0 01-4.306 2.056c-2.692.985-5.267 1.467-7.725 1.444-2.457-.024-4.723-.49-6.795-1.4-2.084-.94-3.916-2.311-5.498-4.11-1.582-1.799-2.842-3.982-3.782-6.549zm50.915-8.98l-11.693 4.694.632 8.152-7.703 3.091-1.716-37.025 9.001-3.614 24.361 27.936-7.703 3.092-5.179-6.326zm-12.202-1.674l8.166-3.279-9.354-11.492 1.188 14.771zm87.606-62.749l25.843-13.699 16.393 30.923-6.892 3.654-13.535-25.535-12.06 6.393 13.535 25.535-6.892 3.653-16.392-30.924zm59.361-19.497c.938 1.652 1.472 3.266 1.6 4.841a9.27 9.27 0 01-.656 4.514c-.566 1.433-1.479 2.795-2.74 4.086-1.276 1.262-2.856 2.428-4.74 3.498l-3.739 2.124 5.952 10.477-6.782 3.853-17.288-30.432 10.521-5.977c1.884-1.07 3.703-1.816 5.457-2.237 1.738-.451 3.367-.552 4.888-.304a9.248 9.248 0 014.212 1.747c1.272.888 2.376 2.158 3.315 3.81zm-6.869 3.902c-.988-1.739-2.166-2.699-3.534-2.88-1.385-.211-3.106.269-5.164 1.438l-3.13 1.778 5.508 9.695 3.13-1.778c2.058-1.169 3.351-2.402 3.879-3.699.528-1.297.299-2.815-.689-4.554zm41.214-17.549c1.332 2.193 2.256 4.421 2.771 6.682.515 2.261.599 4.453.25 6.576-.349 2.122-1.164 4.119-2.446 5.989-1.299 1.843-3.089 3.456-5.368 4.84-2.279 1.384-4.535 2.228-6.769 2.532-2.251.275-4.399.078-6.443-.592-2.045-.669-3.951-1.753-5.72-3.253-1.769-1.5-3.319-3.347-4.652-5.54-1.332-2.194-2.256-4.421-2.771-6.683-.515-2.261-.599-4.452-.25-6.575s1.173-4.105 2.472-5.947c1.282-1.871 3.063-3.498 5.342-4.883 2.279-1.384 4.544-2.214 6.795-2.489 2.234-.303 4.373-.12 6.417.549 2.045.669 3.951 1.754 5.72 3.253 1.769 1.5 3.319 3.347 4.652 5.541zm-6.753 4.1c-1.972-3.247-4.164-5.348-6.576-6.301-2.412-.953-4.758-.738-7.037.647-2.279 1.384-3.552 3.366-3.818 5.945-.266 2.58.587 5.494 2.559 8.742 1.99 3.276 4.191 5.391 6.603 6.344 2.395.925 4.732.695 7.011-.689 2.279-1.385 3.56-3.352 3.844-5.903.266-2.58-.596-5.508-2.586-8.785zm4.603-23.561l19.887-12.708 3.284 5.14-13.314 8.508 15.562 24.353-6.573 4.199-18.846-29.492zm54.113-19.249c.941 1.651 1.477 3.264 1.607 4.839a9.255 9.255 0 01-.65 4.514c-.564 1.435-1.475 2.798-2.733 4.091-1.275 1.263-2.854 2.432-4.736 3.504l-3.736 2.13 5.967 10.469-6.777 3.862-17.331-30.408 10.513-5.992c1.882-1.072 3.7-1.82 5.454-2.245 1.737-.453 3.366-.556 4.887-.31 1.55.229 2.955.81 4.215 1.74 1.273.887 2.379 2.156 3.32 3.806zm-6.863 3.912c-.991-1.738-2.17-2.696-3.538-2.875-1.385-.209-3.106.273-5.162 1.445l-3.128 1.783 5.521 9.687 3.128-1.783c2.056-1.172 3.348-2.407 3.874-3.704.527-1.298.295-2.815-.695-4.553zm36.143-1.168l-11.264 5.647 1.305 8.071-7.419 3.719-4.779-36.756 8.672-4.347 26.591 25.822-7.42 3.719-5.686-5.875zm-12.299-.658l7.867-3.943-10.274-10.678 2.407 14.621zm26.557-23.578l9.22 21.724-6.95 2.95-13.674-32.218 7.824-3.321 15.567 11.209 2.798-19.003 7.824-3.321 13.674 32.218-6.95 2.95-9.22-21.725-2.034 14.66-6.122 2.598-11.957-8.721zm41.896-17.016l7.728 22.299-7.133 2.472-11.462-33.07 8.031-2.783 14.772 12.237 4.078-18.77 8.032-2.784 11.461 33.07-7.133 2.472-7.729-22.298-3.022 14.488-6.283 2.178-11.34-9.511zm58.527-2.113l-12.121 3.44-.226 8.173-7.985 2.267 2.177-37.001 9.331-2.65 21.296 30.338-7.985 2.267-4.487-6.835zm-11.959-2.946l8.465-2.404-8.097-12.41-.368 14.814zm64.38-37.385l-9.152 18.717 18.496 15.078-9.39 2-16.681-14.238 3.624 17.018-7.629 1.625-7.29-34.233 7.629-1.624 3.166 14.866 8.424-17.335 8.803-1.874zm22.85-3.951l7.886-1.346-9.392 37.108-7.886 1.346 2.761-10.87-15.992-22.378 7.886-1.346 10.21 15.25 4.527-17.764zm44.612 5.335c.241 1.885.122 3.58-.358 5.086a9.256 9.256 0 01-2.32 3.927c-1.068 1.11-2.429 2.024-4.085 2.74-1.66.683-3.565 1.162-5.714 1.437l-4.265.546 1.529 11.952-7.737.99-4.442-34.717 12.002-1.535c2.149-.275 4.115-.275 5.898.001 1.778.243 3.324.768 4.637 1.574a9.262 9.262 0 013.234 3.216c.839 1.304 1.379 2.898 1.621 4.783zm-7.836 1.003c-.254-1.984-.98-3.32-2.177-4.007-1.201-.72-2.975-.93-5.322-.63l-3.571.458 1.415 11.06 3.571-.457c2.347-.3 4.011-.95 4.993-1.95.981-1 1.344-2.49 1.091-4.474zm12.062 4.612c-.241-2.655-.029-5.118.635-7.387.661-2.303 1.716-4.323 3.165-6.061 1.449-1.738 3.263-3.141 5.442-4.21 2.209-1.103 4.725-1.783 7.546-2.04a27.076 27.076 0 014.921.006c1.687.148 3.188.463 4.504.946l.04 6.524c-1.129-.634-2.389-1.055-3.78-1.264a17.66 17.66 0 00-4.228-.118c-1.826.165-3.427.595-4.803 1.29-1.376.693-2.498 1.615-3.364 2.764-.869 1.117-1.503 2.43-1.902 3.939-.365 1.505-.468 3.138-.308 4.898.34 3.75 1.634 6.579 3.882 8.483 2.248 1.905 5.182 2.693 8.8 2.365a15.214 15.214 0 004.083-.923 12.416 12.416 0 003.577-2.082l1.199 6.569a17.582 17.582 0 01-4.455 1.81 26.29 26.29 0 01-4.69.877c-2.855.26-5.467.061-7.836-.594-2.369-.655-4.437-1.69-6.206-3.102-1.771-1.446-3.189-3.242-4.254-5.388-1.065-2.145-1.721-4.58-1.968-7.301zm55.216 5.606l-12.583.667-2.033 7.92-8.288.439L860.37 4.643l9.686-.514 14.037 34.305-8.289.44-2.859-7.66zm-11.008-5.525l8.787-.466-5.143-13.897-3.644 14.363zM964.633 3.951l29.2 1.722-2.061 34.94-7.786-.46 1.701-28.85-13.626-.803-1.702 28.85-7.786-.46 2.06-34.939zm64.537 16.287c-.17 1.892-.66 3.521-1.45 4.888a9.298 9.298 0 01-3.11 3.332c-1.29.854-2.81 1.452-4.58 1.793-1.77.308-3.74.364-5.89.168l-4.29-.39-1.09 12.001-7.76-.706 3.16-34.856 12.05 1.095c2.16.196 4.08.621 5.76 1.276 1.69.622 3.08 1.468 4.19 2.54a9.256 9.256 0 012.46 3.838c.54 1.455.72 3.128.55 5.02zm-7.87-.715c.18-1.992-.24-3.453-1.26-4.382-1.01-.963-2.7-1.552-5.06-1.766l-3.58-.325-1.01 11.104 3.58.326c2.36.214 4.13-.06 5.3-.825 1.17-.763 1.85-2.14 2.03-4.133zm44.54 11.142c-.31 2.548-.96 4.87-1.96 6.966-.99 2.096-2.28 3.87-3.86 5.323-1.59 1.453-3.47 2.518-5.63 3.196-2.16.644-4.56.806-7.21.485-2.65-.321-4.94-1.053-6.89-2.195-1.94-1.175-3.5-2.658-4.7-4.448-1.19-1.79-2.02-3.821-2.48-6.093-.46-2.273-.54-4.683-.23-7.23.31-2.549.96-4.87 1.95-6.966s2.28-3.87 3.87-5.323c1.59-1.453 3.46-2.502 5.62-3.147 2.16-.677 4.57-.856 7.22-.535 2.64.321 4.94 1.07 6.88 2.245 1.94 1.142 3.51 2.608 4.7 4.398 1.2 1.79 2.02 3.822 2.49 6.094.46 2.272.54 4.682.23 7.23zm-7.84-.95c.45-3.773.03-6.78-1.28-9.02-1.3-2.24-3.28-3.52-5.93-3.842-2.65-.32-4.87.45-6.68 2.313-1.8 1.863-2.93 4.681-3.39 8.453-.46 3.806-.04 6.829 1.27 9.069 1.31 2.207 3.29 3.471 5.94 3.792 2.64.321 4.87-.433 6.67-2.263 1.8-1.863 2.93-4.697 3.4-8.503zm15.1-15.662l23.34 3.465-.9 6.034-15.62-2.32-4.25 28.587-7.71-1.146 5.14-34.62zm51.12 19.821c-.32 1.873-.93 3.458-1.83 4.757a9.3 9.3 0 01-3.38 3.07c-1.34.749-2.91 1.221-4.71 1.419-1.78.165-3.74.062-5.88-.307l-4.24-.732-2.05 11.874-7.68-1.329 5.96-34.488 11.92 2.06c2.13.37 4.01.948 5.64 1.736 1.62.755 2.95 1.711 3.97 2.868a9.26 9.26 0 012.14 4.024c.42 1.494.47 3.176.14 5.048zm-7.78-1.345c.34-1.97.04-3.46-.9-4.47-.94-1.04-2.57-1.763-4.91-2.166l-3.54-.613-1.9 10.987 3.55.613c2.33.403 4.11.272 5.34-.395 1.23-.667 2.02-1.985 2.36-3.956zm29.85 21.705l-12.36-2.472-3.93 7.168-8.14-1.629 18.83-31.926 9.51 1.903 5.1 36.713-8.14-1.628-.87-8.13zm-9.3-8.08l8.63 1.726-1.54-14.739-7.09 13.012zm37.34-2.124l-5.36 22.982-7.36-1.717 7.96-34.083 8.28 1.932 5.96 18.233 13.47-13.697 8.27 1.932-7.95 34.084-7.36-1.717 5.37-22.982-10.29 10.64-6.48-1.512-4.51-14.095zm42.02 10.136l-6.13 22.788-7.29-1.964 9.1-33.795 8.21 2.21 5.34 18.424 13.92-13.235 8.21 2.21-9.11 33.796-7.29-1.964 6.14-22.787-10.64 10.286-6.42-1.73-4.04-14.24zm50.79 30.827l-12.06-3.654-4.61 6.754-7.94-2.407 21.83-29.958 9.28 2.813 1.52 37.034-7.94-2.407-.08-8.175zm-8.47-8.94l8.42 2.551-.11-14.818-8.31 12.266zm73.63 1.92l-17.51 11.28 8.02 22.473-9.07-3.148-6.9-20.816-5.71 16.438-7.37-2.558 11.48-33.064 7.37 2.557-4.99 14.36 16.18-10.473 8.5 2.951zm24.05 9.083l7.48 2.846-26.93 27.199-7.48-2.845 7.9-7.962-2.42-27.4 7.48 2.846 1.05 18.322 12.92-13.005zm32.5 25.638c-.73 1.753-1.68 3.163-2.85 4.228a9.29 9.29 0 01-3.97 2.242c-1.48.429-3.12.54-4.91.333-1.78-.238-3.67-.775-5.67-1.61l-3.97-1.659-4.64 11.118-7.2-3.008 13.5-32.292 11.16 4.666c2 .835 3.7 1.818 5.11 2.948 1.42 1.099 2.5 2.326 3.23 3.68a9.313 9.313 0 011.2 4.402c.07 1.548-.26 3.199-.99 4.952zm-7.29-3.046c.77-1.845.81-3.365.12-4.558-.68-1.224-2.12-2.292-4.3-3.204l-3.32-1.389-4.3 10.288 3.32 1.388c2.18.913 3.95 1.181 5.3.806 1.35-.376 2.41-1.486 3.18-3.331z" fill="#fff"/></svg>