<svg width="348" height="348" fill="none" xmlns="http://www.w3.org/2000/svg"><g filter="url(#filter0_d)"><path d="M325.948 190.372c-1.058-.061-1.985-.305-2.782-.732a5.859 5.859 0 01-1.944-1.705c-.5-.71-.872-1.563-1.114-2.559-.224-.974-.303-2.041-.236-3.199l.224-3.863-7.907-.458.153-2.636 20.965 1.215-.377 6.499c-.067 1.158-.278 2.208-.633 3.149-.336.962-.803 1.766-1.402 2.412a5.529 5.529 0 01-2.128 1.47c-.841.332-1.78.468-2.819.407zm.157-2.695c1.437.083 2.521-.295 3.251-1.134.728-.819 1.145-2.137 1.25-3.954l.212-3.654-8.386-.486-.211 3.654c-.106 1.817.156 3.174.785 4.072.628.918 1.661 1.419 3.099 1.502z" fill="#fff"/></g><g filter="url(#filter1_d)"><path d="M317.483 194.854c-1.475-.162-2.734.121-3.778.848-1.029.751-1.68 1.894-1.955 3.43a9.892 9.892 0 00-.148 2.533c.079.807.334 1.594.766 2.362l-2.44-.162c-.281-.701-.454-1.494-.519-2.379-.069-.865-.013-1.8.166-2.804.226-1.26.632-2.336 1.217-3.226a7.115 7.115 0 012.112-2.091 7.807 7.807 0 012.798-.993c1.041-.139 2.132-.106 3.274.098 1.201.215 2.256.566 3.164 1.053.925.511 1.678 1.123 2.262 1.837a6.21 6.21 0 011.233 2.476c.239.937.265 1.927.078 2.97-.197 1.103-.57 2.052-1.118 2.848a6.02 6.02 0 01-2.075 1.884c-.814.464-1.75.754-2.807.869-1.04.139-2.151.103-3.332-.108a78.218 78.218 0 01-.473-.085 3.666 3.666 0 01-.438-.108l2.013-11.252zm.568 9.092c1.455.159 2.674-.07 3.658-.686.98-.597 1.587-1.545 1.819-2.845.233-1.299-.008-2.398-.72-3.298-.713-.899-1.779-1.527-3.199-1.883l-1.558 8.712z" fill="#fff"/></g><g filter="url(#filter2_d)"><path d="M316.476 212.04c-.566 1.918-.828 3.509-.785 4.773.038 1.283.479 2.049 1.323 2.299.595.176 1.136.002 1.624-.521.483-.504.942-1.494 1.379-2.971.244-.825.409-1.631.496-2.419a9.47 9.47 0 00.057-2.204l2.332.47c-.005 1.5-.257 3.094-.756 4.782-.629 2.129-1.432 3.644-2.407 4.544-.981.92-2.123 1.187-3.427.802-.538-.159-.986-.406-1.345-.742a3.662 3.662 0 01-.81-1.178 4.777 4.777 0 01-.325-1.441 7.6 7.6 0 01.051-1.549c-.631 1.148-1.397 1.975-2.297 2.481-.887.53-1.819.651-2.797.362-.729-.216-1.308-.585-1.737-1.108-.416-.498-.706-1.105-.87-1.821-.164-.716-.2-1.509-.11-2.379.065-.857.237-1.755.515-2.695.26-.882.57-1.718.929-2.509.334-.777.724-1.496 1.169-2.157l2.242.881a9.22 9.22 0 00-1.308 1.991c-.353.772-.64 1.532-.861 2.28-.453 1.534-.584 2.716-.391 3.544.193.829.597 1.334 1.211 1.515.882.261 1.738-.059 2.568-.961.848-.896 1.601-2.457 2.259-4.682l2.071.613z" fill="#fff"/></g><g filter="url(#filter3_d)"><path d="M318.739 226.173l-1.031 2.463-13.462-.237 9.744 9.12-1.031 2.463-16.513-15.791 1.007-2.407 4.496 4.255 16.79.134z" fill="#fff"/></g><g filter="url(#filter4_d)"><path d="M299.521 242.847c-1.587-.891-2.548-1.957-2.883-3.2-.344-1.225-.105-2.571.717-4.036.137-.244.321-.531.552-.86.213-.339.429-.642.648-.909l1.766 1.267c-.17.179-.327.378-.472.595-.154.234-.285.447-.393.639-.274.489-.452.928-.533 1.318-.091.407-.074.784.053 1.131.134.373.39.735.767 1.084.395.359.933.73 1.613 1.112l8.528 4.786-5.036 8.974-13.552-7.607 1.234-2.197 11.667 6.549 2.57-4.578-7.246-4.068z" fill="#fff"/></g><g filter="url(#filter5_d)"><path d="M285.447 263.949c-1.42-1.04-2.056-2.338-1.909-3.891.151-1.526.948-3.273 2.391-5.241l3.245-4.428 12.534 9.188-1.49 2.032-4.452-3.263-1.756 2.395c-1.442 1.968-2.877 3.248-4.302 3.839-1.421.62-2.842.41-4.261-.631zm1.525-2.081c.79.58 1.59.707 2.398.382.809-.325 1.751-1.221 2.827-2.689l1.809-2.468-4.597-3.37-1.809 2.468c-1.076 1.468-1.655 2.63-1.738 3.487-.067.869.303 1.599 1.11 2.19z" fill="#fff"/></g><g filter="url(#filter6_d)"><path d="M286.611 275.228l3.851-4.203 1.593 1.46-9.405 10.262-1.592-1.459 3.851-4.202-9.865-9.04 1.703-1.858 9.864 9.04z" fill="#fff"/></g><g filter="url(#filter7_d)"><path d="M265.713 276.682a8.388 8.388 0 012.022-1.334 5.71 5.71 0 012.015-.57 4.421 4.421 0 011.956.32c.634.268 1.222.71 1.762 1.327 1.042 1.188 1.423 2.517 1.142 3.986-.267 1.485-1.22 2.946-2.859 4.384l-2.932 2.571.712.812c.712.812 1.447 1.165 2.205 1.059.743-.093 1.641-.601 2.693-1.525a11.315 11.315 0 001.768-1.988c.559-.757.978-1.524 1.256-2.299l1.686 1.513a11.974 11.974 0 01-1.321 2.316 12.917 12.917 0 01-1.97 2.167c-.782.686-1.539 1.217-2.273 1.594-.733.377-1.454.571-2.164.581-.711.039-1.416-.128-2.114-.5-.685-.356-1.377-.933-2.076-1.73l-6.706-7.646 1.895-1.662.791.903c.063-.747.317-1.489.762-2.225.43-.723 1.013-1.408 1.75-2.054zm1.284 1.827c-.722.633-1.271 1.327-1.646 2.082-.391.768-.54 1.538-.449 2.309l2.492 2.842 2.842-2.492c1.128-.989 1.777-1.918 1.947-2.785.184-.853-.021-1.617-.615-2.294-.633-.722-1.35-1.024-2.151-.906-.802.117-1.608.532-2.42 1.244z" fill="#fff"/></g><g filter="url(#filter8_d)"><path d="M261.799 297.377l4.67-3.268 1.238 1.77-11.404 7.981-1.239-1.77 4.67-3.268-7.672-10.962 2.065-1.445 7.672 10.962z" fill="#fff"/></g><g filter="url(#filter9_d)"><path d="M208.009 322.938c-.289-1.02-.363-1.976-.22-2.869a5.876 5.876 0 01.973-2.396c.508-.705 1.192-1.335 2.053-1.891.847-.531 1.829-.954 2.945-1.27l3.724-1.055-2.159-7.62 2.54-.72 5.723 20.205-6.263 1.774c-1.116.317-2.177.461-3.183.434-1.019-.002-1.932-.18-2.739-.534a5.543 5.543 0 01-2.086-1.529c-.589-.686-1.025-1.529-1.308-2.529zm2.598-.736c.392 1.386 1.104 2.286 2.136 2.7 1.013.42 2.395.382 4.146-.114l3.521-.998-2.289-8.082-3.521.998c-1.751.496-2.948 1.188-3.59 2.077-.661.894-.796 2.034-.403 3.419z" fill="#fff"/></g><g filter="url(#filter10_d)"><path d="M200.992 316.395c-.331-1.446-1.012-2.543-2.042-3.29-1.047-.724-2.341-.964-3.881-.719-.909.145-1.723.376-2.442.693-.736.34-1.395.84-1.979 1.499l-.648-2.357c.569-.495 1.261-.92 2.075-1.272.795-.349 1.696-.604 2.704-.764 1.264-.202 2.413-.172 3.447.089 1.014.264 1.903.699 2.668 1.307a7.808 7.808 0 011.858 2.316c.473.938.801 1.979.983 3.125.192 1.204.207 2.316.045 3.334-.179 1.041-.509 1.954-.992 2.74a6.191 6.191 0 01-1.933 1.978c-.806.534-1.733.884-2.779 1.05-1.107.177-2.126.136-3.058-.12a6.044 6.044 0 01-2.461-1.34c-.705-.617-1.287-1.405-1.743-2.366-.473-.937-.804-1.998-.993-3.183l-.075-.474a3.75 3.75 0 01-.042-.449l11.288-1.797zm-8.4 3.524c.328 1.426.945 2.503 1.851 3.23.885.729 1.98.991 3.284.783 1.303-.207 2.263-.796 2.878-1.764.615-.969.858-2.182.727-3.64l-8.74 1.391z" fill="#fff"/></g><g filter="url(#filter11_d)"><path d="M184.481 321.072c-1.998.092-3.587.366-4.767.821-1.2.456-1.78 1.124-1.739 2.003.028.619.37 1.074 1.024 1.364.634.291 1.72.401 3.259.33.859-.04 1.675-.148 2.447-.324a9.506 9.506 0 002.102-.668l.319 2.358c-1.419.486-3.007.77-4.766.851-2.217.103-3.911-.159-5.081-.785-1.191-.626-1.817-1.618-1.88-2.977-.026-.559.061-1.064.26-1.513.2-.43.483-.814.848-1.151a4.762 4.762 0 011.255-.779 7.525 7.525 0 011.48-.459c-1.291-.22-2.323-.673-3.096-1.358-.791-.664-1.211-1.505-1.258-2.524-.035-.76.124-1.428.478-2.005.334-.556.813-1.028 1.436-1.418.622-.389 1.359-.683 2.211-.883a12.988 12.988 0 012.715-.396c.919-.043 1.81-.024 2.675.056.844.061 1.651.194 2.421.399l-.099 2.407a9.135 9.135 0 00-2.309-.584 17.206 17.206 0 00-2.436-.067c-1.598.074-2.757.338-3.477.791-.72.454-1.065 1.001-1.035 1.64.043.919.626 1.623 1.75 2.111 1.124.509 2.845.709 5.163.602l.1 2.158z" fill="#fff"/></g><g filter="url(#filter12_d)"><path d="M171.535 327.845l-2.665-.165-4.198-12.793-5.413 12.199-2.665-.164 9.49-20.784 2.605.161-2.543 5.643 5.389 15.903z" fill="#fff"/></g><g filter="url(#filter13_d)"><path d="M149.358 315.16c.32-1.792 1.013-3.049 2.077-3.773 1.044-.728 2.393-.944 4.047-.648.276.049.607.129.994.239.39.09.747.194 1.071.313l-.617 2.084a4.554 4.554 0 00-.717-.25 10.126 10.126 0 00-.733-.161c-.551-.099-1.024-.123-1.419-.071a1.976 1.976 0 00-1.051.421c-.309.25-.566.61-.772 1.081-.21.491-.384 1.12-.521 1.888l-1.722 9.627-10.129-1.812 2.736-15.297 2.481.444-2.356 13.171 5.168.924 1.463-8.18z" fill="#fff"/></g><g filter="url(#filter14_d)"><path d="M124.927 308.823c.518-1.682 1.535-2.709 3.051-3.079 1.491-.357 3.403-.176 5.735.542l5.246 1.615-4.573 14.852-2.408-.741 1.624-5.276-2.838-.874c-2.332-.718-4.011-1.654-5.037-2.807-1.051-1.139-1.318-2.55-.8-4.232zm2.466.759c-.289.936-.147 1.733.425 2.391.572.657 1.727 1.254 3.467 1.789l2.924.901 1.678-5.448-2.925-.9c-1.739-.536-3.027-.702-3.864-.5-.843.222-1.411.811-1.705 1.767z" fill="#fff"/></g><g filter="url(#filter15_d)"><path d="M114.7 313.64l5.233 2.259-.856 1.983-12.78-5.518.857-1.983 5.233 2.26 5.304-12.284 2.313.999-5.304 12.284z" fill="#fff"/></g><g filter="url(#filter16_d)"><path d="M106.502 294.374a8.385 8.385 0 011.921 1.477c.526.53.924 1.103 1.195 1.718.26.633.372 1.284.335 1.954-.047.687-.273 1.387-.68 2.099-.784 1.372-1.916 2.165-3.397 2.378-1.491.232-3.182-.193-5.076-1.274l-3.386-1.934-.536.938c-.535.937-.63 1.747-.282 2.429.33.673 1.103 1.356 2.319 2.05.73.417 1.548.757 2.456 1.023.898.282 1.759.428 2.583.438l-.882 2.088a12.042 12.042 0 01-2.619-.494 12.984 12.984 0 01-2.691-1.157c-.903-.516-1.653-1.059-2.248-1.629-.596-.57-1.014-1.189-1.255-1.856-.268-.66-.34-1.381-.216-2.162.114-.764.434-1.607.96-2.527l5.042-8.832 2.189 1.25-.595 1.042c.726-.184 1.51-.185 2.351-.004.824.171 1.661.499 2.512.985zm-1.309 1.809c-.834-.476-1.668-.769-2.504-.878-.854-.118-1.63-.009-2.33.328l-1.874 3.283 3.282 1.874c1.303.744 2.392 1.055 3.268.933.865-.104 1.521-.547 1.968-1.329.476-.833.528-1.61.155-2.329-.372-.719-1.027-1.347-1.965-1.882z" fill="#fff"/></g><g filter="url(#filter17_d)"><path d="M85.765 297.494l4.621 3.336-1.264 1.752-11.287-8.148 1.265-1.751 4.621 3.336 7.832-10.849 2.043 1.475-7.831 10.849z" fill="#fff"/></g><g filter="url(#filter18_d)"><path d="M44.02 255.185c.865-.611 1.743-.997 2.632-1.159a5.869 5.869 0 012.584.123c.833.245 1.655.681 2.465 1.309.782.623 1.507 1.408 2.176 2.356l2.23 3.163 6.472-4.565 1.522 2.158-17.161 12.103-3.752-5.32c-.669-.948-1.157-1.9-1.465-2.858-.336-.962-.471-1.882-.406-2.761.05-.867.3-1.692.75-2.475.452-.783 1.102-1.474 1.952-2.074zm1.555 2.207c-1.176.83-1.789 1.8-1.837 2.911-.06 1.095.434 2.386 1.483 3.873l2.11 2.991 6.864-4.841-2.11-2.991c-1.049-1.488-2.099-2.387-3.15-2.697-1.063-.328-2.183-.076-3.36.754z" fill="#fff"/></g><g filter="url(#filter19_d)"><path d="M47.834 246.332c1.256-.789 2.067-1.793 2.434-3.011.34-1.227.14-2.528-.597-3.902a9.887 9.887 0 00-1.457-2.078 5.984 5.984 0 00-2.067-1.375l2.012-1.388c.656.374 1.284.888 1.885 1.541.59.636 1.128 1.404 1.61 2.302.606 1.128.956 2.222 1.05 3.285a7.114 7.114 0 01-.356 2.949 7.813 7.813 0 01-1.577 2.516c-.73.756-1.605 1.408-2.627 1.957-1.075.577-2.12.957-3.134 1.139-1.042.173-2.013.162-2.914-.036a6.197 6.197 0 01-2.504-1.174c-.77-.586-1.404-1.346-1.906-2.28-.53-.986-.827-1.962-.891-2.926a6.025 6.025 0 01.455-2.765c.35-.87.904-1.678 1.66-2.425.73-.755 1.623-1.417 2.68-1.984l.423-.228c.124-.066.26-.128.41-.186l5.41 10.069zm-6.092-6.774c-1.239.779-2.052 1.716-2.44 2.81-.399 1.076-.285 2.196.34 3.359.624 1.162 1.495 1.875 2.613 2.138 1.117.262 2.342.092 3.676-.511l-4.189-7.796z" fill="#fff"/></g><g filter="url(#filter20_d)"><path d="M38.068 232.503c-.752-1.854-1.538-3.261-2.36-4.223-.829-.98-1.651-1.305-2.467-.975-.574.233-.89.706-.946 1.42-.063.695.194 1.756.773 3.183.323.797.696 1.53 1.119 2.201a9.477 9.477 0 001.328 1.759l-2.117 1.085c-.93-1.176-1.726-2.58-2.387-4.211-.834-2.057-1.15-3.742-.949-5.054.194-1.331.922-2.251 2.182-2.762.52-.211 1.024-.297 1.514-.258.472.046.928.185 1.367.417.42.239.805.548 1.152.925.347.377.655.792.925 1.243-.221-1.291-.138-2.415.252-3.371.363-.968 1.017-1.643 1.962-2.026.705-.286 1.388-.358 2.05-.216.635.131 1.24.425 1.814.883.574.458 1.097 1.055 1.568 1.792.483.711.908 1.52 1.276 2.429.346.852.625 1.699.837 2.542a13.1 13.1 0 01.429 2.415l-2.303.707a9.175 9.175 0 00-.218-2.372 17.22 17.22 0 00-.746-2.319c-.6-1.483-1.235-2.488-1.902-3.016-.668-.528-1.298-.672-1.891-.432-.853.346-1.322 1.13-1.41 2.352-.105 1.23.278 2.92 1.15 5.07l-2.002.812z" fill="#fff"/></g><g filter="url(#filter21_d)"><path d="M27.514 222.909l-.728-2.569 10.68-8.201-13.304-1.065-.728-2.569 22.755 2.068.71 2.511-6.167-.529-13.218 10.354z" fill="#fff"/></g><g filter="url(#filter22_d)"><path d="M32.125 197.682c1.797-.286 3.213-.045 4.246.722 1.03.747 1.678 1.95 1.942 3.61.044.276.078.615.1 1.016.044.399.063.77.057 1.115l-2.171.103c.022-.247.022-.5 0-.76a10.669 10.669 0 00-.088-.745c-.088-.553-.22-1.008-.4-1.364a1.979 1.979 0 00-.742-.854c-.338-.21-.763-.334-1.275-.374-.533-.037-1.184.006-1.954.129l-9.659 1.537-1.617-10.162 15.346-2.443.397 2.489-13.214 2.103.825 5.185 8.207-1.307z" fill="#fff"/></g><g filter="url(#filter23_d)"><path d="M30.036 172.539c1.758-.068 3.063.552 3.914 1.86.83 1.289 1.293 3.153 1.387 5.591l.212 5.486-15.529.6-.097-2.519 5.516-.213-.114-2.967c-.095-2.439.233-4.333.981-5.682.728-1.37 1.971-2.088 3.73-2.156zm.1 2.578c-.98.038-1.685.435-2.116 1.193-.431.757-.612 2.045-.542 3.863l.118 3.058 5.696-.22-.118-3.058c-.07-1.818-.34-3.089-.808-3.811-.488-.722-1.232-1.063-2.23-1.025z" fill="#fff"/></g><g filter="url(#filter24_d)"><path d="M22.12 163.865l-.418 5.685-2.154-.158 1.02-13.883 2.153.158-.417 5.685 13.344.98-.184 2.513-13.345-.98z" fill="#fff"/></g><g filter="url(#filter25_d)"><path d="M37.543 150.115a8.38 8.38 0 01-.757 2.301 5.71 5.71 0 01-1.225 1.698 4.43 4.43 0 01-1.732.964c-.663.184-1.399.202-2.205.054-1.554-.284-2.678-1.089-3.37-2.415-.713-1.33-.873-3.067-.481-5.212l.701-3.836-1.062-.194c-1.063-.195-1.858-.015-2.386.539-.525.535-.913 1.49-1.165 2.868a11.343 11.343 0 00-.15 2.656 8.95 8.95 0 00.443 2.582l-2.262-.139a12.017 12.017 0 01-.403-2.636c-.044-.984.023-1.958.199-2.922.187-1.023.45-1.91.791-2.661.341-.751.786-1.35 1.336-1.799.533-.472 1.19-.779 1.967-.921.76-.146 1.66-.124 2.703.067l10.004 1.829-.453 2.479-1.18-.216c.413.625.675 1.364.783 2.217.112.834.08 1.733-.096 2.697zm-2.141-.636c.173-.944.172-1.828-.003-2.653-.17-.845-.531-1.541-1.082-2.089l-3.718-.68-.68 3.719c-.27 1.475-.202 2.606.203 3.392.386.782 1.021 1.254 1.907 1.415.944.173 1.694-.035 2.249-.625.555-.59.93-1.416 1.124-2.479z" fill="#fff"/></g><g filter="url(#filter26_d)"><path d="M27.73 131.508l-1.636 5.46-2.07-.62 3.996-13.335 2.07.62-1.637 5.461 12.817 3.84-.723 2.414-12.817-3.84z" fill="#fff"/></g><g filter="url(#filter27_d)"><path d="M54.043 78.042c.86.62 1.51 1.325 1.953 2.113.426.776.667 1.604.723 2.483.04.867-.105 1.786-.435 2.756-.335.943-.842 1.884-1.52 2.825l-2.266 3.137 6.422 4.636-1.545 2.14-17.028-12.29 3.81-5.28c.68-.94 1.422-1.711 2.227-2.314.8-.63 1.627-1.058 2.479-1.282a5.532 5.532 0 012.584-.095c.888.172 1.753.562 2.596 1.171zm-1.58 2.19c-1.168-.844-2.285-1.107-3.351-.792-1.055.3-2.115 1.187-3.18 2.663L43.79 85.07l6.81 4.917 2.143-2.968c1.065-1.476 1.574-2.761 1.526-3.856-.037-1.112-.639-2.089-1.806-2.932z" fill="#fff"/></g><g filter="url(#filter28_d)"><path d="M63.714 78.642c1.156.93 2.37 1.37 3.641 1.32 1.27-.08 2.435-.692 3.493-1.838a9.92 9.92 0 001.489-2.056 5.986 5.986 0 00.626-2.403l1.969 1.45c-.14.742-.422 1.503-.843 2.284-.408.767-.958 1.525-1.65 2.274-.868.94-1.79 1.629-2.763 2.064-.96.42-1.928.63-2.904.626a7.817 7.817 0 01-2.893-.67c-.952-.443-1.854-1.058-2.706-1.845-.897-.828-1.597-1.691-2.1-2.591-.504-.928-.81-1.85-.917-2.766a6.208 6.208 0 01.293-2.75c.303-.918.814-1.767 1.533-2.546.76-.822 1.585-1.422 2.476-1.797a6.029 6.029 0 012.762-.471c.936.047 1.88.307 2.834.778.952.443 1.868 1.072 2.75 1.886l.353.325c.103.095.206.204.31.328l-7.753 8.398zm4.416-7.968c-1.14-.917-2.291-1.38-3.452-1.39-1.148-.025-2.17.447-3.064 1.417-.896.97-1.285 2.026-1.169 3.168.117 1.142.677 2.244 1.682 3.308l6.003-6.503z" fill="#fff"/></g><g filter="url(#filter29_d)"><path d="M73.766 64.713c1.508-1.313 2.584-2.515 3.226-3.604.657-1.103.697-1.986.12-2.65-.408-.468-.958-.612-1.65-.433-.678.166-1.598.754-2.76 1.765a13.905 13.905 0 00-1.717 1.774 9.47 9.47 0 00-1.232 1.829l-1.715-1.65c.81-1.262 1.88-2.471 3.207-3.627 1.674-1.458 3.165-2.304 4.47-2.54 1.322-.249 2.43.14 3.322 1.165.368.423.614.872.737 1.348.11.461.126.938.05 1.428-.09.476-.257.94-.5 1.39a7.522 7.522 0 01-.876 1.28c1.15-.63 2.24-.916 3.27-.859 1.033.03 1.885.428 2.554 1.198.5.573.79 1.195.87 1.867.084.644.002 1.312-.244 2.003-.247.692-.641 1.38-1.185 2.066a13.026 13.026 0 01-1.882 1.996 19.298 19.298 0 01-2.132 1.618c-.699.476-1.414.873-2.145 1.191l-1.417-1.948a9.172 9.172 0 002.172-.977 17.185 17.185 0 001.951-1.46c1.207-1.05 1.952-1.977 2.234-2.78.282-.802.213-1.445-.207-1.927-.604-.694-1.498-.884-2.682-.569-1.198.3-2.671 1.212-4.421 2.735l-1.418-1.629z" fill="#fff"/></g><g filter="url(#filter30_d)"><path d="M79.23 51.722l2.187-1.531 11.253 7.394-3.364-12.916 2.188-1.53 5.52 22.17-2.138 1.497-1.526-6-14.12-9.084z" fill="#fff"/></g><g filter="url(#filter31_d)"><path d="M103.873 48.15c.867 1.6 1.11 3.016.731 4.245-.363 1.22-1.282 2.23-2.759 3.031-.247.134-.555.278-.926.434a8.94 8.94 0 01-1.033.423l-.818-2.013c.24-.062.478-.146.716-.252.256-.116.481-.226.674-.331.492-.267.877-.544 1.154-.83a1.99 1.99 0 00.558-.985c.086-.388.062-.83-.071-1.327-.142-.514-.399-1.114-.771-1.8l-4.66-8.598 9.046-4.904 7.406 13.662-2.216 1.201-6.376-11.763-4.616 2.502 3.961 7.306z" fill="#fff"/></g><g filter="url(#filter32_d)"><path d="M127.467 37.575c.643 1.638.487 3.075-.468 4.309-.944 1.208-2.551 2.258-4.823 3.15l-5.11 2.005-5.677-14.466 2.346-.92 2.016 5.138 2.765-1.085c2.271-.892 4.168-1.206 5.689-.944 1.532.237 2.62 1.175 3.262 2.813zm-2.401.942c-.358-.912-.966-1.447-1.823-1.605-.856-.158-2.132.096-3.826.76l-2.849 1.118 2.083 5.306 2.848-1.117c1.694-.665 2.805-1.338 3.334-2.017.52-.7.598-1.514.233-2.445z" fill="#fff"/></g><g filter="url(#filter33_d)"><path d="M132.171 27.497l-5.501 1.49-.565-2.084 13.435-3.64.565 2.084-5.501 1.49 3.499 12.915-2.432.66-3.5-12.915z" fill="#fff"/></g><g filter="url(#filter34_d)"><path d="M150.681 37.397a8.39 8.39 0 01-2.422.042 5.704 5.704 0 01-2.006-.6 4.431 4.431 0 01-1.48-1.318c-.392-.567-.65-1.255-.776-2.065-.242-1.562.149-2.887 1.174-3.978 1.022-1.11 2.61-1.832 4.764-2.166l3.854-.598-.166-1.067c-.166-1.068-.597-1.76-1.294-2.077-.677-.32-1.707-.372-3.091-.157-.83.129-1.682.372-2.558.73-.878.34-1.643.762-2.293 1.268l-.612-2.182c.676-.47 1.462-.885 2.357-1.247a12.991 12.991 0 012.825-.772c1.028-.16 1.952-.202 2.773-.127.822.075 1.534.298 2.138.67.621.349 1.127.867 1.517 1.555.387.669.662 1.527.825 2.575l1.56 10.05-2.49.386-.184-1.186c-.454.597-1.066 1.086-1.837 1.469-.75.38-1.61.645-2.578.795zm-.104-2.23c.949-.148 1.784-.44 2.506-.875.741-.44 1.28-1.009 1.617-1.709l-.58-3.735-3.735.58c-1.483.23-2.528.666-3.137 1.307-.612.621-.849 1.376-.711 2.266.148.948.591 1.588 1.33 1.918.74.33 1.643.413 2.71.247z" fill="#fff"/></g><g filter="url(#filter35_d)"><path d="M164.633 22.013l-5.694.264-.1-2.157 13.905-.645.1 2.158-5.694.264.619 13.365-2.517.117-.619-13.366z" fill="#fff"/></g><g filter="url(#filter36_d)"><path d="M225.038 29.305c-.304 1.015-.756 1.861-1.355 2.538a5.882 5.882 0 01-2.109 1.497c-.806.322-1.722.486-2.747.492-1-.007-2.055-.177-3.167-.51l-3.707-1.111-2.273 7.587-2.529-.758 6.028-20.116 6.236 1.868c1.111.333 2.084.781 2.917 1.344.859.55 1.533 1.19 2.024 1.922a5.53 5.53 0 01.937 2.41c.129.895.044 1.84-.255 2.837zm-2.586-.775c.413-1.38.296-2.521-.352-3.425-.628-.899-1.814-1.609-3.558-2.131l-3.506-1.051-2.411 8.047 3.506 1.05c1.743.523 3.125.582 4.144.177 1.038-.399 1.764-1.288 2.177-2.667z" fill="#fff"/></g><g filter="url(#filter37_d)"><path d="M227.311 38.519c-.5 1.396-.517 2.687-.052 3.872.491 1.174 1.452 2.073 2.882 2.697a9.908 9.908 0 002.429.733c.803.11 1.628.044 2.475-.197l-.724 2.335c-.746.11-1.558.095-2.434-.047-.858-.134-1.754-.405-2.689-.813-1.173-.512-2.125-1.156-2.855-1.933-.712-.769-1.227-1.615-1.544-2.54a7.813 7.813 0 01-.316-2.952c.107-1.044.392-2.098.856-3.161.488-1.118 1.074-2.063 1.759-2.833.712-.78 1.482-1.372 2.312-1.774a6.21 6.21 0 012.695-.624c.966-.015 1.935.19 2.907.613 1.026.448 1.863 1.031 2.51 1.75a6.036 6.036 0 011.351 2.455c.262.9.327 1.877.194 2.932-.107 1.044-.4 2.117-.88 3.217l-.192.44a3.697 3.697 0 01-.207.4l-10.477-4.57zm8.976 1.559c.492-1.379.552-2.618.181-3.718-.353-1.092-1.134-1.902-2.344-2.43-1.21-.528-2.335-.55-3.375-.065-1.041.484-1.899 1.376-2.574 2.674l8.112 3.538z" fill="#fff"/></g><g filter="url(#filter38_d)"><path d="M243.163 43.113c1.737.992 3.226 1.611 4.466 1.859 1.258.258 2.105.004 2.541-.76.308-.538.263-1.105-.134-1.7-.38-.586-1.238-1.26-2.576-2.024a13.86 13.86 0 00-2.24-1.037 9.484 9.484 0 00-2.132-.562l.993-2.162c1.458.35 2.952.96 4.48 1.833 1.928 1.101 3.218 2.23 3.871 3.385.67 1.166.668 2.34-.006 3.52-.278.487-.621.866-1.031 1.14a3.663 3.663 0 01-1.332.517 4.765 4.765 0 01-1.477-.014 7.51 7.51 0 01-1.496-.406c.973.878 1.602 1.813 1.888 2.806.312.984.216 1.92-.29 2.805-.377.66-.869 1.14-1.477 1.437-.58.29-1.237.433-1.972.428-.734-.004-1.514-.15-2.34-.438a13.029 13.029 0 01-2.505-1.12 19.275 19.275 0 01-2.229-1.48 13.094 13.094 0 01-1.832-1.633l1.373-1.98a9.156 9.156 0 001.638 1.73c.67.521 1.343.975 2.021 1.362 1.389.793 2.509 1.19 3.36 1.193.851.002 1.435-.274 1.752-.83.457-.8.341-1.706-.346-2.72-.678-1.032-2.024-2.123-4.039-3.274l1.071-1.875z" fill="#fff"/></g><g filter="url(#filter39_d)"><path d="M257.351 44.031l2.164 1.563-3.284 13.058 11.093-7.422 2.165 1.563-19.125 12.501-2.117-1.527 5.165-3.413 3.939-16.323z" fill="#fff"/></g><g filter="url(#filter40_d)"><path d="M269.507 66.701c-1.23 1.342-2.488 2.034-3.774 2.076-1.272.055-2.527-.484-3.766-1.62a10.65 10.65 0 01-.711-.733 8.881 8.881 0 01-.737-.838l1.636-1.43c.136.206.294.404.472.595.193.204.37.38.532.529.413.378.8.651 1.162.82.376.181.747.25 1.113.206.394-.046.804-.212 1.231-.5.439-.302.923-.74 1.45-1.316l6.607-7.21 7.587 6.952-10.499 11.457-1.858-1.703 9.039-9.864-3.87-3.547-5.614 6.126z" fill="#fff"/></g><g filter="url(#filter41_d)"><path d="M286.955 85.25c-1.335 1.145-2.743 1.47-4.223.974-1.451-.494-2.971-1.667-4.56-3.519l-3.575-4.166 11.795-10.119 1.64 1.913-4.189 3.594 1.934 2.254c1.588 1.852 2.509 3.54 2.761 5.062.281 1.525-.247 2.86-1.583 4.007zm-1.68-1.959c.744-.638 1.05-1.387.917-2.248-.133-.862-.791-1.983-1.977-3.364l-1.992-2.323-4.326 3.712 1.992 2.322c1.185 1.382 2.186 2.21 3.002 2.485.831.262 1.626.067 2.384-.584z" fill="#fff"/></g><g filter="url(#filter42_d)"><path d="M298.26 86.702l-3.217-4.705 1.783-1.22 7.856 11.492-1.783 1.22-3.217-4.706-11.046 7.55-1.422-2.08 11.046-7.55z" fill="#fff"/></g><g filter="url(#filter43_d)"><path d="M295.012 107.495a8.374 8.374 0 01-.836-2.273 5.688 5.688 0 01-.094-2.091 4.425 4.425 0 01.758-1.832c.406-.556.971-1.027 1.695-1.412 1.395-.743 2.775-.81 4.142-.2 1.384.599 2.589 1.861 3.613 3.785l1.833 3.443.954-.508c.953-.507 1.465-1.142 1.534-1.905.08-.744-.21-1.735-.868-2.97a11.275 11.275 0 00-1.532-2.175c-.609-.718-1.259-1.301-1.95-1.749l1.859-1.296a12.03 12.03 0 011.952 1.816 13.028 13.028 0 011.659 2.413c.489.918.833 1.777 1.032 2.577.2.8.224 1.547.071 2.24-.125.701-.448 1.349-.97 1.944-.504.585-1.223 1.127-2.159 1.626l-8.977 4.78-1.184-2.225 1.059-.564c-.713-.232-1.376-.649-1.991-1.25-.606-.584-1.139-1.309-1.6-2.174zm2.073-.831c.451.847 1.001 1.54 1.65 2.078.659.556 1.374.877 2.145.965l3.337-1.777-1.777-3.336c-.705-1.324-1.46-2.168-2.266-2.532-.788-.374-1.579-.349-2.373.074-.848.451-1.306 1.08-1.375 1.887-.068.807.151 1.687.659 2.641z" fill="#fff"/></g><g filter="url(#filter44_d)"><path d="M314.099 115.595l-2.122-5.29 2.005-.804 5.182 12.919-2.005.804-2.122-5.29-12.418 4.981-.938-2.339 12.418-4.981z" fill="#fff"/></g><defs><filter id="filter0_d" x="305.189" y="173.22" width="35.117" height="29.166" filterUnits="userSpaceOnUse" color-interpolation-filters="sRGB"><feFlood flood-opacity="0" result="BackgroundImageFix"/><feColorMatrix in="SourceAlpha" values="0 0 0 0 0 0 0 0 0 0 0 0 0 0 0 0 0 0 127 0"/><feOffset dy="5"/><feGaussianBlur stdDeviation="3.5"/><feColorMatrix values="0 0 0 0 0 0 0 0 0 0 0 0 0 0 0 0 0 0 0.25 0"/><feBlend in2="BackgroundImageFix" result="effect1_dropShadow"/><feBlend in="SourceGraphic" in2="effect1_dropShadow" result="shape"/></filter><filter id="filter1_d" x="302.381" y="190.288" width="30.456" height="28.203" filterUnits="userSpaceOnUse" color-interpolation-filters="sRGB"><feFlood flood-opacity="0" result="BackgroundImageFix"/><feColorMatrix in="SourceAlpha" values="0 0 0 0 0 0 0 0 0 0 0 0 0 0 0 0 0 0 127 0"/><feOffset dy="5"/><feGaussianBlur stdDeviation="3.5"/><feColorMatrix values="0 0 0 0 0 0 0 0 0 0 0 0 0 0 0 0 0 0 0.25 0"/><feBlend in2="BackgroundImageFix" result="effect1_dropShadow"/><feBlend in="SourceGraphic" in2="effect1_dropShadow" result="shape"/></filter><filter id="filter2_d" x="299.024" y="204.859" width="30.878" height="28.907" filterUnits="userSpaceOnUse" color-interpolation-filters="sRGB"><feFlood flood-opacity="0" result="BackgroundImageFix"/><feColorMatrix in="SourceAlpha" values="0 0 0 0 0 0 0 0 0 0 0 0 0 0 0 0 0 0 127 0"/><feOffset dy="5"/><feGaussianBlur stdDeviation="3.5"/><feColorMatrix values="0 0 0 0 0 0 0 0 0 0 0 0 0 0 0 0 0 0 0.25 0"/><feBlend in2="BackgroundImageFix" result="effect1_dropShadow"/><feBlend in="SourceGraphic" in2="effect1_dropShadow" result="shape"/></filter><filter id="filter3_d" x="289.446" y="219.784" width="36.294" height="32.198" filterUnits="userSpaceOnUse" color-interpolation-filters="sRGB"><feFlood flood-opacity="0" result="BackgroundImageFix"/><feColorMatrix in="SourceAlpha" values="0 0 0 0 0 0 0 0 0 0 0 0 0 0 0 0 0 0 127 0"/><feOffset dy="5"/><feGaussianBlur stdDeviation="3.5"/><feColorMatrix values="0 0 0 0 0 0 0 0 0 0 0 0 0 0 0 0 0 0 0.25 0"/><feBlend in2="BackgroundImageFix" result="effect1_dropShadow"/><feBlend in="SourceGraphic" in2="effect1_dropShadow" result="shape"/></filter><filter id="filter4_d" x="284.296" y="231.842" width="32.588" height="34.906" filterUnits="userSpaceOnUse" color-interpolation-filters="sRGB"><feFlood flood-opacity="0" result="BackgroundImageFix"/><feColorMatrix in="SourceAlpha" values="0 0 0 0 0 0 0 0 0 0 0 0 0 0 0 0 0 0 127 0"/><feOffset dy="5"/><feGaussianBlur stdDeviation="3.5"/><feColorMatrix values="0 0 0 0 0 0 0 0 0 0 0 0 0 0 0 0 0 0 0.25 0"/><feBlend in2="BackgroundImageFix" result="effect1_dropShadow"/><feBlend in="SourceGraphic" in2="effect1_dropShadow" result="shape"/></filter><filter id="filter5_d" x="276.517" y="248.389" width="32.191" height="28.538" filterUnits="userSpaceOnUse" color-interpolation-filters="sRGB"><feFlood flood-opacity="0" result="BackgroundImageFix"/><feColorMatrix in="SourceAlpha" values="0 0 0 0 0 0 0 0 0 0 0 0 0 0 0 0 0 0 127 0"/><feOffset dy="5"/><feGaussianBlur stdDeviation="3.5"/><feColorMatrix values="0 0 0 0 0 0 0 0 0 0 0 0 0 0 0 0 0 0 0.25 0"/><feBlend in2="BackgroundImageFix" result="effect1_dropShadow"/><feBlend in="SourceGraphic" in2="effect1_dropShadow" result="shape"/></filter><filter id="filter6_d" x="268.044" y="264.188" width="31.011" height="30.559" filterUnits="userSpaceOnUse" color-interpolation-filters="sRGB"><feFlood flood-opacity="0" result="BackgroundImageFix"/><feColorMatrix in="SourceAlpha" values="0 0 0 0 0 0 0 0 0 0 0 0 0 0 0 0 0 0 127 0"/><feOffset dy="5"/><feGaussianBlur stdDeviation="3.5"/><feColorMatrix values="0 0 0 0 0 0 0 0 0 0 0 0 0 0 0 0 0 0 0.25 0"/><feBlend in2="BackgroundImageFix" result="effect1_dropShadow"/><feBlend in="SourceGraphic" in2="effect1_dropShadow" result="shape"/></filter><filter id="filter7_d" x="253.515" y="272.77" width="32.624" height="30.832" filterUnits="userSpaceOnUse" color-interpolation-filters="sRGB"><feFlood flood-opacity="0" result="BackgroundImageFix"/><feColorMatrix in="SourceAlpha" values="0 0 0 0 0 0 0 0 0 0 0 0 0 0 0 0 0 0 127 0"/><feOffset dy="5"/><feGaussianBlur stdDeviation="3.5"/><feColorMatrix values="0 0 0 0 0 0 0 0 0 0 0 0 0 0 0 0 0 0 0.25 0"/><feBlend in2="BackgroundImageFix" result="effect1_dropShadow"/><feBlend in="SourceGraphic" in2="effect1_dropShadow" result="shape"/></filter><filter id="filter8_d" x="245.062" y="284.415" width="29.645" height="31.445" filterUnits="userSpaceOnUse" color-interpolation-filters="sRGB"><feFlood flood-opacity="0" result="BackgroundImageFix"/><feColorMatrix in="SourceAlpha" values="0 0 0 0 0 0 0 0 0 0 0 0 0 0 0 0 0 0 127 0"/><feOffset dy="5"/><feGaussianBlur stdDeviation="3.5"/><feColorMatrix values="0 0 0 0 0 0 0 0 0 0 0 0 0 0 0 0 0 0 0.25 0"/><feBlend in2="BackgroundImageFix" result="effect1_dropShadow"/><feBlend in="SourceGraphic" in2="effect1_dropShadow" result="shape"/></filter><filter id="filter9_d" x="200.718" y="303.117" width="29.87" height="36.416" filterUnits="userSpaceOnUse" color-interpolation-filters="sRGB"><feFlood flood-opacity="0" result="BackgroundImageFix"/><feColorMatrix in="SourceAlpha" values="0 0 0 0 0 0 0 0 0 0 0 0 0 0 0 0 0 0 127 0"/><feOffset dy="5"/><feGaussianBlur stdDeviation="3.5"/><feColorMatrix values="0 0 0 0 0 0 0 0 0 0 0 0 0 0 0 0 0 0 0.25 0"/><feBlend in2="BackgroundImageFix" result="effect1_dropShadow"/><feBlend in="SourceGraphic" in2="effect1_dropShadow" result="shape"/></filter><filter id="filter10_d" x="182.704" y="308.053" width="28.186" height="30.179" filterUnits="userSpaceOnUse" color-interpolation-filters="sRGB"><feFlood flood-opacity="0" result="BackgroundImageFix"/><feColorMatrix in="SourceAlpha" values="0 0 0 0 0 0 0 0 0 0 0 0 0 0 0 0 0 0 127 0"/><feOffset dy="5"/><feGaussianBlur stdDeviation="3.5"/><feColorMatrix values="0 0 0 0 0 0 0 0 0 0 0 0 0 0 0 0 0 0 0.25 0"/><feBlend in2="BackgroundImageFix" result="effect1_dropShadow"/><feBlend in="SourceGraphic" in2="effect1_dropShadow" result="shape"/></filter><filter id="filter11_d" x="167.883" y="309.537" width="26.243" height="30.292" filterUnits="userSpaceOnUse" color-interpolation-filters="sRGB"><feFlood flood-opacity="0" result="BackgroundImageFix"/><feColorMatrix in="SourceAlpha" values="0 0 0 0 0 0 0 0 0 0 0 0 0 0 0 0 0 0 127 0"/><feOffset dy="5"/><feGaussianBlur stdDeviation="3.5"/><feColorMatrix values="0 0 0 0 0 0 0 0 0 0 0 0 0 0 0 0 0 0 0.25 0"/><feBlend in2="BackgroundImageFix" result="effect1_dropShadow"/><feBlend in="SourceGraphic" in2="effect1_dropShadow" result="shape"/></filter><filter id="filter12_d" x="149.594" y="304.137" width="28.942" height="35.708" filterUnits="userSpaceOnUse" color-interpolation-filters="sRGB"><feFlood flood-opacity="0" result="BackgroundImageFix"/><feColorMatrix in="SourceAlpha" values="0 0 0 0 0 0 0 0 0 0 0 0 0 0 0 0 0 0 127 0"/><feOffset dy="5"/><feGaussianBlur stdDeviation="3.5"/><feColorMatrix values="0 0 0 0 0 0 0 0 0 0 0 0 0 0 0 0 0 0 0.25 0"/><feBlend in2="BackgroundImageFix" result="effect1_dropShadow"/><feBlend in="SourceGraphic" in2="effect1_dropShadow" result="shape"/></filter><filter id="filter13_d" x="132.866" y="306.801" width="31.681" height="31.109" filterUnits="userSpaceOnUse" color-interpolation-filters="sRGB"><feFlood flood-opacity="0" result="BackgroundImageFix"/><feColorMatrix in="SourceAlpha" values="0 0 0 0 0 0 0 0 0 0 0 0 0 0 0 0 0 0 127 0"/><feOffset dy="5"/><feGaussianBlur stdDeviation="3.5"/><feColorMatrix values="0 0 0 0 0 0 0 0 0 0 0 0 0 0 0 0 0 0 0.25 0"/><feBlend in2="BackgroundImageFix" result="effect1_dropShadow"/><feBlend in="SourceGraphic" in2="effect1_dropShadow" result="shape"/></filter><filter id="filter14_d" x="117.67" y="303.566" width="28.289" height="31.187" filterUnits="userSpaceOnUse" color-interpolation-filters="sRGB"><feFlood flood-opacity="0" result="BackgroundImageFix"/><feColorMatrix in="SourceAlpha" values="0 0 0 0 0 0 0 0 0 0 0 0 0 0 0 0 0 0 127 0"/><feOffset dy="5"/><feGaussianBlur stdDeviation="3.5"/><feColorMatrix values="0 0 0 0 0 0 0 0 0 0 0 0 0 0 0 0 0 0 0.25 0"/><feBlend in2="BackgroundImageFix" result="effect1_dropShadow"/><feBlend in="SourceGraphic" in2="effect1_dropShadow" result="shape"/></filter><filter id="filter15_d" x="99.298" y="298.357" width="27.707" height="31.525" filterUnits="userSpaceOnUse" color-interpolation-filters="sRGB"><feFlood flood-opacity="0" result="BackgroundImageFix"/><feColorMatrix in="SourceAlpha" values="0 0 0 0 0 0 0 0 0 0 0 0 0 0 0 0 0 0 127 0"/><feOffset dy="5"/><feGaussianBlur stdDeviation="3.5"/><feColorMatrix values="0 0 0 0 0 0 0 0 0 0 0 0 0 0 0 0 0 0 0.25 0"/><feBlend in2="BackgroundImageFix" result="effect1_dropShadow"/><feBlend in="SourceGraphic" in2="effect1_dropShadow" result="shape"/></filter><filter id="filter16_d" x="86.984" y="289.101" width="29.976" height="32.656" filterUnits="userSpaceOnUse" color-interpolation-filters="sRGB"><feFlood flood-opacity="0" result="BackgroundImageFix"/><feColorMatrix in="SourceAlpha" values="0 0 0 0 0 0 0 0 0 0 0 0 0 0 0 0 0 0 127 0"/><feOffset dy="5"/><feGaussianBlur stdDeviation="3.5"/><feColorMatrix values="0 0 0 0 0 0 0 0 0 0 0 0 0 0 0 0 0 0 0.25 0"/><feBlend in2="BackgroundImageFix" result="effect1_dropShadow"/><feBlend in="SourceGraphic" in2="effect1_dropShadow" result="shape"/></filter><filter id="filter17_d" x="70.835" y="283.17" width="29.76" height="31.411" filterUnits="userSpaceOnUse" color-interpolation-filters="sRGB"><feFlood flood-opacity="0" result="BackgroundImageFix"/><feColorMatrix in="SourceAlpha" values="0 0 0 0 0 0 0 0 0 0 0 0 0 0 0 0 0 0 127 0"/><feOffset dy="5"/><feGaussianBlur stdDeviation="3.5"/><feColorMatrix values="0 0 0 0 0 0 0 0 0 0 0 0 0 0 0 0 0 0 0.25 0"/><feBlend in2="BackgroundImageFix" result="effect1_dropShadow"/><feBlend in="SourceGraphic" in2="effect1_dropShadow" result="shape"/></filter><filter id="filter18_d" x="34.301" y="251.937" width="36.8" height="30.736" filterUnits="userSpaceOnUse" color-interpolation-filters="sRGB"><feFlood flood-opacity="0" result="BackgroundImageFix"/><feColorMatrix in="SourceAlpha" values="0 0 0 0 0 0 0 0 0 0 0 0 0 0 0 0 0 0 127 0"/><feOffset dy="5"/><feGaussianBlur stdDeviation="3.5"/><feColorMatrix values="0 0 0 0 0 0 0 0 0 0 0 0 0 0 0 0 0 0 0.25 0"/><feBlend in2="BackgroundImageFix" result="effect1_dropShadow"/><feBlend in="SourceGraphic" in2="effect1_dropShadow" result="shape"/></filter><filter id="filter19_d" x="29.78" y="232.578" width="29.95" height="29.811" filterUnits="userSpaceOnUse" color-interpolation-filters="sRGB"><feFlood flood-opacity="0" result="BackgroundImageFix"/><feColorMatrix in="SourceAlpha" values="0 0 0 0 0 0 0 0 0 0 0 0 0 0 0 0 0 0 127 0"/><feOffset dy="5"/><feGaussianBlur stdDeviation="3.5"/><feColorMatrix values="0 0 0 0 0 0 0 0 0 0 0 0 0 0 0 0 0 0 0.25 0"/><feBlend in2="BackgroundImageFix" result="effect1_dropShadow"/><feBlend in="SourceGraphic" in2="effect1_dropShadow" result="shape"/></filter><filter id="filter20_d" x="23.003" y="219.57" width="31.387" height="29.384" filterUnits="userSpaceOnUse" color-interpolation-filters="sRGB"><feFlood flood-opacity="0" result="BackgroundImageFix"/><feColorMatrix in="SourceAlpha" values="0 0 0 0 0 0 0 0 0 0 0 0 0 0 0 0 0 0 127 0"/><feOffset dy="5"/><feGaussianBlur stdDeviation="3.5"/><feColorMatrix values="0 0 0 0 0 0 0 0 0 0 0 0 0 0 0 0 0 0 0.25 0"/><feBlend in2="BackgroundImageFix" result="effect1_dropShadow"/><feBlend in="SourceGraphic" in2="effect1_dropShadow" result="shape"/></filter><filter id="filter21_d" x="16.434" y="206.505" width="37.466" height="28.403" filterUnits="userSpaceOnUse" color-interpolation-filters="sRGB"><feFlood flood-opacity="0" result="BackgroundImageFix"/><feColorMatrix in="SourceAlpha" values="0 0 0 0 0 0 0 0 0 0 0 0 0 0 0 0 0 0 127 0"/><feOffset dy="5"/><feGaussianBlur stdDeviation="3.5"/><feColorMatrix values="0 0 0 0 0 0 0 0 0 0 0 0 0 0 0 0 0 0 0.25 0"/><feBlend in2="BackgroundImageFix" result="effect1_dropShadow"/><feBlend in="SourceGraphic" in2="effect1_dropShadow" result="shape"/></filter><filter id="filter22_d" x="13.564" y="187.212" width="31.907" height="29.036" filterUnits="userSpaceOnUse" color-interpolation-filters="sRGB"><feFlood flood-opacity="0" result="BackgroundImageFix"/><feColorMatrix in="SourceAlpha" values="0 0 0 0 0 0 0 0 0 0 0 0 0 0 0 0 0 0 127 0"/><feOffset dy="5"/><feGaussianBlur stdDeviation="3.5"/><feColorMatrix values="0 0 0 0 0 0 0 0 0 0 0 0 0 0 0 0 0 0 0.25 0"/><feBlend in2="BackgroundImageFix" result="effect1_dropShadow"/><feBlend in="SourceGraphic" in2="effect1_dropShadow" result="shape"/></filter><filter id="filter23_d" x="12.923" y="170.534" width="29.626" height="27.541" filterUnits="userSpaceOnUse" color-interpolation-filters="sRGB"><feFlood flood-opacity="0" result="BackgroundImageFix"/><feColorMatrix in="SourceAlpha" values="0 0 0 0 0 0 0 0 0 0 0 0 0 0 0 0 0 0 127 0"/><feOffset dy="5"/><feGaussianBlur stdDeviation="3.5"/><feColorMatrix values="0 0 0 0 0 0 0 0 0 0 0 0 0 0 0 0 0 0 0.25 0"/><feBlend in2="BackgroundImageFix" result="effect1_dropShadow"/><feBlend in="SourceGraphic" in2="effect1_dropShadow" result="shape"/></filter><filter id="filter24_d" x="12.548" y="153.509" width="30.1" height="28.041" filterUnits="userSpaceOnUse" color-interpolation-filters="sRGB"><feFlood flood-opacity="0" result="BackgroundImageFix"/><feColorMatrix in="SourceAlpha" values="0 0 0 0 0 0 0 0 0 0 0 0 0 0 0 0 0 0 127 0"/><feOffset dy="5"/><feGaussianBlur stdDeviation="3.5"/><feColorMatrix values="0 0 0 0 0 0 0 0 0 0 0 0 0 0 0 0 0 0 0.25 0"/><feBlend in2="BackgroundImageFix" result="effect1_dropShadow"/><feBlend in="SourceGraphic" in2="effect1_dropShadow" result="shape"/></filter><filter id="filter25_d" x="14.476" y="138.947" width="31.012" height="28.284" filterUnits="userSpaceOnUse" color-interpolation-filters="sRGB"><feFlood flood-opacity="0" result="BackgroundImageFix"/><feColorMatrix in="SourceAlpha" values="0 0 0 0 0 0 0 0 0 0 0 0 0 0 0 0 0 0 127 0"/><feOffset dy="5"/><feGaussianBlur stdDeviation="3.5"/><feColorMatrix values="0 0 0 0 0 0 0 0 0 0 0 0 0 0 0 0 0 0 0.25 0"/><feBlend in2="BackgroundImageFix" result="effect1_dropShadow"/><feBlend in="SourceGraphic" in2="effect1_dropShadow" result="shape"/></filter><filter id="filter26_d" x="17.024" y="121.013" width="31.246" height="27.954" filterUnits="userSpaceOnUse" color-interpolation-filters="sRGB"><feFlood flood-opacity="0" result="BackgroundImageFix"/><feColorMatrix in="SourceAlpha" values="0 0 0 0 0 0 0 0 0 0 0 0 0 0 0 0 0 0 127 0"/><feOffset dy="5"/><feGaussianBlur stdDeviation="3.5"/><feColorMatrix values="0 0 0 0 0 0 0 0 0 0 0 0 0 0 0 0 0 0 0.25 0"/><feBlend in2="BackgroundImageFix" result="effect1_dropShadow"/><feBlend in="SourceGraphic" in2="effect1_dropShadow" result="shape"/></filter><filter id="filter27_d" x="33.347" y="74.763" width="32.572" height="35.37" filterUnits="userSpaceOnUse" color-interpolation-filters="sRGB"><feFlood flood-opacity="0" result="BackgroundImageFix"/><feColorMatrix in="SourceAlpha" values="0 0 0 0 0 0 0 0 0 0 0 0 0 0 0 0 0 0 127 0"/><feOffset dy="5"/><feGaussianBlur stdDeviation="3.5"/><feColorMatrix values="0 0 0 0 0 0 0 0 0 0 0 0 0 0 0 0 0 0 0.25 0"/><feBlend in2="BackgroundImageFix" result="effect1_dropShadow"/><feBlend in="SourceGraphic" in2="effect1_dropShadow" result="shape"/></filter><filter id="filter28_d" x="51.113" y="64.914" width="30.818" height="29.449" filterUnits="userSpaceOnUse" color-interpolation-filters="sRGB"><feFlood flood-opacity="0" result="BackgroundImageFix"/><feColorMatrix in="SourceAlpha" values="0 0 0 0 0 0 0 0 0 0 0 0 0 0 0 0 0 0 127 0"/><feOffset dy="5"/><feGaussianBlur stdDeviation="3.5"/><feColorMatrix values="0 0 0 0 0 0 0 0 0 0 0 0 0 0 0 0 0 0 0.25 0"/><feBlend in2="BackgroundImageFix" result="effect1_dropShadow"/><feBlend in="SourceGraphic" in2="effect1_dropShadow" result="shape"/></filter><filter id="filter29_d" x="61.038" y="53.504" width="31.136" height="31.764" filterUnits="userSpaceOnUse" color-interpolation-filters="sRGB"><feFlood flood-opacity="0" result="BackgroundImageFix"/><feColorMatrix in="SourceAlpha" values="0 0 0 0 0 0 0 0 0 0 0 0 0 0 0 0 0 0 127 0"/><feOffset dy="5"/><feGaussianBlur stdDeviation="3.5"/><feColorMatrix values="0 0 0 0 0 0 0 0 0 0 0 0 0 0 0 0 0 0 0.25 0"/><feBlend in2="BackgroundImageFix" result="effect1_dropShadow"/><feBlend in="SourceGraphic" in2="effect1_dropShadow" result="shape"/></filter><filter id="filter30_d" x="72.229" y="41.138" width="31.785" height="37.668" filterUnits="userSpaceOnUse" color-interpolation-filters="sRGB"><feFlood flood-opacity="0" result="BackgroundImageFix"/><feColorMatrix in="SourceAlpha" values="0 0 0 0 0 0 0 0 0 0 0 0 0 0 0 0 0 0 127 0"/><feOffset dy="5"/><feGaussianBlur stdDeviation="3.5"/><feColorMatrix values="0 0 0 0 0 0 0 0 0 0 0 0 0 0 0 0 0 0 0.25 0"/><feBlend in2="BackgroundImageFix" result="effect1_dropShadow"/><feBlend in="SourceGraphic" in2="effect1_dropShadow" result="shape"/></filter><filter id="filter31_d" x="89.668" y="33.243" width="30.452" height="35.04" filterUnits="userSpaceOnUse" color-interpolation-filters="sRGB"><feFlood flood-opacity="0" result="BackgroundImageFix"/><feColorMatrix in="SourceAlpha" values="0 0 0 0 0 0 0 0 0 0 0 0 0 0 0 0 0 0 127 0"/><feOffset dy="5"/><feGaussianBlur stdDeviation="3.5"/><feColorMatrix values="0 0 0 0 0 0 0 0 0 0 0 0 0 0 0 0 0 0 0.25 0"/><feBlend in2="BackgroundImageFix" result="effect1_dropShadow"/><feBlend in="SourceGraphic" in2="effect1_dropShadow" result="shape"/></filter><filter id="filter32_d" x="104.389" y="29.652" width="30.466" height="29.387" filterUnits="userSpaceOnUse" color-interpolation-filters="sRGB"><feFlood flood-opacity="0" result="BackgroundImageFix"/><feColorMatrix in="SourceAlpha" values="0 0 0 0 0 0 0 0 0 0 0 0 0 0 0 0 0 0 127 0"/><feOffset dy="5"/><feGaussianBlur stdDeviation="3.5"/><feColorMatrix values="0 0 0 0 0 0 0 0 0 0 0 0 0 0 0 0 0 0 0.25 0"/><feBlend in2="BackgroundImageFix" result="effect1_dropShadow"/><feBlend in="SourceGraphic" in2="effect1_dropShadow" result="shape"/></filter><filter id="filter33_d" x="119.105" y="21.262" width="28" height="31.149" filterUnits="userSpaceOnUse" color-interpolation-filters="sRGB"><feFlood flood-opacity="0" result="BackgroundImageFix"/><feColorMatrix in="SourceAlpha" values="0 0 0 0 0 0 0 0 0 0 0 0 0 0 0 0 0 0 127 0"/><feOffset dy="5"/><feGaussianBlur stdDeviation="3.5"/><feColorMatrix values="0 0 0 0 0 0 0 0 0 0 0 0 0 0 0 0 0 0 0.25 0"/><feBlend in2="BackgroundImageFix" result="effect1_dropShadow"/><feBlend in="SourceGraphic" in2="effect1_dropShadow" result="shape"/></filter><filter id="filter34_d" x="136.775" y="19.047" width="27.994" height="30.461" filterUnits="userSpaceOnUse" color-interpolation-filters="sRGB"><feFlood flood-opacity="0" result="BackgroundImageFix"/><feColorMatrix in="SourceAlpha" values="0 0 0 0 0 0 0 0 0 0 0 0 0 0 0 0 0 0 127 0"/><feOffset dy="5"/><feGaussianBlur stdDeviation="3.5"/><feColorMatrix values="0 0 0 0 0 0 0 0 0 0 0 0 0 0 0 0 0 0 0.25 0"/><feBlend in2="BackgroundImageFix" result="effect1_dropShadow"/><feBlend in="SourceGraphic" in2="effect1_dropShadow" result="shape"/></filter><filter id="filter35_d" x="151.839" y="17.475" width="28.005" height="29.904" filterUnits="userSpaceOnUse" color-interpolation-filters="sRGB"><feFlood flood-opacity="0" result="BackgroundImageFix"/><feColorMatrix in="SourceAlpha" values="0 0 0 0 0 0 0 0 0 0 0 0 0 0 0 0 0 0 127 0"/><feOffset dy="5"/><feGaussianBlur stdDeviation="3.5"/><feColorMatrix values="0 0 0 0 0 0 0 0 0 0 0 0 0 0 0 0 0 0 0.25 0"/><feBlend in2="BackgroundImageFix" result="effect1_dropShadow"/><feBlend in="SourceGraphic" in2="effect1_dropShadow" result="shape"/></filter><filter id="filter36_d" x="200.151" y="16.924" width="32.2" height="34.874" filterUnits="userSpaceOnUse" color-interpolation-filters="sRGB"><feFlood flood-opacity="0" result="BackgroundImageFix"/><feColorMatrix in="SourceAlpha" values="0 0 0 0 0 0 0 0 0 0 0 0 0 0 0 0 0 0 127 0"/><feOffset dy="5"/><feGaussianBlur stdDeviation="3.5"/><feColorMatrix values="0 0 0 0 0 0 0 0 0 0 0 0 0 0 0 0 0 0 0.25 0"/><feBlend in2="BackgroundImageFix" result="effect1_dropShadow"/><feBlend in="SourceGraphic" in2="effect1_dropShadow" result="shape"/></filter><filter id="filter37_d" x="217.457" y="29.281" width="28.677" height="30.751" filterUnits="userSpaceOnUse" color-interpolation-filters="sRGB"><feFlood flood-opacity="0" result="BackgroundImageFix"/><feColorMatrix in="SourceAlpha" values="0 0 0 0 0 0 0 0 0 0 0 0 0 0 0 0 0 0 127 0"/><feOffset dy="5"/><feGaussianBlur stdDeviation="3.5"/><feColorMatrix values="0 0 0 0 0 0 0 0 0 0 0 0 0 0 0 0 0 0 0.25 0"/><feBlend in2="BackgroundImageFix" result="effect1_dropShadow"/><feBlend in="SourceGraphic" in2="effect1_dropShadow" result="shape"/></filter><filter id="filter38_d" x="229.333" y="34.727" width="30.6" height="31.451" filterUnits="userSpaceOnUse" color-interpolation-filters="sRGB"><feFlood flood-opacity="0" result="BackgroundImageFix"/><feColorMatrix in="SourceAlpha" values="0 0 0 0 0 0 0 0 0 0 0 0 0 0 0 0 0 0 127 0"/><feOffset dy="5"/><feGaussianBlur stdDeviation="3.5"/><feColorMatrix values="0 0 0 0 0 0 0 0 0 0 0 0 0 0 0 0 0 0 0.25 0"/><feBlend in2="BackgroundImageFix" result="effect1_dropShadow"/><feBlend in="SourceGraphic" in2="effect1_dropShadow" result="shape"/></filter><filter id="filter39_d" x="241.248" y="42.031" width="35.241" height="35.263" filterUnits="userSpaceOnUse" color-interpolation-filters="sRGB"><feFlood flood-opacity="0" result="BackgroundImageFix"/><feColorMatrix in="SourceAlpha" values="0 0 0 0 0 0 0 0 0 0 0 0 0 0 0 0 0 0 127 0"/><feOffset dy="5"/><feGaussianBlur stdDeviation="3.5"/><feColorMatrix values="0 0 0 0 0 0 0 0 0 0 0 0 0 0 0 0 0 0 0.25 0"/><feBlend in2="BackgroundImageFix" result="effect1_dropShadow"/><feBlend in="SourceGraphic" in2="effect1_dropShadow" result="shape"/></filter><filter id="filter40_d" x="253.519" y="55.28" width="35.79" height="32.409" filterUnits="userSpaceOnUse" color-interpolation-filters="sRGB"><feFlood flood-opacity="0" result="BackgroundImageFix"/><feColorMatrix in="SourceAlpha" values="0 0 0 0 0 0 0 0 0 0 0 0 0 0 0 0 0 0 127 0"/><feOffset dy="5"/><feGaussianBlur stdDeviation="3.5"/><feColorMatrix values="0 0 0 0 0 0 0 0 0 0 0 0 0 0 0 0 0 0 0.25 0"/><feBlend in2="BackgroundImageFix" result="effect1_dropShadow"/><feBlend in="SourceGraphic" in2="effect1_dropShadow" result="shape"/></filter><filter id="filter41_d" x="267.597" y="66.42" width="28.014" height="32.029" filterUnits="userSpaceOnUse" color-interpolation-filters="sRGB"><feFlood flood-opacity="0" result="BackgroundImageFix"/><feColorMatrix in="SourceAlpha" values="0 0 0 0 0 0 0 0 0 0 0 0 0 0 0 0 0 0 127 0"/><feOffset dy="5"/><feGaussianBlur stdDeviation="3.5"/><feColorMatrix values="0 0 0 0 0 0 0 0 0 0 0 0 0 0 0 0 0 0 0.25 0"/><feBlend in2="BackgroundImageFix" result="effect1_dropShadow"/><feBlend in="SourceGraphic" in2="effect1_dropShadow" result="shape"/></filter><filter id="filter42_d" x="280.214" y="78.778" width="31.468" height="29.556" filterUnits="userSpaceOnUse" color-interpolation-filters="sRGB"><feFlood flood-opacity="0" result="BackgroundImageFix"/><feColorMatrix in="SourceAlpha" values="0 0 0 0 0 0 0 0 0 0 0 0 0 0 0 0 0 0 127 0"/><feOffset dy="5"/><feGaussianBlur stdDeviation="3.5"/><feColorMatrix values="0 0 0 0 0 0 0 0 0 0 0 0 0 0 0 0 0 0 0.25 0"/><feBlend in2="BackgroundImageFix" result="effect1_dropShadow"/><feBlend in="SourceGraphic" in2="effect1_dropShadow" result="shape"/></filter><filter id="filter43_d" x="287.025" y="94.313" width="30.908" height="31.395" filterUnits="userSpaceOnUse" color-interpolation-filters="sRGB"><feFlood flood-opacity="0" result="BackgroundImageFix"/><feColorMatrix in="SourceAlpha" values="0 0 0 0 0 0 0 0 0 0 0 0 0 0 0 0 0 0 127 0"/><feOffset dy="5"/><feGaussianBlur stdDeviation="3.5"/><feColorMatrix values="0 0 0 0 0 0 0 0 0 0 0 0 0 0 0 0 0 0 0.25 0"/><feBlend in2="BackgroundImageFix" result="effect1_dropShadow"/><feBlend in="SourceGraphic" in2="effect1_dropShadow" result="shape"/></filter><filter id="filter44_d" x="294.681" y="107.5" width="31.483" height="27.724" filterUnits="userSpaceOnUse" color-interpolation-filters="sRGB"><feFlood flood-opacity="0" result="BackgroundImageFix"/><feColorMatrix in="SourceAlpha" values="0 0 0 0 0 0 0 0 0 0 0 0 0 0 0 0 0 0 127 0"/><feOffset dy="5"/><feGaussianBlur stdDeviation="3.5"/><feColorMatrix values="0 0 0 0 0 0 0 0 0 0 0 0 0 0 0 0 0 0 0.25 0"/><feBlend in2="BackgroundImageFix" result="effect1_dropShadow"/><feBlend in="SourceGraphic" in2="effect1_dropShadow" result="shape"/></filter></defs></svg>