<svg width="162" height="161" fill="none" xmlns="http://www.w3.org/2000/svg"><path d="M157.054 84.773l.293-3.614 1.293.105-.705 8.687-1.293-.105.293-3.614-10.311-.837.118-1.459 10.312.837zm-11.96 9.884c.116-.463.283-.878.501-1.246a3.17 3.17 0 01.739-.895c.299-.234.63-.391.993-.472a2.723 2.723 0 011.222.05c.85.213 1.442.698 1.778 1.457.346.761.373 1.728.079 2.9l-.526 2.098.581.145c.58.146 1.027.075 1.339-.213.31-.276.559-.791.747-1.544a6.27 6.27 0 00.179-1.464 4.983 4.983 0 00-.152-1.445l1.246.159c.094.446.136.937.128 1.472a7.201 7.201 0 01-.215 1.61 6.342 6.342 0 01-.533 1.443c-.216.404-.483.72-.804.948a2.211 2.211 0 01-1.121.439c-.425.053-.923.008-1.493-.134l-5.469-1.372.34-1.355.645.162a2.83 2.83 0 01-.354-1.255 4.774 4.774 0 01.15-1.488zm1.162.428a3.768 3.768 0 00-.094 1.469c.064.473.239.871.524 1.194l2.032.51.51-2.033c.202-.807.205-1.435.009-1.884-.185-.447-.52-.73-1.004-.852-.516-.13-.938-.04-1.266.265-.329.307-.566.75-.711 1.331zm1.77 14.725a3.177 3.177 0 00.567-.9c.227-.554.288-1.068.183-1.543-.095-.47-.336-.892-.722-1.266l-5.509-2.258.529-1.293 7.972 3.267-.529 1.293-.893-.366c.223.391.352.822.388 1.291.03.48-.061.982-.276 1.505-.063.154-.14.314-.232.48-.082.17-.173.319-.273.446l-1.205-.656zm-3.5 9.398l-.711 1.203-6.873-4.06c-1.203-.711-1.909-1.501-2.116-2.37-.208-.87.038-1.897.738-3.08.552-.936 1.239-1.651 2.059-2.145l1.181.813a5.204 5.204 0 00-1.244.83 4.86 4.86 0 00-.97 1.185c-.44.745-.602 1.389-.486 1.934.106.54.565 1.049 1.376 1.528l.373.22a3.244 3.244 0 01-.04-1.24c.075-.432.242-.868.501-1.307a3.894 3.894 0 011.028-1.151 3.999 3.999 0 011.402-.64 4.405 4.405 0 011.634-.02c.579.11 1.165.34 1.756.69.592.35 1.071.748 1.438 1.197.36.457.613.935.757 1.432.148.513.187 1.025.116 1.537a3.7 3.7 0 01-.498 1.464c-.259.439-.56.796-.903 1.07a3.043 3.043 0 01-1.091.572l.573.338zm-1.804-1.065a2.39 2.39 0 001.186-.439 3.01 3.01 0 00.92-1.002c.186-.315.299-.648.339-.998a2.213 2.213 0 00-.093-1.02 2.886 2.886 0 00-.58-.981 4.392 4.392 0 00-1.087-.874 4.385 4.385 0 00-1.29-.53 3.065 3.065 0 00-1.153-.043 2.392 2.392 0 00-.953.403c-.278.209-.51.471-.696.786-.254.43-.398.859-.433 1.289-.041.44.026.86.202 1.26l3.638 2.149zm-6.006 4.021c-.664-.485-1.347-.697-2.05-.636-.702.078-1.331.447-1.887 1.11a5.526 5.526 0 00-.77 1.177 3.32 3.32 0 00-.284 1.347l-1.128-.751c.058-.415.194-.844.407-1.287.206-.435.49-.87.854-1.303.456-.543.948-.948 1.476-1.215a3.948 3.948 0 011.592-.423 4.33 4.33 0 011.619.296c.539.22 1.055.537 1.547.95.519.435.929.895 1.231 1.38a4.25 4.25 0 01.58 1.508c.085.52.055 1.03-.09 1.531a3.851 3.851 0 01-.782 1.449c-.399.476-.841.829-1.324 1.061a3.344 3.344 0 01-1.518.333 3.99 3.99 0 01-1.589-.357 5.96 5.96 0 01-1.573-.972l-.204-.171a2.202 2.202 0 01-.18-.173l4.073-4.854zm-2.236 4.528c.656.478 1.305.704 1.948.68.636-.017 1.19-.305 1.66-.866.47-.56.658-1.155.564-1.785-.094-.629-.434-1.225-1.018-1.788l-3.154 3.759zm-.793 6.351l-1.151 1.032 1.721 1.92-1.041.932-1.721-1.919-1.944 1.743-.799-.892 1.944-1.743-2.753-3.071a6.692 6.692 0 00-.839-.812c-.242-.17-.464-.276-.666-.319a.954.954 0 00-.594.086c-.185.092-.381.23-.588.415a3.708 3.708 0 00-.552.63l-.946-.806c.118-.15.252-.3.402-.449.133-.15.258-.276.374-.38.693-.622 1.377-.922 2.051-.901.673.037 1.351.435 2.031 1.194l3.12 3.48 1.152-1.032.799.892zm-12.895 7.06c.41.736.72 1.464.93 2.185.216.73.303 1.411.262 2.043a4.017 4.017 0 01-.526 1.758c-.314.53-.786.97-1.416 1.321-.629.35-1.247.517-1.854.499a3.833 3.833 0 01-1.771-.48c-.568-.293-1.106-.723-1.613-1.292a10.65 10.65 0 01-1.366-1.942 10.772 10.772 0 01-.939-2.2c-.21-.72-.292-1.404-.247-2.051.042-.633.22-1.214.534-1.744.304-.524.771-.962 1.401-1.313.63-.35 1.253-.519 1.869-.506a4.075 4.075 0 011.763.465c.564.308 1.097.741 1.598 1.3.502.558.96 1.211 1.375 1.957zm-1.337.744c-.712-1.279-1.464-2.174-2.256-2.685-.792-.511-1.58-.549-2.365-.112-.785.437-1.169 1.126-1.152 2.069.017.942.381 2.053 1.093 3.332s1.463 2.174 2.255 2.685c.792.511 1.581.548 2.366.111.784-.437 1.168-1.126 1.152-2.068-.017-.943-.382-2.053-1.093-3.332zm-10.724 4.412l.497 1.341-4.459 1.654-.498-1.341 4.46-1.654zm-8.586 6.591l1.004.914-2.585 2.86-1.352.28-2.356-11.402 1.434-.296 2.002 9.691 1.853-2.047zm-11.414-.304a10.63 10.63 0 01-.194 2.367c-.15.747-.39 1.39-.721 1.93a4.03 4.03 0 01-1.284 1.311c-.525.323-1.148.492-1.868.509-.72.017-1.345-.124-1.873-.422a3.829 3.829 0 01-1.343-1.25c-.367-.524-.643-1.156-.826-1.894a10.647 10.647 0 01-.304-2.356 10.72 10.72 0 01.194-2.383c.15-.736.395-1.379.737-1.931.332-.54.76-.971 1.285-1.294.513-.322 1.13-.492 1.851-.509.72-.016 1.35.124 1.89.422.528.299.976.71 1.343 1.234.356.535.626 1.166.809 1.894.183.728.284 1.519.304 2.372zm-1.53.036c-.033-1.464-.282-2.606-.744-3.427-.463-.821-1.143-1.221-2.041-1.2-.898.02-1.56.452-1.983 1.293-.424.842-.62 1.994-.586 3.458.034 1.463.283 2.605.745 3.426.463.821 1.143 1.222 2.041 1.201.898-.021 1.559-.452 1.983-1.294.424-.842.62-1.994.585-3.457zm-11.601.084a10.631 10.631 0 01-.618 2.293c-.281.708-.633 1.297-1.056 1.769a4.008 4.008 0 01-1.5 1.058c-.574.223-1.217.278-1.929.165-.711-.114-1.3-.364-1.766-.753a3.818 3.818 0 01-1.096-1.471c-.267-.582-.424-1.252-.472-2.012-.049-.749-.007-1.54.125-2.372.135-.843.341-1.613.62-2.309.28-.697.637-1.286 1.073-1.766a3.865 3.865 0 011.497-1.042c.563-.225 1.2-.281 1.912-.167.712.113 1.306.365 1.783.755.466.389.832.874 1.1 1.455.253.591.405 1.26.454 2.009.05.749.007 1.545-.127 2.388zm-1.512-.24c.23-1.446.192-2.614-.115-3.505-.308-.891-.905-1.407-1.792-1.548-.887-.141-1.615.164-2.183.915-.57.752-.969 1.85-1.199 3.296-.23 1.445-.191 2.613.116 3.504s.905 1.407 1.792 1.549c.887.141 1.614-.164 2.183-.916.569-.751.968-1.85 1.198-3.295zm-35.959-8.811l2.916 2.154-.77 1.044-7.01-5.178.77-1.044 2.917 2.154 6.146-8.321 1.177.87-6.146 8.321zm-2.119-15.399c.332.342.597.703.795 1.082.199.364.323.73.373 1.1.041.377 0 .741-.122 1.092-.13.359-.36.696-.685 1.013-.629.61-1.354.859-2.175.745-.83-.106-1.666-.593-2.508-1.46l-1.506-1.551-.43.417c-.43.417-.604.834-.524 1.251.072.409.38.892.92 1.449.324.334.708.641 1.151.922.435.289.871.499 1.308.631l-.79.976a6.636 6.636 0 01-1.32-.666 7.197 7.197 0 01-1.255-1.03 6.333 6.333 0 01-.947-1.213 2.703 2.703 0 01-.383-1.182 2.21 2.21 0 01.218-1.185c.178-.389.478-.789.9-1.198l4.044-3.929.973 1.002-.477.464c.415.014.833.134 1.253.359.413.218.808.522 1.187.911zm-.976.763a3.786 3.786 0 00-1.2-.853 2.198 2.198 0 00-1.29-.183l-1.503 1.46 1.46 1.503c.58.596 1.111.93 1.596.999.478.078.895-.057 1.253-.405.382-.371.529-.776.441-1.217-.087-.44-.34-.875-.757-1.304zm-13.455-6.237a3.137 3.137 0 00.468.955c.352.484.758.806 1.217.966.45.166.936.183 1.456.051l4.816-3.503.821 1.13-6.967 5.068-.822-1.129.78-.568a3.016 3.016 0 01-1.302-.348c-.425-.226-.803-.568-1.136-1.025a4.448 4.448 0 01-.286-.45 2.378 2.378 0 01-.236-.466l1.19-.681zm-6.136-7.854l-.652-1.236 7.06-3.726c1.236-.652 2.278-.839 3.128-.56.849.279 1.594 1.026 2.236 2.242.507.961.757 1.921.748 2.878l-1.312.579a5.189 5.189 0 00-.055-1.494 4.86 4.86 0 00-.5-1.447c-.404-.765-.868-1.241-1.393-1.428-.515-.192-1.19-.068-2.023.372l-.383.202c.38.126.74.331 1.078.616.329.291.612.661.85 1.112.248.471.396.964.442 1.479.036.52-.027 1.03-.19 1.529a4.404 4.404 0 01-.84 1.402c-.397.436-.9.814-1.507 1.135-.608.32-1.199.519-1.773.597a4.207 4.207 0 01-1.616-.106 3.673 3.673 0 01-1.37-.707 3.697 3.697 0 01-.986-1.191 3.874 3.874 0 01-.438-1.329 3.047 3.047 0 01.084-1.23l-.588.311zm1.853-.978a2.374 2.374 0 00-.248 1.24c.015.431.138.867.371 1.309.17.323.395.594.673.811.267.222.573.374.917.456a2.87 2.87 0 001.14.019 4.35 4.35 0 001.313-.467 4.38 4.38 0 001.128-.821 3.07 3.07 0 00.641-.959c.127-.33.179-.671.156-1.023a2.674 2.674 0 00-.305-1.005 3.009 3.009 0 00-.87-1.045 2.506 2.506 0 00-1.18-.487l-3.736 1.972zm-.237-7.12c.76-.312 1.3-.783 1.615-1.414.302-.638.316-1.367.043-2.188a5.489 5.489 0 00-.6-1.273 3.32 3.32 0 00-.998-.947l1.23-.568c.323.267.618.607.884 1.021.263.403.483.873.662 1.41.224.673.312 1.304.262 1.893a3.943 3.943 0 01-.474 1.578 4.33 4.33 0 01-1.1 1.225c-.47.344-1.01.617-1.62.82a5.857 5.857 0 01-1.82.325 4.23 4.23 0 01-1.588-.295 3.44 3.44 0 01-1.256-.879 3.848 3.848 0 01-.826-1.425c-.196-.589-.266-1.15-.21-1.683a3.348 3.348 0 01.511-1.468 4 4 0 011.137-1.167c.47-.343 1.02-.62 1.652-.83l.252-.084c.074-.025.155-.046.242-.063l2.002 6.012zm-2.686-4.277c-.75.308-1.284.743-1.6 1.304-.319.55-.363 1.173-.132 1.867.231.694.64 1.166 1.225 1.415.585.249 1.271.273 2.056.069l-1.55-4.655zm-4.996-4.006l-.273-1.523-2.538.454-.246-1.375 2.538-.454-.46-2.57 1.18-.212.459 2.57 4.06-.725c.47-.084.847-.18 1.132-.287.272-.117.479-.25.621-.399.14-.16.22-.343.24-.55a2.66 2.66 0 00-.044-.718 3.697 3.697 0 00-.245-.801l1.182-.38c.066.18.123.372.171.577.057.193.1.365.127.518.164.917.06 1.657-.313 2.219-.385.553-1.08.92-2.084 1.1l-4.601.822.272 1.523-1.178.21zm.751-14.899a10.646 10.646 0 01-2.347-.367c-.733-.204-1.357-.49-1.872-.86a4.019 4.019 0 01-1.213-1.377c-.283-.547-.407-1.18-.37-1.9.036-.72.222-1.332.558-1.837a3.818 3.818 0 011.345-1.248c.55-.328 1.2-.556 1.95-.685.739-.13 1.53-.173 2.37-.131.853.043 1.641.166 2.364.368.722.203 1.346.495 1.87.877.515.37.914.829 1.197 1.376.284.536.408 1.164.372 1.883-.036.72-.223 1.338-.56 1.854a4.077 4.077 0 01-1.328 1.25c-.56.315-1.21.538-1.948.667-.74.13-1.536.173-2.388.13zm.076-1.528c1.462.073 2.62-.09 3.472-.492.853-.401 1.302-1.05 1.347-1.947.045-.897-.336-1.588-1.145-2.073-.808-.484-1.943-.763-3.405-.837-1.462-.073-2.62.09-3.472.492-.853.401-1.302 1.05-1.347 1.947-.045.897.337 1.588 1.145 2.073.809.485 1.944.764 3.405.837zm1.886-11.355l-1.401-.285.944-4.662 1.402.284-.944 4.663zm-1.116-10.746l-1.305.372L8.6 55.646l.475-1.296 10.931 4.008-.504 1.374-9.291-3.407.763 2.654zm6.263-9.605a10.65 10.65 0 01-1.907-1.416c-.555-.521-.974-1.065-1.257-1.632a4.018 4.018 0 01-.435-1.782c.004-.616.189-1.235.555-1.855.367-.62.816-1.077 1.349-1.367.538-.3 1.128-.46 1.77-.48.64-.035 1.321.065 2.045.3a10.64 10.64 0 012.16.986c.736.434 1.376.91 1.921 1.425.546.515.962 1.064 1.25 1.646.283.566.423 1.157.42 1.774.002.606-.18 1.22-.547 1.84-.366.62-.819 1.081-1.357 1.382a4.078 4.078 0 01-1.756.488c-.643.02-1.322-.085-2.036-.314-.715-.229-1.44-.56-2.175-.995zm.778-1.317c1.26.744 2.361 1.137 3.303 1.178.942.041 1.64-.325 2.098-1.098.456-.774.44-1.563-.05-2.368-.491-.804-1.367-1.58-2.627-2.323-1.26-.745-2.36-1.138-3.302-1.179-.942-.04-1.641.325-2.098 1.098-.457.774-.44 1.563.05 2.368.49.805 1.366 1.58 2.626 2.324zm5.795-9.603a10.65 10.65 0 01-1.624-1.733c-.453-.612-.77-1.222-.947-1.83a4.018 4.018 0 01-.11-1.831c.113-.606.405-1.182.877-1.727.471-.545.994-.913 1.57-1.105a3.817 3.817 0 011.828-.156c.635.08 1.288.299 1.959.659.662.352 1.312.804 1.95 1.355a10.72 10.72 0 011.636 1.744c.445.605.757 1.219.936 1.843a3.87 3.87 0 01.097 1.82c-.106.597-.394 1.169-.866 1.714-.47.545-.998.918-1.58 1.118a4.079 4.079 0 01-1.816.167c-.636-.095-1.285-.319-1.948-.672a10.73 10.73 0 01-1.962-1.366zm1-1.158c1.108.957 2.12 1.54 3.04 1.748.92.208 1.672-.027 2.26-.707.587-.68.711-1.459.372-2.338-.34-.88-1.063-1.798-2.17-2.755-1.107-.957-2.12-1.54-3.04-1.748-.919-.208-1.672.028-2.26.707-.587.68-.71 1.46-.372 2.338.34.88 1.063 1.798 2.17 2.755zm26.222-26.085l-3.36 1.363-.488-1.203 8.077-3.274.487 1.202-3.36 1.363 3.887 9.587-1.356.55-3.887-9.588zm14.166 6.219a4.65 4.65 0 01-1.339.111 3.164 3.164 0 01-1.131-.259 2.455 2.455 0 01-.866-.676c-.237-.3-.405-.671-.504-1.115-.19-.855-.022-1.602.506-2.242.526-.651 1.378-1.108 2.558-1.37l2.11-.47-.13-.585c-.13-.584-.393-.952-.79-1.102-.386-.152-.958-.144-1.716.024a6.29 6.29 0 00-1.389.497c-.474.219-.881.48-1.223.783l-.417-1.185a6.656 6.656 0 011.26-.774 7.2 7.2 0 011.534-.53 6.34 6.34 0 011.53-.17c.457.012.86.11 1.207.294.356.17.654.44.895.806.238.356.421.82.549 1.394l1.225 5.504-1.364.304-.144-.65c-.23.347-.551.64-.963.88a4.773 4.773 0 01-1.398.532zm-.138-1.23a3.78 3.78 0 001.355-.574c.394-.27.672-.603.833-1.003l-.456-2.045-2.045.455c-.812.18-1.375.46-1.688.836-.317.365-.42.792-.312 1.279.116.52.384.857.805 1.013.42.157.924.17 1.508.04zm12.763-8.247a3.156 3.156 0 00-1.058-.106c-.597.044-1.085.219-1.463.524-.378.295-.649.699-.811 1.21l.436 5.94-1.394.101-.63-8.592 1.393-.102.07.962c.25-.374.578-.682.983-.923.416-.242.906-.383 1.47-.425.166-.012.344-.014.533-.005a2.36 2.36 0 01.52.045l-.049 1.37zm9.899-1.097l1.394.097-.554 7.964c-.097 1.394-.487 2.378-1.172 2.953-.685.575-1.713.815-3.085.72-1.084-.076-2.03-.37-2.84-.882l.2-1.42a5.19 5.19 0 001.299.74 4.82 4.82 0 001.493.338c.863.06 1.512-.084 1.948-.431.434-.337.684-.975.75-1.915l.03-.432c-.307.257-.67.454-1.092.591a3.87 3.87 0 01-1.393.136 3.88 3.88 0 01-1.49-.403 4 4 0 01-1.199-.967 4.405 4.405 0 01-.75-1.453c-.16-.567-.216-1.193-.169-1.879.048-.686.19-1.293.427-1.82.248-.528.562-.968.942-1.32a3.67 3.67 0 011.322-.79 3.688 3.688 0 011.532-.211c.509.035.963.145 1.361.328.398.183.732.423 1 .72l.046-.664zm-.145 2.09a2.377 2.377 0 00-.924-.864 3.008 3.008 0 00-1.307-.374 2.492 2.492 0 00-1.044.144c-.33.11-.62.29-.871.54a2.89 2.89 0 00-.617.957c-.16.389-.259.843-.295 1.363-.036.52-.002.984.104 1.391.105.408.264.758.477 1.05.214.282.476.506.787.672.311.155.65.245 1.014.27a3.01 3.01 0 001.348-.189c.41-.16.756-.409 1.035-.745l.293-4.214zm6.19 3.508c-.136.811-.02 1.518.35 2.119.382.593.995.99 1.836 1.19a5.46 5.46 0 001.397.163 3.318 3.318 0 001.332-.35l-.167 1.346a4.407 4.407 0 01-1.333.212 6.14 6.14 0 01-1.547-.181c-.69-.165-1.273-.424-1.747-.776a3.948 3.948 0 01-1.09-1.235 4.333 4.333 0 01-.461-1.58 5.862 5.862 0 01.158-1.81c.157-.658.384-1.23.683-1.717a4.244 4.244 0 011.089-1.194c.427-.309.897-.51 1.41-.604a3.853 3.853 0 011.646.05c.604.145 1.117.381 1.54.71.423.33.75.732.977 1.208.231.465.362.993.393 1.581a6.019 6.019 0 01-.166 1.842l-.062.258a2.015 2.015 0 01-.074.24l-6.164-1.472zm5.05-.026c.135-.8.047-1.482-.263-2.046-.3-.562-.805-.927-1.517-1.097-.712-.17-1.328-.072-1.849.294-.52.366-.901.936-1.143 1.71l4.772 1.14zm6.483-2.013l1.436.575.96-2.392 1.296.52-.959 2.393 2.423.972-.446 1.111-2.423-.972-1.536 3.828a6.657 6.657 0 00-.356 1.112c-.045.292-.043.538.009.738a.946.946 0 00.339.494c.165.126.375.24.633.344.247.099.516.171.809.217l-.304 1.204a4.992 4.992 0 01-.581-.161 4.896 4.896 0 01-.506-.167c-.864-.347-1.436-.827-1.716-1.441-.265-.62-.207-1.404.172-2.35l1.74-4.338-1.435-.576.445-1.111zm11.996 8.379c.48-.692.998-1.29 1.552-1.797.56-.515 1.133-.894 1.719-1.135a4.02 4.02 0 011.81-.302c.614.048 1.217.278 1.809.69.592.41 1.014.892 1.265 1.444.26.559.376 1.16.348 1.802-.012.64-.161 1.311-.449 2.017-.28.695-.661 1.39-1.142 2.082a10.722 10.722 0 01-1.561 1.811c-.554.506-1.132.881-1.733 1.125a3.87 3.87 0 01-1.801.289c-.605-.042-1.203-.269-1.795-.68-.592-.411-1.018-.896-1.278-1.454a4.08 4.08 0 01-.359-1.788c.028-.642.182-1.312.463-2.008s.665-1.394 1.152-2.096zm1.256.873c-.834 1.202-1.307 2.272-1.417 3.208-.11.936.204 1.66.942 2.172.737.512 1.526.553 2.364.123.839-.43 1.676-1.246 2.51-2.448.835-1.202 1.308-2.271 1.418-3.207.11-.937-.204-1.66-.942-2.173-.738-.512-1.526-.553-2.364-.123-.839.43-1.676 1.246-2.511 2.448zm8.668 7.619l.982-1.04 3.46 3.264-.982 1.04-3.46-3.264zm9.704 4.71l.371-1.306 3.713 1.04.852 1.086-9.159 7.188-.904-1.152 7.786-6.11-2.659-.746zm4.825 10.299a10.674 10.674 0 012.205-.882c.735-.2 1.418-.271 2.049-.216a4.02 4.02 0 011.746.565c.523.325.953.807 1.289 1.444.337.638.489 1.26.458 1.865a3.805 3.805 0 01-.52 1.76c-.305.562-.747 1.09-1.326 1.584-.57.489-1.227.93-1.973 1.323-.755.399-1.495.695-2.219.89-.725.194-1.411.261-2.057.201a3.869 3.869 0 01-1.731-.572c-.518-.316-.945-.793-1.281-1.43-.337-.637-.492-1.264-.466-1.88.032-.605.2-1.19.505-1.752.32-.557.765-1.08 1.334-1.569.57-.489 1.232-.932 1.987-1.33zm.715 1.353c-1.295.684-2.206 1.415-2.735 2.196-.528.78-.583 1.568-.164 2.362.42.794 1.1 1.194 2.043 1.197.942.005 2.061-.335 3.355-1.018 1.295-.683 2.206-1.415 2.735-2.195.528-.78.583-1.568.163-2.362-.419-.795-1.1-1.194-2.042-1.198-.943-.004-2.061.335-3.355 1.018zm5.241 10.241c.804-.252 1.58-.407 2.328-.466.759-.062 1.444-.009 2.054.16a4.012 4.012 0 011.614.873c.455.416.79.968 1.005 1.656.214.688.251 1.327.11 1.917a3.822 3.822 0 01-.831 1.636c-.402.497-.933.936-1.593 1.316a10.69 10.69 0 01-2.18.941c-.815.255-1.597.412-2.345.47-.748.06-1.434.001-2.059-.176a3.872 3.872 0 01-1.598-.877c-.452-.405-.785-.952-.999-1.64-.215-.688-.254-1.332-.116-1.933a4.07 4.07 0 01.816-1.63c.416-.49.948-.924 1.597-1.3a10.733 10.733 0 012.197-.947zm.455 1.46c-1.397.436-2.426.99-3.088 1.661-.662.671-.859 1.435-.591 2.293.267.857.864 1.374 1.79 1.55.926.175 2.088.045 3.485-.391 1.397-.436 2.426-.99 3.088-1.661.662-.671.859-1.435.591-2.293-.267-.857-.864-1.374-1.79-1.55-.926-.175-2.087-.045-3.485.391z" fill="#fff"/></svg>