<svg width="184" height="184" fill="none" xmlns="http://www.w3.org/2000/svg"><path d="M178.485 96.852l.335-4.128 1.477.12-.806 9.923-1.477-.12.335-4.128-11.779-.957.135-1.666 11.78.956zm-13.666 11.313a5.312 5.312 0 01.572-1.424 3.62 3.62 0 01.844-1.022 2.789 2.789 0 011.134-.538c.427-.089.893-.071 1.396.056.971.243 1.648.798 2.032 1.665.395.869.425 1.974.089 3.313l-.6 2.396.663.166c.664.167 1.174.085 1.53-.243.354-.316.638-.904.854-1.764a7.238 7.238 0 00.204-1.673 5.66 5.66 0 00-.174-1.65l1.424.181c.107.51.156 1.071.146 1.682a8.289 8.289 0 01-.245 1.838 7.294 7.294 0 01-.61 1.65c-.246.46-.552.821-.918 1.082a2.521 2.521 0 01-1.281.501c-.485.062-1.054.011-1.705-.153l-6.248-1.566.389-1.548.737.185c-.237-.412-.371-.89-.405-1.434a5.465 5.465 0 01.172-1.7zm1.327.489a4.307 4.307 0 00-.107 1.678c.073.54.272.995.598 1.364l2.322.582.582-2.322c.231-.921.235-1.639.011-2.152-.212-.51-.594-.834-1.147-.973-.59-.148-1.072-.047-1.447.303s-.646.857-.812 1.52zm2.016 16.84c.121-.129.24-.285.357-.47.116-.185.213-.371.29-.559.26-.633.329-1.22.209-1.762-.108-.537-.383-1.019-.824-1.447l-6.294-2.579.605-1.477 9.107 3.732-.605 1.477-1.02-.418c.255.447.403.939.443 1.475.035.549-.069 1.122-.314 1.72a5.344 5.344 0 01-.266.548 2.733 2.733 0 01-.311.509l-1.377-.749zm-4.007 10.754l-.812 1.374-7.852-4.639c-1.374-.812-2.18-1.714-2.417-2.707-.237-.994.044-2.167.843-3.519.631-1.069 1.415-1.885 2.352-2.45l1.349.929a5.953 5.953 0 00-1.421.948c-.429.379-.799.83-1.108 1.354-.503.85-.688 1.587-.555 2.209.121.617.645 1.198 1.572 1.746l.426.251a3.718 3.718 0 01-.046-1.417c.086-.494.277-.991.573-1.493.31-.523.701-.962 1.174-1.315a4.576 4.576 0 011.602-.731 5.032 5.032 0 011.867-.022c.661.126 1.33.388 2.006.788.676.399 1.223.855 1.642 1.367.412.523.7 1.068.865 1.636.169.586.213 1.171.132 1.756a4.24 4.24 0 01-.568 1.672 4.43 4.43 0 01-1.032 1.222 3.458 3.458 0 01-1.246.654l.654.387zm-2.061-1.218a2.72 2.72 0 001.355-.501c.411-.272.761-.654 1.051-1.145.213-.36.342-.74.387-1.14a2.525 2.525 0 00-.106-1.165 3.268 3.268 0 00-.663-1.12c-.315-.363-.729-.696-1.241-.998-.513-.303-1.004-.505-1.474-.606a3.503 3.503 0 00-1.317-.05 2.73 2.73 0 00-1.088.46 3.055 3.055 0 00-.796.899c-.29.491-.455.981-.495 1.473-.046.502.031.981.232 1.438l4.155 2.455zm-6.873 4.612c-.759-.554-1.54-.796-2.343-.726-.801.088-1.52.511-2.155 1.267a6.292 6.292 0 00-.88 1.345 3.785 3.785 0 00-.324 1.539l-1.289-.858c.067-.474.222-.964.465-1.471.235-.497.56-.993.976-1.487.521-.621 1.083-1.084 1.685-1.389a4.52 4.52 0 011.819-.482c.62-.01 1.237.103 1.85.337a6.705 6.705 0 011.768 1.086c.592.497 1.06 1.022 1.405 1.576.347.572.568 1.146.663 1.722a3.928 3.928 0 01-.103 1.749 4.401 4.401 0 01-.893 1.656c-.456.544-.961.947-1.513 1.211a3.807 3.807 0 01-1.733.381c-.594-.002-1.199-.138-1.816-.407a6.829 6.829 0 01-1.797-1.111l-.232-.195a2.215 2.215 0 01-.206-.198l4.653-5.545zm-2.555 5.173c.749.545 1.491.804 2.225.776.727-.019 1.359-.348 1.897-.989.537-.64.752-1.32.644-2.038-.108-.719-.496-1.4-1.163-2.043l-3.603 4.294zm-.919 7.268l-1.316 1.18 1.966 2.192-1.188 1.066-1.966-2.193-2.221 1.991-.913-1.018 2.221-1.992-3.146-3.508a7.494 7.494 0 00-.958-.927c-.277-.195-.53-.316-.761-.364a1.088 1.088 0 00-.678.097 3.04 3.04 0 00-.671.475 4.201 4.201 0 00-.632.719l-1.08-.92a5.61 5.61 0 01.459-.513c.153-.172.295-.316.427-.435.792-.71 1.574-1.053 2.344-1.029.769.042 1.542.497 2.32 1.365l3.564 3.975 1.316-1.18.913 1.019zm-14.755 8.083c.468.841.822 1.673 1.062 2.496.247.834.347 1.612.299 2.334a4.582 4.582 0 01-.6 2.008c-.359.606-.898 1.109-1.617 1.509-.72.4-1.426.59-2.119.57a4.354 4.354 0 01-2.023-.549c-.649-.334-1.264-.825-1.842-1.475a12.1 12.1 0 01-1.561-2.219 12.169 12.169 0 01-1.072-2.512c-.241-.823-.335-1.604-.283-2.344a4.428 4.428 0 01.61-1.992c.348-.599.881-1.099 1.601-1.499.719-.401 1.431-.594 2.135-.579.692.02 1.363.197 2.013.532.645.351 1.254.846 1.826 1.484a12.24 12.24 0 011.571 2.236zm-1.528.85c-.813-1.461-1.672-2.484-2.576-3.068-.905-.583-1.806-.626-2.702-.127-.897.499-1.335 1.287-1.316 2.363.019 1.077.435 2.345 1.248 3.806.813 1.461 1.672 2.484 2.577 3.068.904.583 1.805.626 2.701.127.897-.499 1.336-1.287 1.316-2.363-.019-1.077-.435-2.345-1.248-3.806zm-12.27 5.048l.569 1.532-5.095 1.89-.568-1.532 5.094-1.89zm-9.827 7.536l1.147 1.043-2.953 3.268-1.544.319-2.691-13.024 1.637-.339 2.287 11.071 2.117-2.338zm-13.063-.345c.022.963-.052 1.864-.222 2.704-.17.853-.445 1.588-.824 2.205-.39.63-.88 1.129-1.466 1.497-.6.369-1.311.563-2.134.582-.823.019-1.537-.142-2.14-.483a4.351 4.351 0 01-1.535-1.428c-.419-.598-.733-1.319-.943-2.163a12.17 12.17 0 01-.347-2.691 12.25 12.25 0 01.222-2.723c.17-.84.45-1.575.842-2.205a4.412 4.412 0 011.467-1.478c.587-.369 1.292-.562 2.115-.581.823-.019 1.543.141 2.159.482.603.341 1.114.81 1.534 1.409.407.611.715 1.332.924 2.164.21.831.325 1.734.348 2.709zm-1.748.041c-.038-1.672-.322-2.976-.85-3.914-.529-.938-1.306-1.396-2.332-1.372-1.025.024-1.78.517-2.265 1.478-.485.962-.708 2.278-.669 3.95.039 1.671.323 2.976.851 3.914.529.938 1.306 1.395 2.331 1.371 1.026-.023 1.781-.516 2.266-1.478.484-.961.707-2.278.668-3.949zm-13.277.095c-.152.95-.387 1.824-.706 2.619-.321.809-.723 1.482-1.207 2.021a4.6 4.6 0 01-1.712 1.209c-.656.254-1.39.317-2.204.188-.813-.13-1.486-.416-2.018-.86a4.36 4.36 0 01-1.252-1.681c-.305-.664-.484-1.43-.539-2.298a12.167 12.167 0 01.143-2.71c.153-.963.39-1.842.709-2.638.319-.796.727-1.468 1.225-2.017a4.423 4.423 0 011.71-1.191c.643-.256 1.371-.32 2.184-.19.814.129 1.493.417 2.037.863.532.443.95.997 1.256 1.662.29.674.463 1.439.52 2.295.055.855.007 1.765-.146 2.728zm-1.727-.275c.263-1.651.219-2.986-.132-4.004-.351-1.017-1.033-1.607-2.046-1.768-1.014-.162-1.845.187-2.495 1.046-.65.858-1.106 2.113-1.369 3.764-.263 1.651-.218 2.986.133 4.004.35 1.018 1.033 1.607 2.046 1.768 1.013.162 1.845-.187 2.495-1.045.65-.859 1.106-2.114 1.368-3.765zm-41.138-10.09l3.332 2.461-.88 1.192-8.009-5.915.88-1.192 3.332 2.461 7.022-9.506 1.345.993-7.022 9.506zm-2.437-17.605c.38.391.682.803.909 1.236.227.415.368.834.425 1.256.047.43.001.846-.139 1.247-.15.41-.41.796-.783 1.158-.718.697-1.546.981-2.484.851-.948-.122-1.903-.677-2.865-1.668l-1.721-1.772-.49.477c-.491.477-.69.953-.6 1.429.084.467.434 1.019 1.052 1.655.37.381.809.732 1.315 1.053.496.33.995.57 1.494.721l-.903 1.115a7.587 7.587 0 01-1.507-.761 8.227 8.227 0 01-1.434-1.176 7.282 7.282 0 01-1.082-1.386c-.262-.452-.408-.902-.437-1.35-.047-.449.035-.9.248-1.354.203-.445.546-.901 1.027-1.369l4.62-4.488 1.113 1.145-.545.53c.474.016.951.152 1.431.41a5.48 5.48 0 011.356 1.041zm-1.115.871a4.32 4.32 0 00-1.37-.974c-.498-.222-.99-.292-1.474-.21l-1.718 1.668 1.668 1.718c.662.681 1.27 1.062 1.824 1.141.546.089 1.023-.066 1.431-.463.437-.423.605-.887.504-1.39-.1-.503-.388-1-.865-1.49zm-15.382-7.139a3.64 3.64 0 00.535 1.091c.402.553.865.92 1.39 1.103.514.19 1.068.209 1.663.058l5.5-4.001.94 1.291-7.96 5.789-.938-1.29.891-.649a3.456 3.456 0 01-1.488-.397c-.485-.258-.918-.649-1.298-1.171a5.26 5.26 0 01-.326-.514 2.742 2.742 0 01-.27-.532l1.36-.778zm-7.02-8.989l-.746-1.412 8.066-4.257c1.412-.744 2.602-.958 3.573-.639.97.319 1.822 1.173 2.555 2.562.58 1.097.864 2.193.854 3.287l-1.498.662c.06-.591.04-1.16-.063-1.707a5.54 5.54 0 00-.572-1.653c-.461-.874-.992-1.418-1.591-1.631-.589-.22-1.36-.078-2.311.425l-.437.23c.434.144.844.378 1.23.704.376.332.7.755.972 1.271.284.537.452 1.1.505 1.688a4.565 4.565 0 01-.217 1.747 5.02 5.02 0 01-.96 1.602c-.453.497-1.027.929-1.722 1.296-.694.367-1.37.594-2.024.682a4.81 4.81 0 01-1.847-.121 4.202 4.202 0 01-1.565-.807 4.225 4.225 0 01-1.126-1.361 4.423 4.423 0 01-.501-1.518 3.48 3.48 0 01.096-1.405l-.672.355zm2.117-1.118c-.223.447-.317.92-.284 1.417.017.493.158.991.424 1.495.195.37.451.679.768.927.306.254.656.428 1.049.521.393.093.826.101 1.3.022.475-.078.975-.256 1.502-.534.526-.278.956-.591 1.288-.938.332-.347.576-.712.732-1.095.145-.377.204-.767.179-1.169a3.055 3.055 0 00-.349-1.148c-.266-.504-.597-.902-.995-1.193a2.856 2.856 0 00-1.346-.557l-4.268 2.252zm-.28-8.153c.87-.356 1.484-.895 1.845-1.615.345-.729.361-1.562.049-2.5a6.267 6.267 0 00-.684-1.454 3.791 3.791 0 00-1.142-1.082l1.407-.648a5.03 5.03 0 011.009 1.166c.3.46.552.997.756 1.61.256.769.356 1.49.3 2.163a4.51 4.51 0 01-.542 1.803 4.951 4.951 0 01-1.256 1.399 6.733 6.733 0 01-1.851.937c-.733.244-1.426.367-2.08.371-.668-.004-1.273-.116-1.814-.337a3.923 3.923 0 01-1.435-1.004 4.406 4.406 0 01-.943-1.629c-.224-.673-.304-1.313-.24-1.922a3.814 3.814 0 01.584-1.676c.313-.505.745-.949 1.299-1.334a6.835 6.835 0 011.886-.948l.289-.096c.084-.028.176-.052.276-.072l2.287 6.868zm-3.069-4.886c-.857.352-1.466.849-1.827 1.489-.364.629-.415 1.34-.15 2.133.263.794.73 1.333 1.399 1.617.668.285 1.452.311 2.349.079l-1.77-5.318zm-5.712-4.596l-.311-1.739-2.9.519-.28-1.571 2.899-.519-.525-2.936 1.346-.241.526 2.936 4.638-.83a7.531 7.531 0 001.292-.327c.311-.133.548-.285.71-.455a1.09 1.09 0 00.274-.628c.022-.236.005-.51-.05-.821a4.195 4.195 0 00-.28-.915l1.35-.435c.076.205.141.425.196.66.065.22.113.417.144.592.188 1.047.069 1.892-.357 2.534-.44.632-1.234 1.051-2.38 1.256l-5.256.94.31 1.74-1.346.24zm.856-17.05a12.153 12.153 0 01-2.68-.42c-.838-.232-1.551-.56-2.139-.982a4.592 4.592 0 01-1.385-1.572c-.324-.626-.465-1.35-.424-2.171.041-.823.254-1.522.638-2.1a4.36 4.36 0 011.536-1.425c.628-.374 1.37-.635 2.227-.782a12.153 12.153 0 012.71-.15c.973.05 1.873.19 2.699.421.825.232 1.537.566 2.137 1.002a4.42 4.42 0 011.367 1.571c.324.613.466 1.33.425 2.152-.042.823-.255 1.528-.64 2.118a4.658 4.658 0 01-1.517 1.427c-.64.36-1.381.615-2.226.763-.844.148-1.754.197-2.728.148zm.088-1.745c1.67.084 2.992-.104 3.966-.562.974-.459 1.487-1.2 1.538-2.225.052-1.025-.384-1.814-1.307-2.367-.924-.554-2.22-.873-3.89-.957-1.67-.084-2.992.104-3.966.562-.975.459-1.488 1.2-1.539 2.225-.051 1.025.385 1.814 1.308 2.367.923.554 2.22.873 3.89.957zm2.157-12.993l-1.602-.324 1.08-5.326 1.601.325-1.08 5.325zm-1.27-12.294l-1.491.424-1.22-4.232.542-1.48 12.487 4.578-.576 1.57-10.613-3.892.871 3.032zm7.165-10.995a12.16 12.16 0 01-2.178-1.618c-.634-.595-1.113-1.216-1.436-1.864a4.592 4.592 0 01-.497-2.036c.004-.704.216-1.41.634-2.12.42-.708.933-1.228 1.54-1.56a4.36 4.36 0 012.024-.549c.73-.04 1.508.074 2.335.343.817.261 1.64.637 2.468 1.127.84.495 1.571 1.038 2.195 1.627.623.589 1.098 1.215 1.427 1.88a4.42 4.42 0 01.48 2.027c.002.693-.206 1.394-.625 2.102-.419.71-.935 1.235-1.55 1.579a4.658 4.658 0 01-2.007.557c-.734.023-1.509-.097-2.325-.358a12.256 12.256 0 01-2.485-1.137zm.89-1.505c1.439.85 2.697 1.3 3.772 1.346 1.076.047 1.875-.371 2.396-1.255.522-.883.503-1.784-.057-2.704-.56-.92-1.56-1.804-3-2.654-1.44-.85-2.697-1.3-3.773-1.347-1.075-.047-1.874.372-2.396 1.255-.522.883-.503 1.785.058 2.704.56.92 1.56 1.805 3 2.655zm6.633-10.989a12.162 12.162 0 01-1.855-1.98c-.518-.699-.879-1.396-1.082-2.09a4.593 4.593 0 01-.125-2.093c.129-.691.463-1.349 1-1.972.54-.623 1.137-1.044 1.795-1.262a4.361 4.361 0 012.088-.179c.725.09 1.471.342 2.237.753.757.403 1.5.92 2.228 1.549a12.25 12.25 0 011.87 1.992c.508.69.864 1.392 1.069 2.104.203.695.24 1.388.11 2.08-.12.683-.45 1.335-.988 1.958-.539.623-1.14 1.048-1.807 1.277a4.659 4.659 0 01-2.074.191c-.726-.109-1.468-.365-2.225-.767a12.257 12.257 0 01-2.241-1.561zm1.142-1.323c1.265 1.093 2.423 1.759 3.473 1.997 1.05.238 1.91-.032 2.582-.808.67-.776.812-1.667.425-2.671-.388-1.005-1.214-2.053-2.479-3.147-1.265-1.093-2.423-1.759-3.473-1.996-1.05-.238-1.91.03-2.581.807-.671.776-.813 1.667-.425 2.671.387 1.005 1.213 2.054 2.478 3.147zm30.007-29.835l-3.839 1.556-.557-1.373 9.227-3.74.557 1.373-3.839 1.556 4.44 10.952-1.549.628-4.44-10.952zm16.204 7.098a5.313 5.313 0 01-1.53.126 3.615 3.615 0 01-1.292-.296 2.803 2.803 0 01-.99-.772c-.27-.342-.462-.767-.575-1.274-.217-.977-.024-1.83.579-2.562.6-.743 1.574-1.265 2.921-1.565l2.411-.536-.148-.668c-.149-.668-.45-1.087-.903-1.259-.441-.174-1.095-.165-1.96.027a7.189 7.189 0 00-1.587.568 5.668 5.668 0 00-1.397.895l-.476-1.354c.408-.324.887-.62 1.438-.885a8.223 8.223 0 011.753-.604 7.243 7.243 0 011.748-.194c.522.013.982.125 1.379.335.406.195.747.502 1.022.92.272.407.481.938.627 1.594l1.4 6.287-1.558.347-.165-.742c-.263.396-.63.73-1.1 1.004-.46.27-.992.473-1.597.608zm-.157-1.405a4.319 4.319 0 001.547-.656c.45-.308.768-.69.952-1.146l-.52-2.337-2.337.52c-.928.206-1.57.525-1.929.955-.361.418-.48.905-.356 1.461.132.594.439.98.92 1.158.48.178 1.055.193 1.723.045zM87.83 8.95a3.606 3.606 0 00-1.21-.12c-.681.05-1.238.249-1.67.598-.432.337-.741.798-.927 1.383l.498 6.784-1.592.117-.72-9.816 1.591-.117.081 1.099c.286-.427.66-.779 1.123-1.054.475-.276 1.035-.438 1.679-.485.19-.014.392-.016.61-.007.215-.003.413.014.593.052L87.83 8.95zm11.328-1.253l1.592.11-.633 9.099c-.111 1.592-.557 2.716-1.34 3.373-.781.657-1.956.93-3.523.822-1.238-.087-2.32-.422-3.244-1.007l.227-1.622c.47.363.965.645 1.484.846a5.55 5.55 0 001.707.385c.985.069 1.727-.095 2.224-.493.497-.384.782-1.113.857-2.188l.034-.492c-.35.293-.766.518-1.247.675-.48.144-1.01.196-1.591.156a4.432 4.432 0 01-1.701-.461 4.567 4.567 0 01-1.37-1.105 5.034 5.034 0 01-.857-1.66c-.183-.647-.248-1.363-.193-2.146.054-.784.217-1.477.487-2.08a4.805 4.805 0 011.076-1.506 4.194 4.194 0 011.51-.905 4.231 4.231 0 011.75-.24c.582.04 1.1.166 1.555.375.456.21.836.483 1.143.822l.053-.758zm-.166 2.388a2.715 2.715 0 00-1.056-.987c-.427-.246-.925-.388-1.493-.428a2.846 2.846 0 00-1.193.165 2.537 2.537 0 00-.995.616c-.286.285-.521.65-.704 1.094-.184.444-.296.963-.337 1.557-.042.594-.002 1.124.118 1.59.12.465.301.865.545 1.199.244.322.544.578.899.767.356.177.742.28 1.16.31.568.039 1.08-.033 1.538-.217.47-.183.864-.467 1.183-.851l.335-4.815zm7.093 4.011c-.156.926-.023 1.733.399 2.42.438.677 1.137 1.13 2.098 1.36a6.269 6.269 0 001.596.185 3.798 3.798 0 001.522-.399l-.191 1.537a5.021 5.021 0 01-1.523.242 6.961 6.961 0 01-1.767-.207c-.789-.188-1.454-.483-1.996-.886-.53-.4-.945-.87-1.246-1.41a4.95 4.95 0 01-.526-1.806c-.05-.663.01-1.352.181-2.067.179-.751.439-1.405.78-1.962a4.866 4.866 0 011.244-1.364 3.93 3.93 0 011.61-.69 4.402 4.402 0 011.881.058c.69.165 1.276.435 1.76.81.483.377.855.837 1.116 1.38.264.532.413 1.134.448 1.807a6.845 6.845 0 01-.189 2.104 30.96 30.96 0 00-.071.295 2.36 2.36 0 01-.085.273l-7.041-1.68zm5.769-.03c.153-.914.053-1.693-.301-2.338-.342-.641-.919-1.06-1.733-1.253-.813-.194-1.517-.082-2.111.336-.595.418-1.03 1.07-1.306 1.954l5.451 1.301zm7.425-2.294l1.64.657 1.096-2.733 1.482.594-1.097 2.734 2.769 1.11-.509 1.27-2.769-1.11-1.754 4.372a7.578 7.578 0 00-.407 1.27c-.052.334-.049.615.01.844.07.232.199.42.387.564.188.144.429.275.723.393.282.113.59.196.924.248l-.347 1.375a5.647 5.647 0 01-.663-.184 5.53 5.53 0 01-.578-.19c-.988-.397-1.641-.946-1.96-1.647-.303-.708-.238-1.603.196-2.685l1.988-4.955-1.64-.658.509-1.27zm13.73 9.587a12.15 12.15 0 011.773-2.054c.64-.588 1.295-1.02 1.964-1.296a4.592 4.592 0 012.067-.346c.702.056 1.391.319 2.067.788.677.47 1.158 1.02 1.445 1.65.297.639.43 1.325.398 2.059-.014.73-.185 1.498-.513 2.304-.32.795-.755 1.588-1.304 2.378a12.275 12.275 0 01-1.784 2.07c-.633.578-1.293 1.006-1.98 1.285a4.418 4.418 0 01-2.056.33c-.692-.048-1.376-.307-2.052-.777-.676-.47-1.163-1.023-1.46-1.661a4.653 4.653 0 01-.409-2.043c.031-.733.207-1.498.528-2.293.321-.795.76-1.593 1.316-2.394zm1.436.997c-.954 1.373-1.494 2.595-1.619 3.664-.126 1.07.232 1.896 1.075 2.482.843.585 1.743.632 2.701.14.958-.49 1.914-1.423 2.868-2.797.954-1.373 1.493-2.594 1.619-3.664.126-1.069-.233-1.896-1.076-2.481-.842-.585-1.743-.633-2.701-.141-.958.491-1.914 1.424-2.867 2.797zm9.917 8.716l1.121-1.188 3.953 3.729-1.122 1.188-3.952-3.729zm11.099 5.395l.423-1.492 4.242 1.189.973 1.24-10.463 8.211-1.032-1.315 8.894-6.98-3.037-.853zm5.525 11.786c.852-.45 1.691-.785 2.519-1.007.84-.228 1.62-.31 2.341-.247a4.589 4.589 0 011.994.645c.598.372 1.088.922 1.473 1.65.384.728.558 1.438.523 2.13a4.359 4.359 0 01-.594 2.01c-.348.643-.853 1.246-1.515 1.81a12.182 12.182 0 01-2.253 1.512c-.863.455-1.708.794-2.536 1.016-.828.222-1.611.299-2.349.23a4.419 4.419 0 01-1.978-.654c-.592-.36-1.08-.905-1.464-1.633-.384-.728-.561-1.444-.531-2.147a4.64 4.64 0 01.576-2.002c.366-.637.874-1.234 1.524-1.793a12.282 12.282 0 012.27-1.52zm.816 1.546c-1.479.78-2.52 1.617-3.123 2.508-.604.892-.666 1.79-.188 2.698.479.908 1.257 1.364 2.334 1.368 1.076.005 2.354-.383 3.833-1.163 1.478-.78 2.52-1.617 3.123-2.508.604-.892.666-1.791.187-2.698-.478-.908-1.256-1.364-2.333-1.368-1.076-.005-2.354.383-3.833 1.163zm5.997 11.721a12.157 12.157 0 012.66-.532c.867-.071 1.649-.01 2.346.184a4.587 4.587 0 011.844.997c.52.474.902 1.105 1.148 1.89.245.787.287 1.516.126 2.19a4.363 4.363 0 01-.95 1.87c-.459.567-1.066 1.068-1.82 1.502-.741.43-1.571.79-2.49 1.076-.931.29-1.824.47-2.679.538-.854.067-1.638 0-2.351-.202a4.418 4.418 0 01-1.826-1.003c-.516-.462-.897-1.087-1.142-1.873-.245-.785-.289-1.522-.132-2.208a4.667 4.667 0 01.932-1.863c.475-.56 1.084-1.054 1.825-1.485a12.27 12.27 0 012.509-1.081zm.521 1.668c-1.596.498-2.772 1.13-3.528 1.897-.756.767-.981 1.64-.676 2.62.306.979.988 1.57 2.045 1.77 1.058.2 2.385.052 3.981-.446s2.772-1.13 3.528-1.897c.756-.767.981-1.64.676-2.62-.306-.98-.988-1.57-2.046-1.77-1.057-.2-2.384-.052-3.98.446zm-23.739 35.03l.494-4.112 1.472.176-1.187 9.885-1.471-.176.493-4.113-11.734-1.408.2-1.66 11.733 1.408zm-14.048 8.185a5.3 5.3 0 01.735-1.347 3.62 3.62 0 01.957-.917c.37-.225.767-.359 1.189-.402.435-.038.895.035 1.38.219.936.355 1.544.985 1.823 1.891.292.91.192 2.01-.298 3.301l-.876 2.309.64.243c.639.242 1.155.222 1.548-.063.388-.273.739-.824 1.054-1.653a7.2 7.2 0 00.397-1.637 5.65 5.65 0 00.02-1.659l1.393.346c.047.519.03 1.081-.051 1.688a8.231 8.231 0 01-.458 1.797 7.266 7.266 0 01-.798 1.567c-.299.428-.644.751-1.038.967-.387.233-.83.349-1.331.349-.49.004-1.048-.113-1.676-.352l-6.022-2.285.567-1.492.71.269a3.233 3.233 0 01-.234-1.47 5.458 5.458 0 01.369-1.669zm1.26.641a4.334 4.334 0 00-.302 1.653c.01.546.155 1.021.435 1.425l2.238.85.849-2.239c.338-.888.425-1.6.262-2.136-.15-.531-.492-.898-1.025-1.1-.568-.216-1.059-.172-1.473.132-.413.304-.741.775-.984 1.415zm.308 14.844c.142-.105.287-.237.435-.398.149-.161.277-.326.387-.497.369-.576.544-1.141.523-1.696-.009-.548-.193-1.071-.549-1.571l-5.726-3.672.862-1.344 8.284 5.314-.861 1.343-.928-.595c.17.486.227.996.169 1.531-.064.546-.27 1.091-.619 1.634-.103.16-.223.324-.36.492-.127.174-.26.322-.398.444l-1.219-.985zm-5.558 8.372l-1.12 1.136-6.496-6.401c-1.136-1.121-1.7-2.192-1.689-3.213.01-1.021.567-2.091 1.67-3.209.871-.885 1.829-1.487 2.875-1.808l1.084 1.228a5.933 5.933 0 00-1.608.576 5.52 5.52 0 00-1.403 1.045c-.694.703-1.052 1.373-1.074 2.009-.031.628.336 1.319 1.103 2.075l.352.347a3.72 3.72 0 01.299-1.386c.203-.459.509-.895.918-1.31a4.425 4.425 0 011.457-.992 4.558 4.558 0 011.731-.321c.6.022 1.206.166 1.817.43.611.282 1.196.699 1.755 1.25.56.551.98 1.126 1.262 1.724a4.8 4.8 0 01.443 1.797 4.18 4.18 0 01-.296 1.735 4.23 4.23 0 01-.957 1.485 4.445 4.445 0 01-1.296.937c-.455.209-.911.32-1.368.332l.541.534zm-1.705-1.681c.493.077.972.024 1.437-.158.464-.165.896-.45 1.297-.856.293-.298.51-.635.65-1.012.15-.369.21-.754.18-1.157a3.289 3.289 0 00-.372-1.247c-.218-.428-.539-.851-.963-1.269-.424-.418-.852-.733-1.283-.945a3.496 3.496 0 00-1.266-.367 2.732 2.732 0 00-1.167.183 3.058 3.058 0 00-.989.679c-.401.406-.68.843-.837 1.31a2.861 2.861 0 00-.124 1.452l3.437 3.387zm-6.333 1.082c-.546-.765-1.211-1.24-1.995-1.427-.788-.169-1.603.006-2.444.524a6.252 6.252 0 00-1.26.998 3.791 3.791 0 00-.792 1.359l-.953-1.221c.212-.428.514-.845.905-1.249.38-.397.845-.766 1.395-1.104.69-.425 1.369-.687 2.037-.786a4.496 4.496 0 011.878.115 4.935 4.935 0 011.65.903c.505.433.95.962 1.335 1.588.405.658.684 1.304.837 1.939.149.652.177 1.266.086 1.843a3.92 3.92 0 01-.649 1.627 4.4 4.4 0 01-1.37 1.29c-.604.372-1.21.596-1.817.673a3.822 3.822 0 01-1.765-.185c-.563-.189-1.094-.509-1.595-.959a6.834 6.834 0 01-1.355-1.62 58.846 58.846 0 00-.159-.259 2.207 2.207 0 01-.133-.253l6.164-3.796zm-4.056 4.104c.539.754 1.162 1.234 1.868 1.438.695.212 1.399.098 2.111-.34.712-.438 1.13-1.016 1.254-1.732.124-.716-.029-1.484-.46-2.305l-4.773 2.939zm-1.624 5.526l-1.663.595.993 2.773-1.503.538-.993-2.772-2.808 1.005-.461-1.287 2.808-1.006-1.589-4.436c-.184-.513-.363-.92-.538-1.22-.182-.285-.371-.493-.567-.625a1.084 1.084 0 00-.664-.165 3.058 3.058 0 00-.801.186 4.193 4.193 0 00-.856.427l-.653-1.259a5.55 5.55 0 01.618-.302c.206-.101.393-.181.56-.241 1.001-.359 1.854-.382 2.558-.069.697.329 1.241 1.042 1.634 2.139l1.801 5.027 1.663-.596.461 1.288zm-14.528.879a12.24 12.24 0 01-.254 2.701c-.18.851-.463 1.583-.849 2.195a4.591 4.591 0 01-1.484 1.481c-.604.361-1.317.547-2.14.556-.824.01-1.535-.159-2.134-.507a4.363 4.363 0 01-1.518-1.445c-.413-.604-.719-1.329-.919-2.175a12.16 12.16 0 01-.316-2.694c-.011-.976.073-1.882.254-2.721.18-.838.47-1.569.867-2.195a4.426 4.426 0 011.485-1.461c.59-.362 1.298-.547 2.121-.557.824-.009 1.541.16 2.153.507.6.348 1.106.824 1.518 1.427.4.616.7 1.341.9 2.175.199.833.304 1.738.316 2.713zm-1.748.02c-.02-1.671-.288-2.979-.806-3.924-.517-.944-1.29-1.41-2.315-1.398-1.026.012-1.787.496-2.282 1.452-.496.956-.734 2.269-.715 3.941.02 1.672.288 2.98.806 3.924.517.944 1.289 1.41 2.315 1.398 1.026-.011 1.787-.495 2.282-1.451.496-.956.734-2.27.715-3.942zm-10.981-1.546l-.343 1.598-5.313-1.14.343-1.598 5.313 1.14zm-10.996 1.175l.306 1.52-4.314.885-1.434-.657 5.544-12.09 1.52.697-4.712 10.276 3.09-.631zm-8.23-7.158c-.616.74-1.265 1.37-1.946 1.891-.689.531-1.379.904-2.07 1.12a4.591 4.591 0 01-2.09.163c-.694-.117-1.357-.438-1.99-.965-.632-.527-1.064-1.117-1.294-1.771a4.362 4.362 0 01-.217-2.085c.078-.726.315-1.476.712-2.25.39-.764.892-1.516 1.508-2.256a12.277 12.277 0 011.958-1.905c.68-.521 1.376-.89 2.084-1.107a4.413 4.413 0 012.078-.149c.684.108 1.343.426 1.975.953.633.527 1.07 1.121 1.31 1.783.23.653.306 1.344.229 2.07-.096.728-.338 1.474-.727 2.238a12.233 12.233 0 01-1.52 2.27zm-1.343-1.118c1.07-1.285 1.714-2.454 1.933-3.509.219-1.054-.066-1.909-.854-2.566-.789-.657-1.681-.782-2.679-.376-.997.405-2.03 1.25-3.1 2.535-1.071 1.285-1.715 2.454-1.934 3.509-.219 1.054.066 1.909.854 2.566.789.656 1.681.782 2.679.376.997-.405 2.03-1.251 3.1-2.535zm-8.046-7.047a12.12 12.12 0 01-2.37 1.322c-.802.334-1.566.516-2.289.546a4.6 4.6 0 01-2.06-.384c-.64-.292-1.198-.775-1.673-1.448-.474-.672-.738-1.354-.791-2.045a4.36 4.36 0 01.33-2.07c.263-.682.687-1.345 1.271-1.989a12.167 12.167 0 012.04-1.788 12.228 12.228 0 012.385-1.333c.793-.327 1.56-.503 2.3-.53a4.432 4.432 0 012.046.394c.632.283 1.186.76 1.66 1.433.475.673.743 1.36.803 2.061a4.66 4.66 0 01-.314 2.059c-.281.678-.709 1.336-1.282 1.973a12.207 12.207 0 01-2.056 1.799zm-1.008-1.428c1.367-.964 2.292-1.926 2.776-2.888.485-.962.43-1.862-.16-2.7-.592-.839-1.422-1.191-2.49-1.057-1.068.133-2.286.682-3.652 1.645-1.366.964-2.292 1.927-2.776 2.888-.484.962-.43 1.862.16 2.7.592.839 1.422 1.191 2.49 1.058 1.069-.134 2.286-.682 3.652-1.646zM39.748 90.135l-.57 4.102-1.468-.204 1.37-9.861 1.468.204-.57 4.102 11.706 1.627-.23 1.656-11.706-1.626zm14.262-8.143a5.312 5.312 0 01-.763 1.33 3.613 3.613 0 01-.977.897 2.802 2.802 0 01-1.198.377c-.435.029-.893-.054-1.375-.249-.928-.375-1.521-1.018-1.782-1.93-.271-.915-.149-2.013.369-3.293l.925-2.29-.634-.257c-.634-.256-1.15-.246-1.549.03-.394.264-.757.808-1.089 1.63a7.185 7.185 0 00-.433 1.628 5.671 5.671 0 00-.055 1.658l-1.385-.375a7.61 7.61 0 01.087-1.686 8.22 8.22 0 01.497-1.787 7.24 7.24 0 01.831-1.55c.307-.422.66-.737 1.059-.945.39-.224.837-.331 1.338-.32.49.007 1.045.136 1.667.387l5.972 2.414-.598 1.48-.705-.285c.177.44.245.932.203 1.476a5.45 5.45 0 01-.405 1.66zm-1.246-.668a4.31 4.31 0 00.337-1.647c.002-.545-.132-1.023-.404-1.433l-2.22-.897-.896 2.219c-.357.88-.459 1.59-.308 2.13.14.534.473.908 1.001 1.122.564.228 1.056.194 1.476-.1.42-.295.757-.76 1.014-1.394zm.066-14.914a3.613 3.613 0 00-.844.874c-.383.566-.572 1.127-.565 1.682-.004.548.166 1.076.51 1.585l5.633 3.813-.895 1.322-8.15-5.518.895-1.322.913.618a3.45 3.45 0 01-.132-1.534c.078-.544.298-1.084.66-1.619.107-.157.23-.318.372-.482.132-.171.268-.316.41-.434l1.194 1.015zm5.6-8.086l1.146-1.11 6.345 6.551c1.11 1.147 1.648 2.23 1.613 3.251-.034 1.02-.615 2.077-1.744 3.17-.891.863-1.864 1.443-2.917 1.74l-1.054-1.253a5.93 5.93 0 001.62-.538 5.55 5.55 0 001.428-1.012c.71-.687 1.083-1.349 1.12-1.984.046-.626-.305-1.326-1.054-2.1l-.344-.355a3.722 3.722 0 01-.331 1.38c-.214.453-.53.882-.948 1.287a4.43 4.43 0 01-1.48.957c-.559.206-1.138.3-1.738.281a5.033 5.033 0 01-1.806-.472c-.605-.297-1.18-.727-1.726-1.29-.547-.565-.954-1.15-1.222-1.754a4.803 4.803 0 01-.4-1.807 4.194 4.194 0 01.336-1.728 4.23 4.23 0 01.991-1.462 4.431 4.431 0 011.318-.906c.46-.199.919-.299 1.375-.3l-.528-.546zm1.665 1.72a2.715 2.715 0 00-1.44.124c-.468.154-.907.43-1.316.826-.3.29-.525.623-.675.996a2.536 2.536 0 00-.206 1.153c.02.403.134.822.342 1.255.208.433.52.864.934 1.291.414.428.834.753 1.26.975a3.5 3.5 0 001.257.396c.403.034.793-.019 1.172-.156.37-.146.704-.365 1.004-.655.41-.397.699-.827.868-1.29.177-.472.23-.955.157-1.448l-3.357-3.467zm6.28-.929c.528.777 1.182 1.268 1.962 1.472.784.187 1.602.031 2.455-.468.503-.294.93-.617 1.282-.97.356-.37.63-.816.823-1.34l.925 1.243a5.02 5.02 0 01-.933 1.228 6.976 6.976 0 01-1.42 1.072c-.7.41-1.384.656-2.054.74a4.508 4.508 0 01-1.876-.158 4.95 4.95 0 01-1.628-.94 6.697 6.697 0 01-1.299-1.619c-.39-.666-.654-1.319-.792-1.957a4.847 4.847 0 01-.045-1.845 3.93 3.93 0 01.686-1.612 4.4 4.4 0 011.4-1.258c.611-.359 1.222-.569 1.831-.632a3.818 3.818 0 011.76.225c.559.202 1.083.534 1.573.996a6.82 6.82 0 011.318 1.65c.05.088.102.175.153.263.045.076.087.161.128.255l-6.25 3.655zm4.148-4.01c-.522-.767-1.133-1.26-1.835-1.481-.69-.227-1.396-.13-2.118.292s-1.153.99-1.293 1.703c-.14.713-.005 1.485.407 2.315l4.839-2.83zm1.743-5.54l1.677-.556-.927-2.796 1.514-.502.928 2.795 2.831-.94.43 1.299-2.83.94 1.484 4.471c.171.517.34.928.509 1.233.175.288.36.501.552.638.204.132.424.192.66.18.237-.011.505-.067.806-.166.288-.096.577-.232.865-.408l.623 1.275c-.192.104-.4.2-.625.287a5.57 5.57 0 01-.565.228c-1.01.335-1.863.338-2.56.008-.688-.345-1.216-1.07-1.583-2.177l-1.681-5.067-1.677.556-.431-1.298zm14.484-.624c.011-.962.116-1.86.315-2.694.2-.847.5-1.572.899-2.175a4.593 4.593 0 011.517-1.447c.612-.348 1.33-.517 2.153-.508.823.01 1.53.194 2.121.556a4.362 4.362 0 011.485 1.48c.399.612.688 1.343.869 2.194.18.838.266 1.738.255 2.701-.01.975-.116 1.88-.315 2.714-.2.834-.505 1.559-.917 2.175a4.42 4.42 0 01-1.517 1.427c-.6.348-1.31.517-2.134.508-.823-.009-1.537-.194-2.14-.556a4.658 4.658 0 01-1.486-1.46c-.386-.625-.669-1.357-.85-2.195a12.246 12.246 0 01-.254-2.72zm1.749.02c-.02 1.672.22 2.985.716 3.941s1.257 1.439 2.283 1.45c1.026.012 1.797-.455 2.314-1.399.518-.944.785-2.253.804-3.924.019-1.672-.22-2.986-.716-3.942-.496-.955-1.257-1.439-2.283-1.45-1.026-.011-1.798.455-2.315 1.4-.517.944-.785 2.252-.803 3.924zm11.12 1.793l.38-1.59 5.285 1.263-.38 1.59-5.285-1.264zm10.858-1.03l-.272-1.527 4.334-.787 1.418.69-5.815 11.96-1.504-.73 4.943-10.168-3.104.562zm8.358 7.473a12.206 12.206 0 011.995-1.839c.703-.512 1.403-.867 2.099-1.064a4.59 4.59 0 012.093-.108c.691.134 1.346.474 1.964 1.017.619.543 1.035 1.145 1.248 1.804.222.668.276 1.365.162 2.09-.097.724-.354 1.468-.772 2.23a12.123 12.123 0 01-1.567 2.216 12.197 12.197 0 01-2.007 1.853c-.695.502-1.399.853-2.113 1.052a4.422 4.422 0 01-2.081.094c-.681-.127-1.331-.462-1.95-1.005-.618-.544-1.039-1.15-1.261-1.817a4.673 4.673 0 01-.175-2.076c.115-.725.377-1.465.786-2.218.409-.753.936-1.496 1.579-2.23zm1.313 1.154c-1.103 1.256-1.778 2.408-2.025 3.456-.246 1.048.016 1.91.787 2.588.771.677 1.66.826 2.667.447 1.008-.38 2.064-1.197 3.167-2.453 1.104-1.256 1.779-2.408 2.026-3.456.246-1.048-.016-1.91-.787-2.588-.771-.677-1.66-.826-2.668-.447-1.007.38-2.063 1.197-3.167 2.453zm7.892 7.259a12.181 12.181 0 012.404-1.257c.812-.312 1.579-.473 2.303-.484a4.593 4.593 0 012.05.439c.632.31 1.176.807 1.632 1.492.457.686.702 1.374.737 2.067a4.357 4.357 0 01-.386 2.06c-.281.674-.723 1.325-1.324 1.954a12.114 12.114 0 01-2.088 1.732c-.812.54-1.618.964-2.419 1.269-.801.305-1.573.46-2.314.467a4.42 4.42 0 01-2.034-.449c-.625-.299-1.166-.79-1.622-1.476-.456-.686-.705-1.38-.747-2.082a4.66 4.66 0 01.37-2.05c.299-.67.744-1.317 1.335-1.938a12.218 12.218 0 012.103-1.743zm.969 1.456c-1.392.926-2.343 1.864-2.853 2.812-.51.948-.48 1.85.088 2.703.569.855 1.389 1.23 2.461 1.124 1.071-.104 2.303-.62 3.695-1.547 1.391-.926 2.342-1.864 2.852-2.812.51-.948.481-1.85-.088-2.703-.568-.854-1.389-1.229-2.46-1.124-1.072.105-2.303.62-3.695 1.547z" fill="#fff"/></svg>