<svg width="99" height="96" fill="none" xmlns="http://www.w3.org/2000/svg"><path d="M95.623 50.994l.432-3.6 1.289.155-1.04 8.653-1.287-.155.432-3.6-10.272-1.233.175-1.453 10.271 1.233zM83.318 58.19c.17-.446.384-.84.643-1.18.246-.333.525-.6.838-.802a2.452 2.452 0 011.041-.352c.38-.034.784.03 1.209.191.819.311 1.35.863 1.595 1.656.255.796.168 1.76-.26 2.89l-.768 2.02.56.213c.56.213 1.012.194 1.355-.055.34-.238.647-.72.923-1.446.165-.436.281-.914.348-1.434.077-.516.083-1 .018-1.452l1.219.303c.041.454.026.947-.045 1.477a7.204 7.204 0 01-.401 1.573c-.205.54-.438.997-.699 1.372a2.696 2.696 0 01-.908.847 2.21 2.21 0 01-1.166.305c-.428.004-.917-.099-1.466-.307l-5.272-2.001.496-1.306.622.236a2.835 2.835 0 01-.205-1.288c.023-.465.13-.952.323-1.46zm1.104.56a3.75 3.75 0 00-.265 1.448c.008.478.135.893.38 1.247l1.96.744.743-1.96c.295-.777.372-1.4.23-1.87-.132-.464-.431-.785-.898-.962-.498-.19-.927-.15-1.289.115-.362.266-.649.679-.861 1.239zm.256 13.02a3.157 3.157 0 00.72-.783c.323-.505.476-1 .458-1.486-.008-.48-.169-.938-.48-1.375l-5.013-3.215.755-1.176 7.251 4.652-.754 1.176-.812-.521c.15.425.198.871.148 1.34-.056.477-.237.954-.542 1.43-.09.14-.195.284-.315.43a2.391 2.391 0 01-.349.39l-1.067-.863zm-4.882 7.349l-.98.995-5.686-5.604c-.995-.981-1.488-1.918-1.48-2.812.01-.894.497-1.83 1.462-2.81.763-.774 1.602-1.301 2.517-1.583l.95 1.076a5.19 5.19 0 00-1.409.504c-.445.23-.854.535-1.228.914-.607.616-.92 1.203-.94 1.76-.027.549.295 1.154.966 1.816l.308.303c.005-.4.092-.804.262-1.213.177-.401.445-.784.803-1.147a3.88 3.88 0 011.276-.868 4.01 4.01 0 011.515-.281c.525.02 1.055.145 1.59.376.535.247 1.047.612 1.537 1.095.49.482.858.985 1.105 1.509.239.531.368 1.056.388 1.573.02.533-.067 1.04-.26 1.52-.184.487-.464.92-.837 1.299a3.875 3.875 0 01-1.135.82c-.398.183-.798.28-1.197.29l.473.468zm-1.492-1.471c.431.067.85.02 1.257-.139a3.008 3.008 0 001.136-.75c.256-.26.446-.555.57-.885a2.22 2.22 0 00.157-1.013 2.876 2.876 0 00-.326-1.091 4.362 4.362 0 00-.843-1.111 4.364 4.364 0 00-1.123-.827 3.064 3.064 0 00-1.108-.322 2.394 2.394 0 00-1.022.16c-.32.136-.61.334-.866.595-.35.355-.595.737-.733 1.146-.146.417-.182.84-.108 1.271l3.009 2.966zm-5.569.966c-.477-.67-1.06-1.086-1.746-1.249-.69-.148-1.403.005-2.14.459a5.489 5.489 0 00-1.102.874c-.304.33-.536.727-.694 1.189l-.834-1.069c.186-.375.45-.74.792-1.093a6.1 6.1 0 011.221-.967c.605-.372 1.199-.601 1.784-.688a3.943 3.943 0 011.644.1 4.36 4.36 0 011.444.791c.442.38.831.843 1.168 1.39.355.576.6 1.142.733 1.698a4.24 4.24 0 01.076 1.613 3.44 3.44 0 01-.568 1.425c-.3.444-.7.82-1.2 1.129-.528.326-1.059.522-1.59.589a3.342 3.342 0 01-1.546-.162 3.985 3.985 0 01-1.396-.84 5.981 5.981 0 01-1.186-1.418l-.139-.227c-.04-.066-.08-.14-.117-.22l5.396-3.324zm-3.55 3.593c.472.66 1.017 1.08 1.635 1.259.609.185 1.225.086 1.848-.298s.989-.89 1.098-1.516c.108-.627-.026-1.3-.403-2.018l-4.178 2.573zm-1.445 4.849l-1.457.521.87 2.427-1.316.471-.87-2.427-2.458.88-.404-1.127 2.459-.88-1.391-3.883a6.617 6.617 0 00-.471-1.068c-.16-.25-.325-.431-.496-.547a.953.953 0 00-.582-.145c-.207.015-.44.07-.701.163a3.8 3.8 0 00-.75.374l-.571-1.102c.166-.095.346-.183.541-.265.18-.088.344-.158.49-.21.877-.315 1.623-.335 2.24-.06.61.287 1.086.912 1.43 1.872l1.576 4.4 1.456-.522.404 1.128zm-12.762.777c.01.843-.064 1.631-.222 2.365-.158.745-.405 1.385-.743 1.921a4.01 4.01 0 01-1.299 1.296c-.528.317-1.153.479-1.874.487-.72.009-1.343-.14-1.868-.444a3.817 3.817 0 01-1.328-1.265c-.361-.528-.63-1.163-.804-1.904a10.645 10.645 0 01-.277-2.358c-.01-.854.064-1.648.222-2.382.158-.733.41-1.374.76-1.921.337-.536.77-.963 1.299-1.28.517-.316 1.136-.478 1.857-.487.72-.008 1.349.14 1.885.444.524.305.967.721 1.328 1.25.35.538.612 1.173.787 1.903.175.73.267 1.521.277 2.375zm-1.53.018c-.017-1.464-.252-2.609-.705-3.435-.453-.826-1.129-1.234-2.027-1.224-.898.01-1.564.434-1.998 1.27-.434.837-.642 1.987-.625 3.45.017 1.464.252 2.61.705 3.436.453.826 1.129 1.234 2.027 1.224.898-.01 1.564-.434 1.998-1.27.434-.838.642-1.988.625-3.451zm-9.641-1.356l-.3 1.398-4.651-.998.3-1.398 4.65.998zm-9.653 1.019l.268 1.33-3.777.775-1.254-.575 4.853-10.583 1.33.61-4.125 8.995 2.705-.552zM26.92 81.23c-.539.647-1.106 1.2-1.703 1.655-.603.464-1.207.791-1.812.98a4.02 4.02 0 01-1.829.143c-.608-.102-1.188-.384-1.742-.845-.554-.461-.931-.978-1.133-1.55a3.818 3.818 0 01-.19-1.825c.068-.636.276-1.293.623-1.97.34-.669.78-1.327 1.32-1.974a10.724 10.724 0 011.714-1.668c.596-.456 1.204-.78 1.825-.97a3.87 3.87 0 011.819-.13c.599.095 1.175.373 1.729.835.554.46.936.981 1.146 1.56.202.572.268 1.176.2 1.812-.083.638-.295 1.291-.636 1.96-.34.669-.784 1.33-1.33 1.987zm-1.175-.98c.937-1.124 1.5-2.148 1.692-3.07.192-.923-.058-1.672-.748-2.247s-1.471-.685-2.344-.33c-.873.356-1.778 1.095-2.715 2.22-.937 1.125-1.5 2.148-1.692 3.071-.192.923.058 1.672.748 2.247s1.471.684 2.344.33c.873-.356 1.778-1.096 2.715-2.22zm-7.067-6.193a10.64 10.64 0 01-2.073 1.158c-.703.292-1.371.45-2.004.477a4.02 4.02 0 01-1.804-.336c-.56-.256-1.049-.678-1.464-1.267-.415-.59-.646-1.186-.693-1.79a3.819 3.819 0 01.289-1.813c.23-.597.601-1.177 1.112-1.741a10.643 10.643 0 011.787-1.565 10.724 10.724 0 012.087-1.167c.694-.286 1.365-.44 2.014-.464a3.87 3.87 0 011.79.345c.554.247 1.039.665 1.454 1.254.416.59.65 1.19.703 1.805a4.077 4.077 0 01-.276 1.802c-.245.594-.62 1.17-1.122 1.728a10.726 10.726 0 01-1.8 1.574zm-.881-1.25c1.196-.844 2.006-1.686 2.43-2.528.424-.842.377-1.63-.141-2.364s-1.244-1.042-2.18-.925c-.935.116-2 .597-3.196 1.44-1.196.844-2.006 1.686-2.43 2.528-.424.842-.377 1.63.14 2.364.518.734 1.244 1.042 2.18.925.935-.116 2-.597 3.197-1.44zM3.595 43.884l-.5 3.591-1.284-.178 1.2-8.633 1.284.18-.499 3.59 10.247 1.424-.201 1.45-10.247-1.424zm12.493-7.159a4.66 4.66 0 01-.668 1.165c-.252.329-.538.59-.855.785-.329.19-.678.3-1.049.33-.38.025-.782-.048-1.203-.218-.813-.328-1.332-.891-1.56-1.689-.238-.802-.13-1.763.322-2.883l.81-2.005-.555-.224c-.555-.225-1.007-.216-1.356.025-.344.232-.662.707-.953 1.427-.174.432-.3.907-.379 1.426a4.964 4.964 0 00-.048 1.451l-1.213-.329a6.657 6.657 0 01.076-1.476 7.2 7.2 0 01.435-1.564c.217-.535.46-.987.728-1.356.27-.37.578-.646.927-.828a2.21 2.21 0 011.171-.28c.428.006.915.119 1.46.34l5.227 2.112-.523 1.295-.617-.249c.155.386.214.816.177 1.292a4.77 4.77 0 01-.354 1.453zm-1.091-.584c.2-.494.298-.974.296-1.442a2.208 2.208 0 00-.354-1.255l-1.943-.785-.786 1.943c-.311.77-.401 1.392-.269 1.864.122.468.414.795.877.982.493.2.924.17 1.291-.087.368-.259.664-.665.888-1.22zm.071-13.081a3.151 3.151 0 00-.739.765c-.335.497-.5.987-.495 1.473-.003.48.146.943.447 1.388l4.93 3.338-.783 1.157-7.134-4.83.784-1.157.798.54a3.025 3.025 0 01-.114-1.343c.067-.476.26-.948.577-1.417.093-.137.202-.278.326-.422.115-.15.234-.276.358-.38l1.045.889zm4.919-7.098l1.004-.972 5.553 5.735c.972 1.004 1.443 1.952 1.413 2.846-.03.893-.539 1.818-1.527 2.775-.78.756-1.631 1.263-2.553 1.523l-.923-1.097c.51-.094.984-.25 1.419-.471.45-.22.867-.516 1.25-.886.62-.601.947-1.18.98-1.737.04-.548-.268-1.16-.924-1.838l-.3-.31c-.015.4-.111.802-.29 1.206a3.876 3.876 0 01-.83 1.128 3.88 3.88 0 01-1.296.838c-.489.18-.996.262-1.52.246a4.407 4.407 0 01-1.582-.414c-.53-.26-1.033-.636-1.511-1.13-.478-.494-.835-1.005-1.07-1.534a4.206 4.206 0 01-.35-1.582 3.67 3.67 0 01.295-1.512c.196-.483.485-.91.867-1.28.367-.355.751-.62 1.154-.793a3.046 3.046 0 011.204-.263l-.463-.478zm1.458 1.505a2.377 2.377 0 00-1.26.11c-.41.134-.795.375-1.153.722a2.49 2.49 0 00-.59.873 2.22 2.22 0 00-.181 1.008c.018.353.117.72.3 1.099.182.38.454.756.817 1.13.362.375.73.66 1.103.853.373.194.74.31 1.1.347.353.03.695-.016 1.026-.136a2.67 2.67 0 00.88-.574c.358-.347.611-.723.759-1.129a2.52 2.52 0 00.138-1.268l-2.94-3.035zm5.522-.832c.462.68 1.035 1.11 1.717 1.289.687.164 1.403.027 2.15-.41.44-.257.814-.54 1.122-.848a3.31 3.31 0 00.72-1.173l.81 1.087a4.39 4.39 0 01-.816 1.075c-.341.34-.755.653-1.243.939-.613.358-1.212.574-1.8.647a3.945 3.945 0 01-1.64-.138 4.333 4.333 0 01-1.426-.823 5.863 5.863 0 01-1.137-1.417 5.879 5.879 0 01-.694-1.713 4.246 4.246 0 01-.039-1.615c.096-.518.296-.989.6-1.411a3.86 3.86 0 011.226-1.102c.536-.313 1.07-.498 1.603-.552a3.342 3.342 0 011.541.196c.489.177.948.468 1.377.872.433.389.817.87 1.153 1.445l.135.23c.039.066.076.141.111.223l-5.47 3.2zm3.63-3.51c-.456-.671-.99-1.103-1.605-1.296-.604-.2-1.222-.114-1.854.255-.632.37-1.01.867-1.132 1.491-.123.625-.004 1.3.357 2.027l4.235-2.477zm1.552-4.861l1.468-.487-.812-2.447 1.326-.44.812 2.447 2.478-.822.377 1.136-2.478.823 1.3 3.915c.15.452.298.812.445 1.078.154.253.315.44.483.558a.952.952 0 00.578.16c.207-.011.442-.06.705-.147.253-.084.505-.203.758-.357l.546 1.116a5.16 5.16 0 01-.548.252 4.88 4.88 0 01-.495.199c-.884.293-1.63.296-2.24.007-.603-.302-1.065-.937-1.386-1.905l-1.472-4.436-1.468.487-.377-1.137zm12.722-.552c.01-.843.101-1.63.276-2.36.174-.74.436-1.375.786-1.903a4.02 4.02 0 011.328-1.266c.536-.305 1.164-.453 1.884-.445.721.008 1.34.17 1.858.486.529.317.962.748 1.3 1.295.349.537.602 1.177.76 1.922.158.733.233 1.521.223 2.364a10.72 10.72 0 01-.275 2.376c-.175.73-.443 1.364-.803 1.904a3.87 3.87 0 01-1.328 1.249c-.525.305-1.147.453-1.868.445-.72-.008-1.345-.17-1.874-.487a4.078 4.078 0 01-1.3-1.278c-.338-.547-.586-1.188-.744-1.921a10.722 10.722 0 01-.223-2.381zm1.53.017c-.016 1.463.193 2.613.627 3.45.434.836 1.1 1.26 1.999 1.27.898.01 1.573-.399 2.026-1.226.453-.826.687-1.971.703-3.435.017-1.463-.193-2.613-.627-3.45-.434-.836-1.1-1.26-1.998-1.27-.898-.01-1.574.399-2.026 1.225-.453.827-.688 1.972-.704 3.436zm9.764 1.573l.332-1.392 4.627 1.106-.333 1.39-4.626-1.104zm9.532-.892l-.238-1.337 3.793-.689 1.242.604-5.09 10.47-1.317-.64 4.327-8.9-2.717.492zm7.346 6.561a10.64 10.64 0 011.746-1.61c.615-.448 1.227-.759 1.837-.931a4.02 4.02 0 011.832-.095c.605.118 1.178.415 1.72.89.541.476.905 1.003 1.092 1.58a3.81 3.81 0 01.141 1.83c-.084.633-.31 1.284-.675 1.952a10.63 10.63 0 01-1.371 1.939 10.721 10.721 0 01-1.758 1.622c-.608.44-1.224.747-1.85.92a3.87 3.87 0 01-1.82.083c-.597-.11-1.166-.404-1.708-.88-.541-.475-.91-1.006-1.104-1.59a4.077 4.077 0 01-.153-1.817c.1-.635.33-1.282.688-1.942.358-.66.819-1.31 1.383-1.951zm1.149 1.01c-.966 1.1-1.557 2.108-1.773 3.025-.216.918.014 1.673.689 2.266.674.593 1.453.723 2.335.391.882-.332 1.806-1.047 2.772-2.147.966-1.1 1.557-2.108 1.773-3.025.216-.918-.014-1.673-.689-2.266-.674-.593-1.453-.723-2.335-.391-.882.332-1.806 1.048-2.772 2.147zm6.931 6.381a10.647 10.647 0 012.104-1.101c.71-.273 1.382-.415 2.016-.423a4.02 4.02 0 011.794.384c.554.27 1.03.706 1.43 1.306.399.6.614 1.203.644 1.809a3.818 3.818 0 01-.338 1.803c-.246.59-.632 1.16-1.159 1.71a10.647 10.647 0 01-1.827 1.517c-.711.473-1.417.844-2.118 1.11-.702.268-1.377.404-2.026.41a3.867 3.867 0 01-1.78-.393c-.547-.262-1.02-.693-1.42-1.293-.4-.6-.617-1.207-.654-1.822a4.078 4.078 0 01.324-1.794c.262-.588.651-1.153 1.168-1.697a10.722 10.722 0 011.842-1.526zm.848 1.274c-1.219.81-2.051 1.631-2.497 2.462-.447.83-.421 1.618.076 2.366.498.748 1.216 1.076 2.154.984.938-.092 2.016-.543 3.235-1.354 1.218-.812 2.05-1.632 2.497-2.462.446-.83.42-1.619-.077-2.367-.498-.747-1.216-1.075-2.154-.983-.938.091-2.016.543-3.234 1.354z" fill="#fff"/></svg>